{
.appVersion = "3260";
.formatVersion = 3;
customParameters = (
{
name = glyphOrder;
value = (
sinA,
sinAa,
sinAe,
sinAae,
sinI,
sinIi,
sinU,
sinUu,
sinRVocalic,
sinRrVocalic,
sinLVocalic,
sinLlVocalic,
sinE,
sinEe,
sinAi,
sinO,
sinOo,
sinAu,
sinKa,
sinKha,
sinGa,
sinGha,
sinNga,
sinNnga,
sinCa,
sinCha,
sinJa,
sinJha,
sinNya,
sinJnya,
sinNyja,
sinTta,
sinTtha,
sinDda,
sinDdha,
sinNna,
sinNndda,
sinTa,
sinTha,
sinDa,
sinDha,
sinNa,
sinNda,
sinPa,
sinPha,
sinBa,
sinBha,
sinMa,
sinMba,
sinYa,
sinRa,
sinLa,
sinVa,
sinSha,
sinSsa,
sinSa,
sinHa,
sinLla,
sinFa,
sinPfa,
sinKSsa,
sinKVa,
sinTVa,
sinTTha,
sinNDa,
sinNDha,
sinNVa,
sinNTha,
sinGDha,
sinDVa,
sinDDha,
sinTtTtha,
sinNyCa,
sinMatraAa,
sinMatraAae,
sinMatraAe,
sinMatraAi,
sinMatraAu,
sinMatraE,
sinMatraEe,
sinMatraI,
sinMatraIi,
sinMatraLl,
sinMatraLs,
sinMatraO,
sinMatraOo,
sinMatraR,
sinMatraRr,
sinMatraU,
sinMatraUu,
sinVirama,
sinRakar,
sinReph,
sinYansaya,
sinAnusvara,
sinVisarga,
sinMatraAa.virama,
sinTouch,
sinK.virama,
sinKh.virama,
sinG.virama,
sinGh.virama,
sinNg.virama,
sinNng.virama,
sinC.virama,
sinCh.virama,
sinJ.virama,
sinJh.virama,
sinNy.virama,
sinJny.virama,
sinNyj.virama,
sinTt.virama,
sinTth.virama,
sinDd.virama,
sinDdh.virama,
sinNn.virama,
sinNndd.virama,
sinT.virama,
sinTh.virama,
sinD.virama,
sinDh.virama,
sinN.virama,
sinNd.virama,
sinP.virama,
sinPh.virama,
sinB.virama,
sinBh.virama,
sinM.virama,
sinMb.virama,
sinY.virama,
sinR.virama,
sinL.virama,
sinV.virama,
sinSh.virama,
sinSs.virama,
sinS.virama,
sinH.virama,
sinLl.virama,
sinF.virama,
sinPf.virama,
sinKSs.virama,
sinKV.virama,
sinTV.virama,
sinTTh.virama,
sinND.virama,
sinNDh.virama,
sinNV.virama,
sinNTh.virama,
sinGDh.virama,
sinDV.virama,
sinDDh.virama,
sinTtTth.virama,
sinNyC.virama,
sinKI,
sinKhI,
sinGI,
sinGhI,
sinNgI,
sinNngI,
sinCI,
sinChI,
sinJI,
sinJhI,
sinNyI,
sinJnyI,
sinNyjI,
sinTtI,
sinTthI,
sinDdI,
sinDdhI,
sinNnI,
sinNnddI,
sinTI,
sinThI,
sinDI,
sinDhI,
sinNI,
sinNdI,
sinPI,
sinPhI,
sinBI,
sinBhI,
sinMI,
sinMbI,

glyphs = (
{
glyphname = sinA;
layers = (
{
layerId = "51BB9282-3B82-4DF1-A67A-294D3E37D73A";
shapes = (
{
closed = 1;
nodes = (
(363,-6,o),
(457,4,o),
(505,29,c),
(508,36,o),
(509,44,o),
(509,54,cs),
(509,70,o),
(505,89,o),
(500,102,c),
(426,45,o),
(363,32,o),
(305,32,cs),
(176,32,o),
(104,94,o),
(104,175,cs),
(104,243,o),
(156,309,o),
(237,309,cs),
(269,309,o),
(308,298,o),
(333,283,c),
(346,293,l),
(347,301,o),
(348,313,o),
(348,321,cs),
(348,422,o),
(278,495,o),
(185,495,cs),
(117,495,o),
(80,457,o),
(80,415,cs),
(80,378,o),
(104,360,o),
(122,359,c),
(133,407,o),
(177,441,o),
(225,441,cs),
(270,441,o),
(299,408,o),
(299,350,cs),
(299,321,o),
(292,315,o),
(290,312,c),
(323,344,l),
(298,347,o),
(277,349,o),
(255,349,cs),
(118,349,o),
(22,280,o),
(22,173,cs),
(22,52,o),
(148,-6,o),
(299,-6,cs)
);
},
{
closed = 1;
nodes = (
(435,-227,l),
(427,248,l),
(406,233,l),
(493,240,o),
(542,290,o),
(542,356,cs),
(542,424,o),
(490,445,o),
(436,491,c),
(419,483,l),
(406,466,o),
(382,426,o),
(382,386,cs),
(380,104,o),
(380,72,o),
(367,-227,c)
);
},
{
closed = 1;
nodes = (
(426,349,ls),
(426,388,o),
(425,405,o),
(437,449,c),
(477,416,o),
(491,387,o),
(491,351,cs),
(491,307,o),
(469,282,o),
(426,273,c)
);
}
);
width = 551;
}
);
unicode = 3461;
},
{
glyphname = sinI;
layers = (
{
layerId = "51BB9282-3B82-4DF1-A67A-294D3E37D73A";
shapes = (
{
closed = 1;
nodes = (
(539,-22,o),
(627,109,o),
(627,265,cs),
(627,430,o),
(498,501,o),
(363,501,cs),
(207,501,o),
(60,414,o),
(60,235,cs),
(60,147,o),
(120,50,o),
(258,50,cs),
(419,50,o),
(456,178,o),
(456,251,cs),
(456,325,o),
(403,358,o),
(352,358,cs),
(292,358,o),
(254,319,o),
(254,266,cs),
(254,226,o),
(278,192,o),
(339,192,cs),
(407,192,o),
(427,233,o),
(429,239,c),
(431,266,l),
(431,266,o),
(392,233,o),
(348,233,cs),
(313,233,o),
(287,251,o),
(287,267,cs),
(287,291,o),
(312,301,o),
(345,301,cs),
(380,301,o),
(425,281,o),
(425,238,cs),
(425,196,o),
(371,119,o),
(269,119,cs),
(166,119,o),
(98,175,o),
(98,247,cs),
(98,369,o),
(198,430,o),
(326,430,cs),
(519,430,o),
(588,340,o),
(588,249,cs),
(588,116,o),
(464,-5,o),
(223,-2,c),
(222,-25,o),
(231,-49,o),
(240,-71,c)
);
},
{
closed = 1;
nodes = (
(438,-253,o),
(495,-170,o),
(495,-130,cs),
(495,-74,o),
(442,-47,o),
(388,-47,cs),
(367,-47,o),
(347,-50,o),
(328,-52,c),
(237,-41,l),
(240,-71,l),
(394,-71,o),
(440,-97,o),
(440,-135,cs),
(440,-167,o),
(408,-188,o),
(339,-188,cs),
(270,-188,o),
(209,-165,o),
(201,-161,c),
(198,-170,o),
(194,-179,o),
(194,-197,cs),
(194,-210,o),
(197,-233,o),
(210,-249,c),
(234,-252,o),
(256,-255,o),
(278,-255,cs)
);
}
);
userData = {
com.typemytype.robofont.layerData = {
"Regular Nov 5 16, 14:31" = {
anchors = (
);
components = (
);
contours = (
{
points = (
{
segmentType = curve;
smooth = 0;
x = 275.133;
y = -320;
},
{
smooth = 0;
x = 493.49;
y = -351.212;
},
{
smooth = 0;
x = 638.41;
y = -272.795;
},
{
segmentType = curve;
smooth = 1;
x = 643.204;
y = -166;
},
{
smooth = 0;
x = 648.672;
y = -44.881;
},
{
smooth = 0;
x = 507.437;
y = -28;
},
{
segmentType = curve;
smooth = 0;
x = 507.437;
y = -28;
},
{
segmentType = line;
smooth = 0;
x = 368.432;
y = -19;
},
{
segmentType = line;
smooth = 0;
x = 363.55;
y = -74;
},
{
smooth = 0;
x = 491.874;
y = -73.686;
},
{
smooth = 0;
x = 543.527;
y = -89.077;
},
{
segmentType = curve;
smooth = 1;
x = 542.938;
y = -152;
},
{
smooth = 0;
x = 542.344;
y = -215.458;
},
{
smooth = 0;
x = 439.443;
y = -280.771;
},
{
segmentType = curve;
smooth = 0;
x = 263.326;
y = -240;
},
{
smooth = 0;
x = 252.43;
y = -267.338;
},
{
smooth = 0;
x = 267.87;
y = -310.09;
}
);
},
{
points = (
{
segmentType = curve;
smooth = 1;
x = 104.774;
y = 321;
},
{
smooth = 0;
x = 105;
y = 162;
},
{
smooth = 0;
x = 202.184;
y = 78.812;
},
{
segmentType = curve;
smooth = 1;
x = 338.563;
y = 78;
},
{
smooth = 0;
x = 496.363;
y = 77.06;
},
{
smooth = 0;
x = 575.313;
y = 169.413;
},
{
segmentType = curve;
smooth = 1;
x = 582.102;
y = 260;
},
{
smooth = 0;
x = 588.84;
y = 349.074;
},
{
smooth = 0;
x = 531.985;
y = 414.08;
},
{
segmentType = curve;
smooth = 1;
x = 462.226;
y = 415;
},
{
smooth = 0;
x = 388.605;
y = 416.035;
},
{
smooth = 0;
x = 335.713;
y = 367.065;
},
{
segmentType = curve;
smooth = 1;
x = 332.355;
y = 303;
},
{
smooth = 0;
x = 329.211;
y = 243;
},
{
smooth = 0;
x = 366.598;
y = 194.619;
},
{
segmentType = curve;
smooth = 1;
x = 445.643;
y = 194;
},
{
smooth = 0;
x = 532.394;
y = 193.32;
},
{
smooth = 0;
x = 559.25;
y = 263;
},
{
segmentType = curve;
smooth = 0;
x = 560.626;
y = 270;
},
{
segmentType = line;
smooth = 1;
x = 549.779;
y = 292;
},
{
smooth = 0;
x = 549.779;
y = 292;
},
{
smooth = 0;
x = 515.556;
y = 239;
},
{
segmentType = curve;
smooth = 1;
x = 460;
y = 239;
},
{
smooth = 0;
x = 415.796;
y = 239;
},
{
smooth = 0;
x = 385.154;
y = 261;
},
{
segmentType = curve;
smooth = 1;
x = 387.041;
y = 297;
},
{
smooth = 0;
x = 388.57;
y = 326.177;
},
{
smooth = 0;
x = 417.233;
y = 349;
},
{
segmentType = curve;
smooth = 1;
x = 455.767;
y = 349;
},
{
smooth = 0;
x = 501.463;
y = 349;
},
{
smooth = 0;
x = 545.692;
y = 309.436;
},
{
segmentType = curve;
smooth = 1;
x = 542.683;
y = 252;
},
{
smooth = 0;
x = 539.832;
y = 197.604;
},
{
smooth = 0;
x = 446.919;
y = 157.347;
},
{
segmentType = curve;
smooth = 1;
x = 335.28;
y = 168;
},
{
smooth = 0;
x = 240.734;
y = 177.022;
},
{
smooth = 0;
x = 161;
y = 226;
},
{
segmentType = curve;
smooth = 1;
x = 159;
y = 339;
},
{
smooth = 0;
x = 156;
y = 457;
},
{
smooth = 0;
x = 316;
y = 529;
},
{
segmentType = curve;
smooth = 1;
x = 487;
y = 522;
},
{
smooth = 0;
x = 662;
y = 515;
},
{
smooth = 0;
x = 733.907;
y = 388.635;
},
{
segmentType = curve;
smooth = 1;
x = 728.73;
y = 262;
},
{
smooth = 0;
x = 722.053;
y = 98.634;
},
{
smooth = 0;
x = 552.276;
y = -7.808;
},
{
segmentType = curve;
smooth = 0;
x = 331.166;
y = -5;
},
{
smooth = 0;
x = 326.07;
y = -25.909;
},
{
smooth = 0;
x = 334.116;
y = -63.182;
},
{
segmentType = curve;
smooth = 0;
x = 352.497;
y = -75;
},
{
smooth = 0;
x = 630.956;
y = -66.199;
},
{
smooth = 0;
x = 806;
y = 80;
},
{
segmentType = curve;
smooth = 1;
x = 806.932;
y = 314;
},
{
smooth = 0;
x = 808;
y = 522;
},
{
smooth = 0;
x = 643.643;
y = 623;
},
{
segmentType = curve;
smooth = 1;
x = 464.65;
y = 623;
},
{
smooth = 0;
x = 278.058;
y = 623;
},
{
smooth = 0;
x = 105;
y = 515;
}
);
}
);
lib = {
};
name = sinI;
unicodes = (
);
width = 867;
};
};
};
width = 663;
}
);
unicode = 3465;
},
{
glyphname = sinIi;
layers = (
{
layerId = "51BB9282-3B82-4DF1-A67A-294D3E37D73A";
shapes = (
{
closed = 1;
nodes = (
(255,555,o),
(277,579,o),
(277,607,cs),
(277,630,o),
(256,649,o),
(232,649,cs),
(206,649,o),
(183,625,o),
(183,596,cs),
(183,574,o),
(205,555,o),
(229,555,cs)
);
},
{
ref = sinRa;
},
{
closed = 1;
nodes = (
(502,447,o),
(523,471,o),
(523,497,cs),
(523,520,o),
(506,538,o),
(483,538,cs),
(457,538,o),
(433,514,o),
(433,487,cs),
(433,465,o),
(452,447,o),
(475,447,cs)
);
}
);
width = 558;
}
);
metricLeft = sinRa;
metricRight = sinRa;
unicode = 3466;
},
{
glyphname = sinU;
layers = (
{
layerId = "51BB9282-3B82-4DF1-A67A-294D3E37D73A";
shapes = (
{
closed = 1;
nodes = (
(553,-213,o),
(614,-149,o),
(639,-121,c),
(639,-105,o),
(634,-86,o),
(625,-81,c),
(593,-104,o),
(518,-124,o),
(423,-124,cs),
(225,-124,o),
(88,-51,o),
(88,74,cs),
(88,241,o),
(240,278,o),
(356,278,cs),
(378,278,o),
(479,277,o),
(505,273,c),
(523,291,l),
(525,301,o),
(525,312,o),
(525,323,cs),
(525,418,o),
(467,514,o),
(362,514,cs),
(287,514,o),
(227,477,o),
(227,419,cs),
(227,388,o),
(253,375,o),
(276,375,cs),
(279,375,o),
(284,375,o),
(287,376,c),
(298,428,o),
(320,475,o),
(382,475,cs),
(435,475,o),
(468,427,o),
(468,371,cs),
(468,357,o),
(465,341,o),
(460,327,c),
(482,344,l),
(473,348,o),
(437,357,o),
(360,357,cs),
(343,357,ls),
(214,357,o),
(45,268,o),
(45,61,cs),
(45,-86,o),
(147,-213,o),
(406,-213,cs)
);
}
);
width = 600;
}
);
unicode = 3467;
},
{
glyphname = sinRVocalic;
layers = (
{
layerId = "51BB9282-3B82-4DF1-A67A-294D3E37D73A";
shapes = (
{
closed = 1;
nodes = (
(590,-22,o),
(668,47,o),
(668,152,cs),
(668,245,o),
(610,330,o),
(498,331,cs),
(452,331,o),
(440,320,o),
(409,308,c),
(457,303,l),
(447,316,o),
(443,327,o),
(439,363,cs),
(436,400,o),
(472,436,o),
(511,436,cs),
(554,436,o),
(594,409,o),
(594,366,cs),
(594,338,o),
(575,301,o),
(572,295,c),
(596,308,o),
(658,333,o),
(654,390,cs),
(649,439,o),
(618,483,o),
(537,483,cs),
(442,483,o),
(395,406,o),
(395,295,cs),
(395,284,o),
(395,274,o),
(396,264,c),
(408,255,l),
(440,267,o),
(474,275,o),
(506,275,cs),
(571,273,o),
(632,247,o),
(632,172,cs),
(632,116,o),
(580,62,o),
(508,62,cs),
(418,62,o),
(374,103,o),
(374,157,cs),
(374,163,o),
(374,169,o),
(375,174,c),
(369,173,o),
(362,170,o),
(357,169,c),
(341,94,o),
(298,62,o),
(227,62,cs),
(150,62,o),
(97,93,o),
(90,148,cs),
(85,198,o),
(144,261,o),
(264,261,cs),
(284,261,o),
(307,259,o),
(332,255,c),
(342,266,l),
(345,278,o),
(346,292,o),
(346,306,cs),
(346,386,o),
(301,484,o),
(206,484,cs),
(141,484,o),
(104,446,o),
(104,405,cs),
(104,367,o),
(139,348,o),
(165,347,c),
(171,386,o),
(194,427,o),
(235,427,cs),
(269,427,o),
(300,381,o),
(300,342,cs),
(300,332,o),
(298,322,o),
(292,314,c),
(211,312,ls),
(106,309,o),
(58,220,o),
(58,141,cs),
(58,70,o),
(96,-20,o),
(213,-20,cs),
(315,-20,o),
(358,60,o),
(370,100,c),
(371,102,o),
(348,114,o),
(349,115,c),
(348,109,o),
(347,101,o),
(347,95,cs),
(347,36,o),
(402,-22,o),
(504,-22,cs)
);
},
{
pos = (648,0);
ref = sinMatraR;
}
);
width = 996;
}
);
unicode = 3469;
},
{
glyphname = sinLVocalic;
layers = (
{
layerId = "51BB9282-3B82-4DF1-A67A-294D3E37D73A";
shapes = (
{
closed = 1;
nodes = (
(609,-20,o),
(731,74,o),
(731,212,cs),
(731,296,o),
(667,345,o),
(583,345,cs),
(542,345,o),
(514,338,o),
(492,327,c),
(525,303,l),
(516,314,o),
(510,341,o),
(510,360,cs),
(510,416,o),
(565,435,o),
(599,435,cs),
(638,435,o),
(672,413,o),
(672,374,cs),
(672,337,o),
(650,320,o),
(645,312,c),
(658,298,l),
(686,308,o),
(725,336,o),
(725,392,cs),
(725,438,o),
(683,484,o),
(616,484,cs),
(517,484,o),
(472,409,o),
(472,312,cs),
(472,301,o),
(473,288,o),
(474,276,c),
(486,268,l),
(519,282,o),
(555,294,o),
(591,294,cs),
(648,294,o),
(696,271,o),
(696,212,cs),
(696,133,o),
(594,66,o),
(456,66,cs),
(292,66,o),
(207,122,o),
(207,188,cs),
(207,250,o),
(269,280,o),
(358,280,cs),
(378,280,o),
(399,278,o),
(423,275,c),
(434,287,l),
(438,305,o),
(440,327,o),
(440,347,cs),
(440,412,o),
(415,482,o),
(317,482,cs),
(254,482,o),
(214,446,o),
(214,408,cs),
(214,376,o),
(235,362,o),
(254,361,c),
(261,394,o),
(300,429,o),
(346,429,cs),
(388,429,o),
(404,405,o),
(404,372,cs),
(404,338,o),
(383,317,o),
(372,307,c),
(411,338,l),
(398,340,o),
(386,341,o),
(374,341,cs),
(275,341,o),
(173,281,o),
(173,177,cs),
(173,82,o),
(247,-20,o),
(460,-20,cs)
);
},
{
closed = 1;
nodes = (
(151,-8,o),
(168,4,o),
(172,9,c),
(152,43,o),
(123,97,o),
(123,191,cs),
(123,318,o),
(182,424,o),
(275,432,c),
(317,482,l),
(162,482,o),
(66,353,o),
(66,206,cs),
(66,93,o),
(111,27,o),
(139,-11,c)
);
},
{
closed = 1;
nodes = (
(808,27,o),
(845,110,o),
(845,212,cs),
(845,370,o),
(765,484,o),
(617,484,c),
(661,433,l),
(731,425,o),
(792,335,o),
(792,207,cs),
(792,114,o),
(766,44,o),
(748,9,c),
(753,3,o),
(770,-8,o),
(782,-10,c)
);
}
);
width = 883;
}
);
unicode = 3471;
},
{
glyphname = sinE;
layers = (
{
layerId = "51BB9282-3B82-4DF1-A67A-294D3E37D73A";
shapes = (
{
closed = 1;
nodes = (
(526,-32,o),
(640,111,o),
(640,296,cs),
(640,510,o),
(444,659,o),
(275,659,c),
(248,592,l),
(398,592,o),
(595,486,o),
(595,312,cs),
(595,179,o),
(513,64,o),
(357,60,cs),
(242,56,o),
(147,83,o),
(147,142,cs),
(147,201,o),
(224,231,o),
(305,231,cs),
(325,231,o),
(347,230,o),
(369,226,c),
(384,239,l),
(385,247,o),
(386,258,o),
(386,268,cs),
(386,342,o),
(336,433,o),
(228,433,cs),
(180,433,o),
(138,407,o),
(138,362,cs),
(138,334,o),
(160,315,o),
(200,319,c),
(200,328,o),
(218,373,o),
(268,373,cs),
(308,373,o),
(344,341,o),
(345,288,c),
(228,285,o),
(104,236,o),
(104,128,cs),
(104,39,o),
(191,-32,o),
(338,-32,cs)
);
},
{
closed = 1;
nodes = (
(69,218,o),
(177,268,o),
(306,275,c),
(351,288,l),
(260,288,o),
(97,284,o),
(30,271,c),
(24,254,o),
(21,222,o),
(20,198,c),
(30,190,l)
);
},
{
closed = 1;
nodes = (
(462,437,o),
(543,454,o),
(568,476,c),
(560,498,l),
(538,488,o),
(483,483,o),
(446,483,cs),
(392,483,o),
(337,496,o),
(306,538,cs),
(278,573,o),
(279,631,o),
(275,659,c),
(243,642,l),
(241,633,o),
(238,612,o),
(238,591,cs),
(238,562,o),
(244,532,o),
(258,505,cs),
(283,455,o),
(342,437,o),
(402,437,cs)
);
}
);
width = 667;
}
);
unicode = 3473;
},
{
glyphname = sinEe;
layers = (
{
layerId = "51BB9282-3B82-4DF1-A67A-294D3E37D73A";
shapes = (
{
closed = 1;
nodes = (
(517,-32,o),
(620,111,o),
(620,286,cs),
(620,510,o),
(381,659,o),
(214,659,c),
(187,592,l),
(337,592,o),
(575,486,o),
(575,301,cs),
(575,179,o),
(503,64,o),
(337,60,cs),
(232,56,o),
(127,83,o),
(127,142,cs),
(127,201,o),
(204,231,o),
(285,231,cs),
(305,231,o),
(327,230,o),
(349,226,c),
(364,239,l),
(365,247,o),
(366,258,o),
(366,268,cs),
(366,342,o),
(305,433,o),
(197,433,cs),
(150,433,o),
(118,407,o),
(118,362,cs),
(118,334,o),
(140,315,o),
(180,319,c),
(180,328,o),
(198,373,o),
(248,373,cs),
(288,373,o),
(324,341,o),
(325,288,c),
(208,285,o),
(84,236,o),
(84,128,cs),
(84,39,o),
(181,-32,o),
(318,-32,cs)
);
},
{
closed = 1;
nodes = (
(49,218,o),
(157,268,o),
(286,275,c),
(331,288,l),
(240,288,o),
(77,284,o),
(10,271,c),
(4,254,o),
(1,222,o),
(0,198,c),
(10,190,l)
);
},
{
closed = 1;
nodes = (
(402,432,o),
(481,448,o),
(507,471,c),
(499,498,l),
(476,488,o),
(422,483,o),
(384,483,cs),
(330,483,o),
(276,496,o),
(244,538,cs),
(217,573,o),
(218,631,o),
(214,659,c),
(181,642,l),
(179,633,o),
(176,612,o),
(176,591,cs),
(176,562,o),
(182,532,o),
(196,505,cs),
(221,455,o),
(290,432,o),
(351,432,cs)
);
},
{
pos = (556,17);
ref = sinVirama;
}
);
width = 673;
}
);
unicode = 3474;
},
{
glyphname = sinO;
layers = (
{
layerId = "51BB9282-3B82-4DF1-A67A-294D3E37D73A";
shapes = (
{
closed = 1;
nodes = (
(587,-15,o),
(648,136,o),
(648,287,cs),
(648,470,o),
(565,641,o),
(305,641,cs),
(216,641,o),
(136,619,o),
(88,582,c),
(80,568,o),
(82,527,o),
(90,519,c),
(134,547,o),
(211,571,o),
(308,571,cs),
(505,571,o),
(604,482,o),
(604,304,cs),
(604,193,o),
(558,75,o),
(442,75,cs),
(388,75,o),
(345,107,o),
(345,156,cs),
(345,161,o),
(345,166,o),
(346,172,c),
(325,166,l),
(311,109,o),
(275,73,o),
(211,73,cs),
(116,73,o),
(67,134,o),
(67,223,cs),
(67,318,o),
(142,350,o),
(170,353,c),
(161,382,l),
(161,379,o),
(148,185,o),
(343,185,cs),
(445,185,o),
(496,250,o),
(496,337,cs),
(496,419,o),
(436,486,o),
(362,486,cs),
(285,486,o),
(256,433,o),
(256,384,cs),
(256,334,o),
(291,300,o),
(340,300,cs),
(391,300,o),
(430,336,o),
(430,393,cs),
(430,408,o),
(428,424,o),
(422,442,c),
(407,445,l),
(403,362,o),
(364,350,o),
(339,350,cs),
(319,350,o),
(297,358,o),
(297,381,cs),
(297,406,o),
(323,433,o),
(371,433,cs),
(423,433,o),
(462,403,o),
(462,352,cs),
(462,281,o),
(415,250,o),
(347,250,cs),
(227,250,o),
(193,337,o),
(193,385,cs),
(193,392,o),
(193,400,o),
(195,406,c),
(188,414,o),
(179,422,o),
(172,425,c),
(107,413,o),
(28,341,o),
(28,208,cs),
(28,107,o),
(82,-14,o),
(210,-14,cs),
(292,-14,o),
(326,42,o),
(335,82,cs),
(335,83,o),
(325,82,o),
(326,83,c),
(325,41,o),
(367,-15,o),
(452,-15,cs)
);
}
);
width = 643;
}
);
unicode = 3476;
},
{
glyphname = sinOo;
layers = (
{
layerId = "51BB9282-3B82-4DF1-A67A-294D3E37D73A";
shapes = (
{
closed = 1;
nodes = (
(576,-14,o),
(637,137,o),
(637,288,cs),
(637,493,o),
(468,607,o),
(293,607,cs),
(229,607,o),
(168,597,o),
(131,572,c),
(123,552,o),
(121,530,o),
(120,503,c),
(122,503,o),
(199,548,o),
(293,548,cs),
(404,548,o),
(591,495,o),
(591,301,cs),
(591,190,o),
(547,72,o),
(441,72,cs),
(388,72,o),
(344,108,o),
(344,157,cs),
(344,162,o),
(344,167,o),
(345,173,c),
(325,167,l),
(310,110,o),
(274,73,o),
(203,73,cs),
(120,73,o),
(80,145,o),
(80,214,cs),
(80,305,o),
(141,351,o),
(170,354,c),
(160,383,l),
(160,380,o),
(165,186,o),
(342,186,cs),
(441,186,o),
(499,251,o),
(499,338,cs),
(499,420,o),
(434,487,o),
(359,487,cs),
(282,487,o),
(254,434,o),
(254,385,cs),
(254,335,o),
(288,301,o),
(337,301,cs),
(389,301,o),
(428,337,o),
(428,394,cs),
(428,409,o),
(426,425,o),
(419,443,c),
(405,446,l),
(401,363,o),
(361,351,o),
(336,351,cs),
(317,351,o),
(294,359,o),
(294,382,cs),
(294,407,o),
(321,434,o),
(368,434,cs),
(420,434,o),
(460,404,o),
(460,355,cs),
(460,282,o),
(411,247,o),
(340,247,cs),
(226,247,o),
(192,337,o),
(192,385,cs),
(192,393,o),
(192,401,o),
(194,407,c),
(188,416,o),
(179,424,o),
(172,426,c),
(106,416,o),
(38,327,o),
(38,205,cs),
(38,115,o),
(82,-13,o),
(203,-13,cs),
(291,-13,o),
(316,43,o),
(335,83,c),
(326,81,l),
(326,36,o),
(366,-14,o),
(451,-14,cs)
);
},
{
closed = 1;
nodes = (
(622,485,o),
(564,720,o),
(292,720,cs),
(198,720,o),
(143,681,o),
(143,681,c),
(130,656,o),
(125,630,o),
(124,618,c),
(147,635,o),
(158,639,o),
(186,649,c),
(209,680,l),
(194,670,o),
(148,632,o),
(127,562,c),
(156,557,l),
(175,607,o),
(230,663,o),
(265,668,c),
(242,669,o),
(218,670,o),
(191,649,c),
(191,649,o),
(206,659,o),
(270,659,cs),
(564,659,o),
(584,450,o),
(583,400,c),
(622,336,l)
);
}
);
width = 653;
}
);
unicode = 3477;
},
{
glyphname = sinKa;
layers = (
{
anchors = (
{
name = Virama;
pos = (734,420);
},
{
name = bottom;
pos = (842,250);
},
{
name = reph;
pos = (487,479);
},
{
name = top;
pos = (357,355);
}
);
layerId = "51BB9282-3B82-4DF1-A67A-294D3E37D73A";
shapes = (
{
closed = 1;
nodes = (
(289,-6,o),
(326,22,o),
(341,65,c),
(354,19,o),
(391,-6,o),
(437,-6,cs),
(532,-6,o),
(573,97,o),
(573,181,cs),
(573,266,o),
(526,333,o),
(438,333,cs),
(357,333,o),
(250,263,o),
(215,224,c),
(248,249,l),
(250,257,o),
(282,282,o),
(313,306,cs),
(380,357,o),
(468,394,o),
(570,394,cs),
(700,394,o),
(808,326,o),
(808,223,cs),
(808,159,o),
(758,73,o),
(651,73,cs),
(632,73,o),
(605,76,o),
(591,79,c),
(578,74,l),
(582,44,o),
(603,9,o),
(623,-6,c),
(768,3,o),
(849,107,o),
(849,230,cs),
(849,399,o),
(726,475,o),
(604,475,cs),
(483,475,o),
(392,414,o),
(287,327,cs),
(158,221,o),
(52,124,o),
(41,111,c),
(37,89,o),
(61,72,o),
(66,71,c),
(71,84,o),
(80,98,o),
(96,115,cs),
(127,150,o),
(178,184,o),
(212,206,cs),
(266,240,o),
(341,263,o),
(405,263,cs),
(482,263,o),
(540,229,o),
(540,168,cs),
(540,109,o),
(495,71,o),
(456,71,cs),
(388,71,o),
(363,125,o),
(363,175,cs),
(363,181,o),
(363,186,o),
(364,191,c),
(344,187,l),
(330,121,o),
(292,70,o),
(242,70,cs),
(177,70,o),
(167,134,o),
(122,134,cs),
(115,134,o),
(108,133,o),
(99,130,c),
(77,100,l),
(83,105,o),
(89,108,o),
(97,108,cs),
(109,108,o),
(124,101,o),
(129,90,cs),
(155,36,o),
(182,-6,o),
(244,-6,cs)
);
},
{
closed = 1;
nodes = (
(156,290,o),
(173,292,o),
(185,298,c),
(175,312,o),
(166,323,o),
(166,351,cs),
(166,401,o),
(195,434,o),
(236,434,cs),
(269,434,o),
(285,414,o),
(285,379,cs),
(285,349,o),
(273,320,o),
(257,302,c),
(281,311,l),
(297,327,o),
(335,371,o),
(335,414,cs),
(335,454,o),
(296,469,o),
(253,469,cs),
(169,469,o),
(93,411,o),
(93,339,cs),
(93,307,o),
(108,290,o),
(143,290,cs)
);
}
);
userData = {
com.typemytype.robofont.layerData = {
"Regular Oct 26 16, 18:32" = {
anchors = (
);
components = (
);
contours = (
{
points = (
{
segmentType = curve;
smooth = 0;
x = 35;
y = 125;
},
{
smooth = 0;
x = 59;
y = 149;
},
{
smooth = 0;
x = 135;
y = 250;
},
{
segmentType = curve;
smooth = 1;
x = 322;
y = 408;
},
{
smooth = 0;
x = 455;
y = 521;
},
{
smooth = 0;
x = 556;
y = 582;
},
{
segmentType = curve;
smooth = 1;
x = 706;
y = 582;
},
{
smooth = 0;
x = 862;
y = 582;
},
{
smooth = 0;
x = 1022;
y = 494;
},
{
segmentType = curve;
smooth = 1;
x = 1022;
y = 291;
},
{
smooth = 0;
x = 1022;
y = 135;
},
{
smooth = 0;
x = 940;
y = -8;
},
{
segmentType = curve;
smooth = 0;
x = 765.009;
y = -8;
},
{
smooth = 0;
x = 739.934;
y = 10.555;
},
{
smooth = 0;
x = 729;
y = 34;
},
{
segmentType = curve;
smooth = 0;
x = 731;
y = 72;
},
{
segmentType = line;
smooth = 0;
x = 747;
y = 79;
},
{
smooth = 0;
x = 766;
y = 74;
},
{
smooth = 0;
x = 792;
y = 68;
},
{
segmentType = curve;
smooth = 1;
x = 821;
y = 69;
},
{
smooth = 0;
x = 919;
y = 72;
},
{
smooth = 0;
x = 971;
y = 175;
},
{
segmentType = curve;
smooth = 1;
x = 971;
y = 278;
},
{
smooth = 0;
x = 971;
y = 419;
},
{
smooth = 0;
x = 835;
y = 515;
},
{
segmentType = curve;
smooth = 1;
x = 678;
y = 515;
},
{
smooth = 0;
x = 549;
y = 515;
},
{
smooth = 0;
x = 429;
y = 441;
},
{
segmentType = curve;
smooth = 1;
x = 354;
y = 380;
},
{
smooth = 0;
x = 337;
y = 366;
},
{
smooth = 0;
x = 261;
y = 303;
},
{
segmentType = curve;
smooth = 0;
x = 285;
y = 310;
},
{
segmentType = line;
smooth = 0;
x = 266;
y = 298;
},
{
smooth = 0;
x = 312;
y = 348;
},
{
smooth = 0;
x = 407;
y = 414;
},
{
segmentType = curve;
smooth = 1;
x = 502;
y = 414;
},
{
smooth = 0;
x = 613;
y = 414;
},
{
smooth = 0;
x = 683;
y = 325;
},
{
segmentType = curve;
smooth = 1;
x = 678;
y = 204;
},
{
smooth = 0;
x = 674;
y = 110;
},
{
smooth = 0;
x = 621;
y = -8;
},
{
segmentType = curve;
smooth = 1;
x = 509;
y = -8;
},
{
smooth = 0;
x = 451;
y = -8;
},
{
smooth = 0;
x = 405;
y = 23;
},
{
segmentType = curve;
smooth = 0;
x = 388.62;
y = 80;
},
{
smooth = 0;
x = 369;
y = 26;
},
{
smooth = 0;
x = 322;
y = -10;
},
{
segmentType = curve;
smooth = 1;
x = 262.009;
y = -8;
},
{
smooth = 0;
x = 192;
y = -6;
},
{
smooth = 0;
x = 178;
y = 49;
},
{
segmentType = curve;
smooth = 1;
x = 143;
y = 102;
},
{
smooth = 0;
x = 130;
y = 122;
},
{
smooth = 0;
x = 97;
y = 134;
},
{
segmentType = curve;
smooth = 0;
x = 79;
y = 115;
},
{
segmentType = line;
smooth = 0;
x = 104;
y = 152;
},
{
smooth = 0;
x = 186;
y = 176;
},
{
smooth = 0;
x = 164;
y = 70;
},
{
segmentType = curve;
smooth = 1;
x = 272;
y = 70;
},
{
smooth = 0;
x = 335;
y = 70;
},
{
smooth = 0;
x = 385;
y = 150;
},
{
segmentType = curve;
smooth = 0;
x = 383;
y = 232;
},
{
segmentType = line;
smooth = 0;
x = 418;
y = 232;
},
{
smooth = 0;
x = 420;
y = 116;
},
{
smooth = 0;
x = 447;
y = 64;
},
{
segmentType = curve;
smooth = 1;
x = 519;
y = 63;
},
{
smooth = 0;
x = 582;
y = 62;
},
{
smooth = 0;
x = 625;
y = 127;
},
{
segmentType = curve;
smooth = 1;
x = 626;
y = 205;
},
{
smooth = 0;
x = 627;
y = 288;
},
{
smooth = 0;
x = 563;
y = 347;
},
{
segmentType = curve;
smooth = 1;
x = 469;
y = 347;
},
{
smooth = 0;
x = 389;
y = 347;
},
{
smooth = 0;
x = 296;
y = 299;
},
{
segmentType = curve;
smooth = 1;
x = 228;
y = 256;
},
{
smooth = 0;
x = 178;
y = 225;
},
{
smooth = 0;
x = 72;
y = 125;
},
{
segmentType = curve;
smooth = 0;
x = 64;
y = 79;
},
{
smooth = 0;
x = 58;
y = 81;
},
{
smooth = 0;
x = 31;
y = 98;
}
);
},
{
points = (
{
segmentType = curve;
smooth = 1;
x = 80;
y = 428;
},
{
smooth = 0;
x = 84;
y = 517;
},
{
smooth = 0;
x = 158;
y = 584;
},
{
segmentType = curve;
smooth = 1;
x = 260;
y = 584;
},
{
smooth = 0;
x = 315;
y = 584;
},
{
smooth = 0;
x = 364;
y = 544;
},
{
segmentType = curve;
smooth = 1;
x = 362;
y = 491;
},
{
smooth = 0;
x = 360;
y = 440;
},
{
smooth = 0;
x = 335;
y = 408;
},
{
segmentType = curve;
smooth = 0;
x = 313.71;
y = 387;
},
{
segmentType = line;
smooth = 0;
x = 287.133;
y = 376;
},
{
smooth = 0;
x = 305;
y = 402;
},
{
smooth = 0;
x = 318;
y = 417;
},
{
segmentType = curve;
smooth = 1;
x = 320;
y = 454;
},
{
smooth = 0;
x = 322;
y = 501;
},
{
smooth = 0;
x = 302;
y = 538;
},
{
segmentType = curve;
smooth = 1;
x = 256;
y = 538;
},
{
smooth = 0;
x = 212;
y = 538;
},
{
smooth = 0;
x = 154;
y = 505;
},
{
segmentType = curve;
smooth = 1;
x = 151;
y = 442;
},
{
smooth = 0;
x = 149;
y = 407;
},
{
smooth = 0;
x = 161;
y = 389;
},
{
segmentType = curve;
smooth = 0;
x = 175;
y = 372;
},
{
smooth = 0;
x = 159;
y = 364;
},
{
smooth = 0;
x = 138;
y = 361;
},
{
segmentType = curve;
smooth = 1;
x = 122;
y = 361;
},
{
smooth = 0;
x = 98;
y = 361;
},
{
smooth = 0;
x = 78;
y = 385;
}
);
}
);
lib = {
};
name = sinKa;
unicodes = (
);
width = 1056;
};
};
};
width = 899;
}
);
unicode = 3482;
},
{
glyphname = sinKha;
layers = (
{
anchors = (
{
name = bottom;
pos = (638,237);
},
{
name = reph;
pos = (317,629);
}
);
layerId = "51BB9282-3B82-4DF1-A67A-294D3E37D73A";
shapes = (
{
closed = 1;
nodes = (
(574,-8,o),
(642,105,o),
(642,273,cs),
(642,495,o),
(531,626,o),
(317,626,cs),
(197,626,o),
(104,590,o),
(69,563,c),
(60,547,o),
(57,523,o),
(57,507,cs),
(57,496,o),
(59,487,o),
(60,483,c),
(63,484,o),
(153,552,o),
(307,552,cs),
(463,552,o),
(596,498,o),
(596,293,cs),
(596,172,o),
(539,60,o),
(464,60,cs),
(410,60,o),
(385,81,o),
(375,96,c),
(352,67,l),
(367,39,o),
(389,-8,o),
(466,-8,cs)
);
},
{
closed = 1;
nodes = (
(365,-8,o),
(440,126,o),
(440,230,cs),
(440,315,o),
(380,407,o),
(259,407,cs),
(121,407,o),
(24,306,o),
(24,167,cs),
(24,83,o),
(59,-13,o),
(160,-13,cs),
(230,-13,o),
(267,34,o),
(267,94,cs),
(267,150,o),
(230,182,o),
(180,182,cs),
(139,182,o),
(106,145,o),
(106,104,cs),
(106,79,o),
(116,60,o),
(126,43,c),
(163,25,l),
(147,41,o),
(144,53,o),
(144,67,cs),
(144,115,o),
(175,126,o),
(195,126,cs),
(215,126,o),
(236,113,o),
(236,90,cs),
(236,55,o),
(196,41,o),
(168,41,cs),
(127,41,o),
(63,83,o),
(63,186,cs),
(63,280,o),
(140,329,o),
(233,329,cs),
(316,329,o),
(392,292,o),
(392,201,cs),
(392,132,o),
(338,45,o),
(293,-13,c),
(303,-29,o),
(325,-43,o),
(337,-44,c)
);
}
);
width = 682;
}
);
unicode = 3483;
},
{
glyphname = sinGa;
layers = (
{
anchors = (
{
name = bottom;
pos = (738,272);
},
{
name = reph;
pos = (367,479);
}
);
layerId = "51BB9282-3B82-4DF1-A67A-294D3E37D73A";
shapes = (
{
closed = 1;
nodes = (
(663,-3,o),
(741,123,o),
(741,259,cs),
(741,387,o),
(653,473,o),
(540,473,cs),
(393,473,o),
(303,348,o),
(298,178,c),
(303,176,o),
(308,176,o),
(313,176,cs),
(321,176,o),
(328,176,o),
(336,178,c),
(334,185,o),
(333,199,o),
(333,206,cs),
(333,318,o),
(397,382,o),
(517,382,cs),
(598,382,o),
(697,338,o),
(698,236,cs),
(698,138,o),
(636,79,o),
(533,79,cs),
(516,79,o),
(493,81,o),
(476,86,c),
(466,79,l),
(466,62,o),
(486,12,o),
(506,-6,c)
);
},
{
closed = 1;
nodes = (
(386,-9,o),
(456,83,o),
(456,181,cs),
(456,258,o),
(403,315,o),
(335,314,c),
(331,260,l),
(362,259,o),
(420,240,o),
(420,188,cs),
(420,118,o),
(332,84,o),
(261,84,cs),
(160,84,o),
(82,136,o),
(82,224,cs),
(82,310,o),
(146,371,o),
(260,371,c),
(265,379,o),
(270,426,o),
(270,451,cs),
(270,457,o),
(270,463,o),
(269,466,c),
(159,465,o),
(44,372,o),
(44,203,cs),
(44,74,o),
(127,-9,o),
(257,-9,cs)
);
}
);
width = 781;
}
);
unicode = 3484;
},
{
glyphname = sinGha;
layers = (
{
anchors = (
{
name = bottom;
pos = (671,172);
},
{
name = reph;
pos = (377,479);
},
{
name = top;
pos = (249,440);
}
);
layerId = "51BB9282-3B82-4DF1-A67A-294D3E37D73A";
shapes = (
{
closed = 1;
nodes = (
(612,-19,o),
(680,53,o),
(680,169,cs),
(680,268,o),
(610,332,o),
(516,332,cs),
(465,332,o),
(450,323,o),
(418,311,c),
(475,298,l),
(468,306,o),
(454,330,o),
(454,353,cs),
(454,411,o),
(486,439,o),
(530,439,cs),
(570,439,o),
(608,413,o),
(608,369,cs),
(608,340,o),
(585,304,o),
(581,298,c),
(599,292,l),
(629,306,o),
(667,343,o),
(667,387,cs),
(667,441,o),
(630,486,o),
(555,486,cs),
(450,486,o),
(392,394,o),
(394,267,c),
(405,258,l),
(439,270,o),
(480,271,o),
(514,271,cs),
(573,271,o),
(643,252,o),
(643,183,cs),
(643,108,o),
(580,62,o),
(515,62,cs),
(447,62,o),
(429,97,o),
(429,126,cs),
(429,142,o),
(432,159,o),
(435,174,c),
(420,180,o),
(402,184,o),
(383,184,cs),
(358,184,o),
(332,178,o),
(314,166,c),
(315,119,o),
(284,65,o),
(204,65,cs),
(145,65,o),
(111,97,o),
(111,143,cs),
(111,202,o),
(159,263,o),
(272,263,cs),
(292,263,o),
(312,262,o),
(336,258,c),
(349,269,l),
(355,287,o),
(358,308,o),
(358,331,cs),
(358,406,o),
(321,487,o),
(228,487,cs),
(162,487,o),
(113,446,o),
(113,403,cs),
(113,369,o),
(146,351,o),
(170,350,c),
(179,389,o),
(204,430,o),
(249,430,cs),
(288,430,o),
(312,407,o),
(312,365,cs),
(312,341,o),
(302,328,o),
(295,317,c),
(222,315,l),
(219,314,o),
(221,319,o),
(219,318,cs),
(143,289,o),
(75,219,o),
(75,131,cs),
(75,46,o),
(121,-17,o),
(207,-17,cs),
(336,-17,o),
(343,112,o),
(344,121,c),
(346,122,o),
(357,126,o),
(373,126,cs),
(376,126,o),
(389,125,o),
(393,122,c),
(389,107,o),
(388,95,o),
(388,78,cs),
(388,39,o),
(421,-19,o),
(515,-19,cs)
);
},
{
closed = 1;
nodes = (
(57,258,o),
(158,299,o),
(286,299,cs),
(315,299,l),
(329,322,l),
(302,322,ls),
(213,322,o),
(81,319,o),
(22,308,c),
(7,239,l),
(16,232,l)
);
}
);
width = 720;
}
);
metricRight = sinSa;
unicode = 3485;
},
{
glyphname = sinNga;
layers = (
{
anchors = (
{
name = bottom;
pos = (621,182);
},
{
name = reph;
pos = (337,599);
}
);
layerId = "51BB9282-3B82-4DF1-A67A-294D3E37D73A";
shapes = (
{
closed = 1;
nodes = (
(591,-19,o),
(636,133,o),
(636,267,cs),
(636,463,o),
(543,628,o),
(281,628,cs),
(219,628,o),
(140,611,o),
(99,586,c),
(91,569,o),
(88,531,o),
(89,513,c),
(128,537,o),
(190,557,o),
(281,557,cs),
(467,557,o),
(589,479,o),
(589,287,cs),
(589,191,o),
(554,66,o),
(453,66,cs),
(400,66,o),
(359,101,o),
(359,153,cs),
(359,162,o),
(360,168,o),
(361,175,c),
(340,170,l),
(324,111,o),
(286,67,o),
(208,67,cs),
(148,67,o),
(85,87,o),
(85,155,cs),
(85,224,o),
(154,248,o),
(235,248,cs),
(276,248,o),
(337,247,o),
(359,237,c),
(374,249,l),
(380,274,o),
(382,281,o),
(382,308,cs),
(382,404,o),
(297,441,o),
(233,441,cs),
(124,441,o),
(67,386,o),
(67,320,cs),
(67,289,o),
(80,248,o),
(139,248,cs),
(180,248,o),
(219,283,o),
(219,342,cs),
(219,355,o),
(212,382,o),
(200,393,c),
(172,393,l),
(188,310,o),
(156,292,o),
(134,292,cs),
(111,292,o),
(101,308,o),
(101,325,cs),
(101,366,o),
(144,387,o),
(220,387,cs),
(275,387,o),
(344,368,o),
(344,309,cs),
(344,279,o),
(327,277,o),
(306,258,c),
(347,271,l),
(318,285,o),
(274,295,o),
(237,295,cs),
(140,295,o),
(40,258,o),
(40,134,cs),
(40,45,o),
(110,-15,o),
(188,-15,cs),
(296,-15,o),
(340,52,o),
(343,98,c),
(345,100,o),
(338,95,o),
(339,97,c),
(338,90,o),
(338,84,o),
(338,79,cs),
(338,32,o),
(374,-19,o),
(457,-19,cs)
);
}
);
width = 676;
}
);
unicode = 3486;
},
{
glyphname = sinNnga;
layers = (
{
anchors = (
{
name = reph;
pos = (467,479);
},
{
name = top;
pos = (599,471);
}
);
layerId = "51BB9282-3B82-4DF1-A67A-294D3E37D73A";
shapes = (
{
closed = 1;
nodes = (
(124,-8,o),
(136,-4,o),
(140,-1,c),
(124,27,o),
(93,114,o),
(93,193,cs),
(93,322,o),
(157,424,o),
(264,424,c),
(374,466,l),
(359,469,o),
(351,472,o),
(305,472,cs),
(167,472,o),
(35,382,o),
(35,205,cs),
(35,125,o),
(78,24,o),
(105,-8,c)
);
},
{
pos = (100,0);
ref = sinGa;
}
);
width = 881;
}
);
metricRight = sinGa;
unicode = 3487;
},
{
glyphname = sinCa;
layers = (
{
anchors = (
{
name = bottom;
pos = (634,262);
},
{
name = reph;
pos = (327,619);
}
);
layerId = "51BB9282-3B82-4DF1-A67A-294D3E37D73A";
shapes = (
{
closed = 1;
nodes = (
(544,-23,o),
(642,137,o),
(642,296,cs),
(642,513,o),
(515,628,o),
(311,628,cs),
(236,628,o),
(160,604,o),
(112,570,c),
(104,553,o),
(103,525,o),
(103,517,cs),
(103,509,o),
(104,500,o),
(105,497,c),
(162,527,o),
(222,553,o),
(304,553,cs),
(448,553,o),
(599,493,o),
(599,297,cs),
(599,187,o),
(544,69,o),
(347,69,cs),
(240,69,o),
(142,96,o),
(142,169,cs),
(142,231,o),
(210,258,o),
(287,258,cs),
(308,258,o),
(328,256,o),
(349,253,c),
(366,265,l),
(368,277,o),
(370,290,o),
(370,304,cs),
(370,376,o),
(321,459,o),
(224,459,cs),
(163,459,o),
(126,425,o),
(126,387,cs),
(126,361,o),
(144,344,o),
(175,344,cs),
(179,344,o),
(182,344,o),
(186,345,c),
(187,353,o),
(207,400,o),
(257,400,cs),
(297,400,o),
(332,372,o),
(330,319,c),
(324,317,o),
(313,317,o),
(307,317,cs),
(292,317,o),
(98,293,o),
(98,143,cs),
(98,36,o),
(205,-23,o),
(347,-23,cs)
);
},
{
closed = 1;
nodes = (
(80,251,o),
(181,297,o),
(325,304,c),
(331,320,l),
(241,320,o),
(103,313,o),
(39,300,c),
(32,285,o),
(26,256,o),
(26,232,c),
(36,224,l)
);
}
);
userData = {
com.typemytype.robofont.layerData = {
"Jan 19 17, 02:22" = {
anchors = (
{
name = rakaransaya;
x = 822;
y = 393;
}
);
components = (
);
contours = (
{
points = (
{
segmentType = curve;
smooth = 1;
x = 122.757;
y = 178;
},
{
smooth = 0;
x = 130.67;
y = 326.801;
},
{
smooth = 0;
x = 299.59;
y = 351.437;
},
{
segmentType = curve;
smooth = 1;
x = 408.553;
y = 381;
},
{
smooth = 0;
x = 417.23;
y = 381;
},
{
smooth = 0;
x = 430.553;
y = 381;
},
{
segmentType = curve;
smooth = 0;
x = 438.5;
y = 383;
},
{
smooth = 0;
x = 440.959;
y = 449;
},
{
smooth = 0;
x = 396.741;
y = 483;
},
{
segmentType = curve;
smooth = 1;
x = 347.741;
y = 483;
},
{
smooth = 0;
x = 285.741;
y = 483;
},
{
smooth = 0;
x = 260.754;
y = 426;
},
{
segmentType = curve;
smooth = 0;
x = 260.177;
y = 415;
},
{
smooth = 0;
x = 255;
y = 414;
},
{
smooth = 0;
x = 250;
y = 414;
},
{
segmentType = curve;
smooth = 1;
x = 245;
y = 414;
},
{
smooth = 0;
x = 206;
y = 414;
},
{
smooth = 0;
x = 184;
y = 436;
},
{
segmentType = curve;
smooth = 1;
x = 184;
y = 466;
},
{
smooth = 0;
x = 184;
y = 524;
},
{
smooth = 0;
x = 242;
y = 558;
},
{
segmentType = curve;
smooth = 1;
x = 300.671;
y = 558;
},
{
smooth = 0;
x = 431;
y = 558;
},
{
smooth = 0;
x = 488;
y = 454;
},
{
segmentType = curve;
smooth = 1;
x = 488;
y = 364;
},
{
smooth = 0;
x = 488;
y = 347;
},
{
smooth = 0;
x = 486;
y = 331;
},
{
segmentType = curve;
smooth = 0;
x = 482.988;
y = 316;
},
{
segmentType = line;
smooth = 0;
x = 462.15;
y = 300;
},
{
smooth = 0;
x = 437.359;
y = 304;
},
{
smooth = 0;
x = 410.465;
y = 306;
},
{
segmentType = curve;
smooth = 1;
x = 384.465;
y = 306;
},
{
smooth = 0;
x = 275;
y = 306;
},
{
smooth = 0;
x = 172;
y = 274;
},
{
segmentType = curve;
smooth = 1;
x = 172;
y = 198;
},
{
smooth = 0;
x = 172;
y = 138;
},
{
smooth = 0;
x = 286;
y = 96;
},
{
segmentType = curve;
smooth = 1;
x = 427;
y = 96;
},
{
smooth = 0;
x = 644;
y = 96;
},
{
smooth = 0;
x = 759;
y = 216;
},
{
segmentType = curve;
smooth = 1;
x = 770.597;
y = 423;
},
{
smooth = 0;
x = 781;
y = 605;
},
{
smooth = 0;
x = 646.552;
y = 715;
},
{
segmentType = curve;
smooth = 1;
x = 464.899;
y = 715;
},
{
smooth = 0;
x = 327.994;
y = 715;
},
{
smooth = 0;
x = 233.945;
y = 655;
},
{
segmentType = curve;
smooth = 0;
x = 231.755;
y = 655;
},
{
smooth = 0;
x = 231;
y = 658;
},
{
smooth = 0;
x = 230;
y = 662;
},
{
segmentType = curve;
smooth = 1;
x = 230;
y = 667;
},
{
smooth = 0;
x = 230;
y = 692;
},
{
smooth = 0;
x = 243;
y = 738;
},
{
segmentType = curve;
smooth = 0;
x = 252.048;
y = 756;
},
{
smooth = 0;
x = 297.869;
y = 777.808;
},
{
smooth = 0;
x = 370.62;
y = 798;
},
{
segmentType = curve;
smooth = 1;
x = 467.249;
y = 798;
},
{
smooth = 0;
x = 686;
y = 798;
},
{
smooth = 0;
x = 827;
y = 651;
},
{
segmentType = curve;
smooth = 1;
x = 827;
y = 424;
},
{
smooth = 0;
x = 827;
y = 169;
},
{
smooth = 0;
x = 688;
y = -17;
},
{
segmentType = curve;
smooth = 1;
x = 442;
y = -17;
},
{
smooth = 0;
x = 260;
y = -17;
},
{
smooth = 0;
x = 116.258;
y = 54;
}
);
},
{
points = (
{
segmentType = line;
smooth = 0;
x = 34.312;
y = 275;
},
{
segmentType = line;
smooth = 0;
x = 49.767;
y = 360;
},
{
smooth = 0;
x = 130.359;
y = 374.609;
},
{
smooth = 0;
x = 327.429;
y = 385.043;
},
{
segmentType = curve;
smooth = 0;
x = 439.972;
y = 384;
},
{
segmentType = line;
smooth = 0;
x = 433.186;
y = 369;
},
{
smooth = 0;
x = 252.505;
y = 359.913;
},
{
smooth = 0;
x = 100.774;
y = 298.32;
},
{
segmentType = curve;
smooth = 0;
x = 46.787;
y = 265;
}
);
}
);
lib = {
};
name = sinCa;
unicodes = (
);
width = 877;
};
};
};
width = 682;
}
);
unicode = 3488;
},
{
glyphname = sinCha;
layers = (
{
anchors = (
{
name = bottom;
pos = (581,182);
},
{
name = reph;
pos = (157,479);
}
);
layerId = "51BB9282-3B82-4DF1-A67A-294D3E37D73A";
shapes = (
{
closed = 1;
nodes = (
(487,-20,o),
(602,76,o),
(602,199,cs),
(602,287,o),
(544,336,o),
(451,336,cs),
(421,336,o),
(397,331,o),
(373,319,c),
(360,309,l),
(382,314,l),
(382,376,o),
(418,421,o),
(469,421,cs),
(511,421,o),
(552,388,o),
(552,331,cs),
(552,278,o),
(519,210,o),
(453,210,cs),
(377,210,o),
(382,300,o),
(382,332,c),
(370,345,l),
(375,375,o),
(389,429,o),
(409,474,cs),
(463,595,o),
(570,695,o),
(570,695,c),
(566,713,o),
(539,733,o),
(523,737,c),
(523,737,o),
(437,644,o),
(381,511,cs),
(344,424,o),
(335,353,o),
(335,312,cs),
(335,228,o),
(376,163,o),
(447,163,cs),
(541,163,o),
(590,272,o),
(590,350,cs),
(590,423,o),
(548,475,o),
(487,475,cs),
(403,475,o),
(340,375,o),
(340,291,cs),
(340,282,o),
(340,275,o),
(341,268,c),
(357,260,l),
(390,271,o),
(425,284,o),
(467,284,cs),
(518,284,o),
(563,263,o),
(563,209,cs),
(563,133,o),
(473,63,o),
(314,63,cs),
(169,63,o),
(86,122,o),
(86,189,cs),
(86,242,o),
(140,272,o),
(230,272,cs),
(248,272,o),
(271,271,o),
(294,268,c),
(306,279,l),
(310,297,o),
(312,318,o),
(312,339,cs),
(312,405,o),
(286,475,o),
(192,475,cs),
(125,475,o),
(86,440,o),
(86,397,cs),
(86,360,o),
(114,347,o),
(141,345,c),
(149,377,o),
(181,421,o),
(224,421,cs),
(260,421,o),
(275,396,o),
(275,364,cs),
(275,330,o),
(254,308,o),
(243,299,c),
(281,331,l),
(270,332,o),
(258,333,o),
(247,333,cs),
(146,333,o),
(45,278,o),
(45,173,cs),
(45,69,o),
(140,-20,o),
(311,-20,cs)
);
}
);
width = 642;
}
);
metricLeft = sinPa;
unicode = 3489;
},
{
glyphname = sinJa;
layers = (
{
anchors = (
{
name = reph;
pos = (167,479);
}
);
layerId = "51BB9282-3B82-4DF1-A67A-294D3E37D73A";
shapes = (
{
closed = 1;
nodes = (
(459,297,o),
(459,364,o),
(503,456,cs),
(555,567,o),
(657,663,o),
(657,663,c),
(655,679,o),
(626,708,o),
(612,707,c),
(612,707,o),
(521,619,o),
(471,494,cs),
(430,396,o),
(425,317,o),
(425,317,c),
(459,297,l)
);
},
{
ref = sinPa;
}
);
width = 671;
}
);
unicode = 3490;
},
{
glyphname = sinJha;
layers = (
{
anchors = (
{
name = bottom;
pos = (1091,262);
},
{
name = reph;
pos = (677,579);
}
);
layerId = "51BB9282-3B82-4DF1-A67A-294D3E37D73A";
shapes = (
{
closed = 1;
nodes = (
(1019,-18,o),
(1090,123,o),
(1090,268,cs),
(1090,460,o),
(977,606,o),
(773,606,cs),
(698,606,o),
(633,586,o),
(597,564,c),
(581,545,o),
(565,518,o),
(565,501,cs),
(565,493,o),
(566,488,o),
(567,485,c),
(576,485,o),
(637,539,o),
(771,539,cs),
(931,539,o),
(1041,460,o),
(1041,300,cs),
(1041,179,o),
(980,84,o),
(898,83,cs),
(854,82,o),
(807,111,o),
(807,170,cs),
(807,174,o),
(807,179,o),
(808,185,c),
(786,179,l),
(770,119,o),
(734,85,o),
(671,85,cs),
(583,85,o),
(551,152,o),
(555,199,cs),
(563,290,o),
(703,326,o),
(774,326,cs),
(785,326,o),
(794,325,o),
(801,324,c),
(799,353,o),
(798,374,o),
(784,399,c),
(677,404,o),
(511,326,o),
(511,160,cs),
(511,79,o),
(550,-15,o),
(659,-15,cs),
(754,-15,o),
(790,59,o),
(795,107,c),
(798,107,o),
(776,112,o),
(778,114,c),
(777,107,o),
(776,101,o),
(776,92,cs),
(776,45,o),
(813,-18,o),
(895,-18,cs)
);
},
{
closed = 1;
nodes = (
(126,290,o),
(144,293,o),
(156,299,c),
(146,312,o),
(137,324,o),
(137,351,cs),
(137,404,o),
(167,441,o),
(205,441,cs),
(242,441,o),
(258,411,o),
(256,376,cs),
(256,344,o),
(243,320,o),
(228,303,c),
(252,311,l),
(268,329,o),
(306,372,o),
(306,414,cs),
(306,454,o),
(267,470,o),
(225,470,cs),
(141,470,o),
(64,413,o),
(64,339,cs),
(64,307,o),
(80,290,o),
(114,290,cs)
);
},
{
closed = 1;
nodes = (
(260,-6,o),
(297,23,o),
(312,65,c),
(325,20,o),
(362,-6,o),
(408,-6,cs),
(503,-6,o),
(544,99,o),
(544,180,cs),
(544,267,o),
(497,334,o),
(413,334,cs),
(328,334,o),
(221,264,o),
(186,225,c),
(219,250,l),
(221,257,o),
(246,278,o),
(284,306,cs),
(356,361,o),
(453,397,o),
(565,397,cs),
(666,397,o),
(747,369,o),
(780,353,c),
(784,399,l),
(744,431,o),
(670,455,o),
(579,455,cs),
(480,455,o),
(384,428,o),
(258,329,cs),
(167,257,o),
(31,121,o),
(12,101,c),
(8,79,o),
(29,65,o),
(35,64,c),
(41,101,o),
(143,181,o),
(183,206,cs),
(237,240,o),
(312,264,o),
(376,264,cs),
(452,264,o),
(511,231,o),
(511,169,cs),
(511,106,o),
(453,83,o),
(412,83,cs),
(362,83,o),
(334,120,o),
(334,182,cs),
(334,186,o),
(334,184,o),
(335,192,c),
(315,188,l),
(301,122,o),
(253,81,o),
(202,81,cs),
(148,81,o),
(136,127,o),
(91,127,cs),
(84,127,o),
(77,126,o),
(68,123,c),
(46,93,l),
(52,99,o),
(58,101,o),
(65,101,cs),
(78,101,o),
(91,93,o),
(98,83,cs),
(128,40,o),
(155,-6,o),
(216,-6,cs)
);
}
);
width = 1130;
}
);
metricRight = sinDha;
unicode = 3491;
},
{
glyphname = sinNya;
layers = (
{
anchors = (
{
name = MatraI;
pos = (472,365);
},
{
name = reph;
pos = (657,479);
},
{
name = top;
pos = (799,481);
}
);
layerId = "51BB9282-3B82-4DF1-A67A-294D3E37D73A";
shapes = (
{
closed = 1;
nodes = (
(404,4,o),
(440,33,o),
(456,75,c),
(469,29,o),
(505,4,o),
(552,4,cs),
(647,4,o),
(688,108,o),
(688,191,cs),
(688,276,o),
(640,343,o),
(553,343,cs),
(472,343,o),
(364,273,o),
(330,234,c),
(362,260,l),
(364,267,o),
(397,292,o),
(428,316,cs),
(494,367,o),
(621,410,o),
(695,417,cs),
(755,423,o),
(780,433,o),
(812,423,c),
(866,492,l),
(831,492,o),
(810,492,o),
(771,490,cs),
(629,482,o),
(506,423,o),
(402,338,cs),
(272,231,o),
(167,133,o),
(156,121,c),
(151,99,o),
(176,82,o),
(181,81,c),
(186,95,o),
(194,109,o),
(210,125,cs),
(242,160,o),
(292,194,o),
(327,216,cs),
(381,251,o),
(456,273,o),
(519,273,cs),
(596,273,o),
(654,239,o),
(654,179,cs),
(654,119,o),
(611,81,o),
(570,81,cs),
(502,81,o),
(478,134,o),
(478,186,cs),
(478,191,o),
(478,196,o),
(479,201,c),
(459,197,l),
(444,131,o),
(407,80,o),
(356,80,cs),
(291,80,o),
(282,144,o),
(237,144,cs),
(230,144,o),
(222,143,o),
(213,139,c),
(192,111,l),
(197,116,o),
(203,118,o),
(211,118,cs),
(223,118,o),
(239,112,o),
(245,100,cs),
(269,46,o),
(296,4,o),
(358,4,cs)
);
},
{
closed = 1;
nodes = (
(130,0,o),
(142,4,o),
(146,7,c),
(130,35,o),
(106,108,o),
(106,178,cs),
(106,302,o),
(187,437,o),
(295,427,c),
(381,479,l),
(366,481,o),
(351,482,o),
(336,482,cs),
(194,482,o),
(42,376,o),
(42,203,cs),
(42,113,o),
(84,33,o),
(111,0,c)
);
},
{
closed = 1;
nodes = (
(270,300,o),
(287,302,o),
(299,308,c),
(289,323,o),
(281,334,o),
(281,361,cs),
(281,412,o),
(310,444,o),
(350,444,cs),
(384,444,o),
(400,423,o),
(400,388,cs),
(400,358,o),
(389,331,o),
(371,312,c),
(396,321,l),
(412,338,o),
(449,381,o),
(449,423,cs),
(449,463,o),
(411,480,o),
(367,480,cs),
(283,480,o),
(208,421,o),
(208,349,cs),
(208,317,o),
(222,300,o),
(258,300,cs)
);
},
{
pos = (611,0);
ref = sinDa;
}
);
width = 1094;
}
);
metricRight = sinDa;
unicode = 3492;
},
{
glyphname = sinJnya;
layers = (
{
anchors = (
{
name = reph;
pos = (567,479);
},
{
name = top;
pos = (659,481);
}
);
layerId = "51BB9282-3B82-4DF1-A67A-294D3E37D73A";
shapes = (
{
closed = 1;
nodes = (
(490,1,o),
(560,93,o),
(560,191,cs),
(560,268,o),
(507,326,o),
(439,325,c),
(435,270,l),
(467,269,o),
(525,251,o),
(525,198,cs),
(525,128,o),
(436,94,o),
(365,94,cs),
(264,94,o),
(186,146,o),
(186,234,cs),
(186,320,o),
(251,381,o),
(364,381,c),
(369,388,o),
(375,436,o),
(375,460,cs),
(375,467,o),
(375,474,o),
(374,477,c),
(263,476,o),
(149,382,o),
(149,212,cs),
(149,84,o),
(232,1,o),
(361,1,cs)
);
},
{
closed = 1;
nodes = (
(124,2,o),
(136,6,o),
(140,9,c),
(124,38,o),
(93,124,o),
(93,202,cs),
(93,333,o),
(157,434,o),
(264,434,c),
(374,477,l),
(359,480,o),
(351,483,o),
(305,483,cs),
(167,483,o),
(35,392,o),
(35,215,cs),
(35,134,o),
(78,35,o),
(105,2,c)
);
},
{
pos = (480,0);
ref = sinDa;
},
{
closed = 1;
nodes = (
(425,187,o),
(432,187,o),
(440,188,c),
(438,195,o),
(437,208,o),
(437,216,cs),
(437,329,o),
(511,419,o),
(670,419,c),
(730,492,l),
(479,492,o),
(408,357,o),
(403,188,c),
(408,187,o),
(412,187,o),
(417,187,cs)
);
}
);
width = 963;
}
);
metricLeft = sinNnga;
metricRight = sinDa;
unicode = 3493;
},
{
glyphname = sinNyja;
layers = (
{
anchors = (
{
name = reph;
pos = (267,469);
}
);
layerId = "51BB9282-3B82-4DF1-A67A-294D3E37D73A";
shapes = (
{
closed = 1;
nodes = (
(115,3,o),
(127,7,o),
(131,10,c),
(115,39,o),
(88,115,o),
(88,194,cs),
(88,323,o),
(163,425,o),
(254,425,cs),
(263,425,o),
(264,424,o),
(270,424,c),
(316,480,l),
(307,481,o),
(296,481,o),
(286,481,cs),
(133,481,o),
(30,371,o),
(30,219,cs),
(30,125,o),
(69,36,o),
(96,3,c)
);
},
{
pos = (109,0);
ref = sinJa;
}
);
width = 780;
}
);
metricLeft = sinNda;
metricRight = sinJa;
unicode = 3494;
},
{
glyphname = sinTta;
layers = (
{
anchors = (
{
name = bottom;
pos = (571,232);
},
{
name = reph;
pos = (207,629);
}
);
layerId = "51BB9282-3B82-4DF1-A67A-294D3E37D73A";
shapes = (
{
closed = 1;
nodes = (
(470,-27,o),
(583,113,o),
(583,307,cs),
(583,512,o),
(459,632,o),
(274,632,cs),
(195,632,o),
(113,612,o),
(82,588,c),
(73,569,o),
(69,542,o),
(71,511,c),
(111,528,o),
(168,558,o),
(278,558,cs),
(425,558,o),
(537,485,o),
(537,324,cs),
(537,172,o),
(439,70,o),
(279,70,cs),
(174,70,o),
(88,116,o),
(88,192,cs),
(88,266,o),
(168,296,o),
(250,296,cs),
(270,296,o),
(292,294,o),
(312,290,c),
(322,304,l),
(320,327,o),
(310,349,o),
(295,371,c),
(293,371,o),
(287,372,o),
(282,372,cs),
(142,372,o),
(44,293,o),
(44,176,cs),
(44,65,o),
(130,-27,o),
(282,-27,cs)
);
}
);
userData = {
com.typemytype.robofont.layerData = {
"Jan 26 17, 16:33" = {
anchors = (
{
name = rakaransaya;
x = 719;
y = 343;
}
);
components = (
);
contours = (
{
points = (
{
smooth = 0;
x = 570;
y = -48;
},
{
smooth = 0;
x = 708;
y = 116;
},
{
segmentType = curve;
smooth = 1;
x = 716;
y = 344;
},
{
smooth = 0;
x = 725;
y = 599;
},
{
smooth = 0;
x = 570;
y = 746;
},
{
segmentType = curve;
smooth = 1;
x = 368;
y = 746;
},
{
smooth = 0;
x = 276;
y = 746;
},
{
smooth = 0;
x = 217;
y = 724;
},
{
segmentType = curve;
smooth = 0;
x = 174;
y = 696;
},
{
smooth = 0;
x = 159;
y = 667;
},
{
smooth = 0;
x = 138;
y = 608;
},
{
segmentType = curve;
smooth = 1;
x = 149;
y = 600;
},
{
smooth = 0;
x = 151;
y = 600;
},
{
smooth = 0;
x = 234;
y = 659;
},
{
segmentType = curve;
smooth = 1;
x = 359;
y = 659;
},
{
smooth = 0;
x = 547;
y = 659;
},
{
smooth = 0;
x = 671;
y = 566;
},
{
segmentType = curve;
smooth = 1;
x = 651;
y = 358;
},
{
smooth = 0;
x = 635;
y = 190;
},
{
smooth = 0;
x = 536;
y = 75;
},
{
segmentType = curve;
smooth = 1;
x = 343;
y = 71;
},
{
smooth = 0;
x = 212;
y = 68;
},
{
smooth = 0;
x = 107;
y = 127;
},
{
segmentType = curve;
smooth = 1;
x = 109;
y = 204;
},
{
smooth = 0;
x = 112;
y = 332;
},
{
smooth = 0;
x = 267;
y = 356;
},
{
segmentType = curve;
smooth = 0;
x = 388;
y = 335;
},
{
segmentType = line;
smooth = 0;
x = 400;
y = 353;
},
{
segmentType = line;
smooth = 0;
x = 367;
y = 436;
},
{
smooth = 0;
x = 359;
y = 437;
},
{
smooth = 0;
x = 349;
y = 437;
},
{
segmentType = curve;
smooth = 1;
x = 340;
y = 437;
},
{
smooth = 0;
x = 236;
y = 437;
},
{
smooth = 0;
x = 56;
y = 358;
},
{
segmentType = curve;
smooth = 1;
x = 51;
y = 181;
},
{
smooth = 0;
x = 47;
y = 54;
},
{
smooth = 0;
x = 156;
y = -50;
},
{
segmentType = curve;
smooth = 1;
x = 337;
y = -49;
}
);
}
);
lib = {
};
name = sinTta;
unicodes = (
);
width = 760;
};
};
};
width = 628;
}
);
unicode = 3495;
},
{
glyphname = sinTtha;
layers = (
{
anchors = (
{
name = bottom;
pos = (591,182);
},
{
name = reph;
pos = (57,479);
}
);
layerId = "51BB9282-3B82-4DF1-A67A-294D3E37D73A";
shapes = (
{
closed = 1;
nodes = (
(560,-18,o),
(624,123,o),
(624,265,cs),
(624,533,o),
(394,659,o),
(227,659,c),
(216,587,l),
(384,587,o),
(578,458,o),
(578,270,cs),
(578,165,o),
(518,83,o),
(434,83,cs),
(383,83,o),
(340,113,o),
(340,167,cs),
(340,173,o),
(340,178,o),
(341,185,c),
(321,179,l),
(302,119,o),
(258,81,o),
(193,81,cs),
(133,81,o),
(85,113,o),
(85,176,cs),
(85,253,o),
(160,288,o),
(249,288,cs),
(270,288,o),
(292,286,o),
(315,282,c),
(326,295,l),
(323,320,o),
(308,357,o),
(297,368,c),
(197,372,o),
(44,309,o),
(44,157,cs),
(44,66,o),
(98,-15,o),
(188,-15,cs),
(272,-15,o),
(324,57,o),
(329,107,c),
(330,107,o),
(310,112,o),
(311,114,c),
(312,72,o),
(332,-18,o),
(434,-18,cs)
);
},
{
closed = 1;
nodes = (
(410,431,o),
(477,449,o),
(502,468,c),
(486,494,l),
(466,486,o),
(436,479,o),
(395,479,cs),
(264,479,o),
(237,543,o),
(227,659,c),
(196,641,l),
(193,621,o),
(191,600,o),
(191,581,cs),
(191,494,o),
(236,431,o),
(349,431,cs)
);
}
);
userData = {
com.typemytype.robofont.layerData = {
background = {
anchors = (
);
components = (
);
contours = (
{
points = (
{
smooth = 0;
x = 326;
y = 562;
},
{
smooth = 0;
x = 282;
y = 683;
},
{
segmentType = curve;
smooth = 0;
x = 306;
y = 837;
},
{
segmentType = line;
smooth = 0;
x = 346;
y = 858;
},
{
smooth = 0;
x = 353;
y = 817;
},
{
smooth = 0;
x = 351;
y = 738;
},
{
segmentType = curve;
smooth = 1;
x = 400;
y = 682;
},
{
smooth = 0;
x = 465;
y = 607;
},
{
smooth = 0;
x = 613;
y = 613;
},
{
segmentType = curve;
smooth = 0;
x = 674;
y = 638;
},
{
segmentType = line;
smooth = 0;
x = 685;
y = 611;
},
{
smooth = 0;
x = 653;
y = 584;
},
{
smooth = 0;
x = 578;
y = 562;
},
{
segmentType = curve;
smooth = 1;
x = 504;
y = 562;
}
);
},
{
points = (
{
segmentType = move;
smooth = 0;
x = 700;
y = 395;
},
{
smooth = 0;
x = 698;
y = 597;
},
{
smooth = 0;
x = 536;
y = 764;
},
{
segmentType = curve;
smooth = 0;
x = 331;
y = 764;
},
{
segmentType = line;
smooth = 0;
x = 346;
y = 857;
},
{
smooth = 0;
x = 550;
y = 857;
},
{
smooth = 0;
x = 756;
y = 666;
},
{
segmentType = curve;
smooth = 0;
x = 752;
y = 403;
}
);
}
);
lib = {
};
name = sinTtha;
unicodes = (
);
width = 827;
};
};
};
width = 669;
}
);
unicode = 3496;
},
{
glyphname = sinDda;
layers = (
{
anchors = (
{
name = bottom;
pos = (671,252);
},
{
name = reph;
pos = (347,619);
}
);
layerId = "51BB9282-3B82-4DF1-A67A-294D3E37D73A";
shapes = (
{
closed = 1;
nodes = (
(619,-19,o),
(679,132,o),
(679,270,cs),
(679,464,o),
(560,628,o),
(347,628,cs),
(250,628,o),
(182,605,o),
(140,586,c),
(129,569,o),
(125,533,o),
(127,512,c),
(136,516,o),
(211,557,o),
(343,557,cs),
(487,557,o),
(631,479,o),
(631,297,cs),
(631,191,o),
(581,66,o),
(480,66,cs),
(427,66,o),
(396,101,o),
(396,153,cs),
(396,162,o),
(397,168,o),
(398,175,c),
(377,170,l),
(360,111,o),
(323,67,o),
(250,67,cs),
(180,67,o),
(142,106,o),
(142,165,cs),
(142,238,o),
(191,272,o),
(279,272,cs),
(318,272,o),
(344,266,o),
(360,259,c),
(372,267,l),
(374,276,o),
(374,280,o),
(374,301,cs),
(374,393,o),
(315,463,o),
(229,463,cs),
(172,463,o),
(135,432,o),
(135,395,cs),
(135,369,o),
(154,345,o),
(197,349,c),
(197,368,o),
(216,408,o),
(263,408,cs),
(293,408,o),
(328,392,o),
(328,346,cs),
(328,339,o),
(327,330,o),
(325,320,c),
(309,313,o),
(318,317,o),
(306,315,cs),
(188,309,o),
(93,263,o),
(93,135,cs),
(93,40,o),
(151,-15,o),
(238,-15,cs),
(334,-15,o),
(377,52,o),
(380,98,c),
(382,100,o),
(374,95,o),
(376,97,c),
(374,85,l),
(374,28,o),
(409,-19,o),
(484,-19,cs)
);
},
{
closed = 1;
nodes = (
(89,253,o),
(166,303,o),
(326,310,c),
(361,323,l),
(269,324,o),
(119,314,o),
(52,302,c),
(45,280,o),
(41,258,o),
(40,233,c),
(50,226,l)
);
}
);
width = 724;
}
);
metricRight = sinDda;
unicode = 3497;
},
{
glyphname = sinDdha;
layers = (
{
anchors = (
{
name = bottom;
pos = (651,182);
},
{
name = reph;
pos = (67,479);
}
);
layerId = "51BB9282-3B82-4DF1-A67A-294D3E37D73A";
shapes = (
{
closed = 1;
nodes = (
(619,-19,o),
(672,153,o),
(672,274,cs),
(672,512,o),
(469,658,o),
(302,658,c),
(274,582,l),
(288,584,o),
(284,584,o),
(290,584,cs),
(485,584,o),
(630,447,o),
(630,282,cs),
(630,194,o),
(589,66,o),
(483,66,cs),
(427,66,o),
(396,101,o),
(396,153,cs),
(396,162,o),
(397,168,o),
(398,175,c),
(378,170,l),
(361,111,o),
(322,67,o),
(245,67,cs),
(180,67,o),
(143,97,o),
(143,150,cs),
(143,217,o),
(203,251,o),
(271,251,cs),
(296,251,o),
(318,247,o),
(340,237,c),
(352,246,l),
(354,256,o),
(354,260,o),
(354,280,cs),
(354,372,o),
(295,443,o),
(209,443,cs),
(152,443,o),
(115,412,o),
(115,374,cs),
(115,348,o),
(134,324,o),
(177,329,c),
(177,347,o),
(196,386,o),
(243,386,cs),
(273,386,o),
(308,371,o),
(308,325,cs),
(308,318,o),
(307,308,o),
(305,299,c),
(300,297,o),
(298,297,o),
(286,295,cs),
(205,280,o),
(94,249,o),
(94,128,cs),
(94,41,o),
(153,-15,o),
(239,-15,cs),
(334,-15,o),
(378,52,o),
(381,98,c),
(377,97,l),
(376,85,l),
(376,21,o),
(418,-19,o),
(484,-19,cs)
);
},
{
closed = 1;
nodes = (
(69,232,o),
(177,282,o),
(306,289,c),
(341,302,l),
(249,303,o),
(99,294,o),
(32,281,c),
(25,260,o),
(21,236,o),
(20,212,c),
(30,205,l)
);
},
{
closed = 1;
nodes = (
(498,435,o),
(557,459,o),
(574,472,c),
(565,497,l),
(543,488,o),
(509,482,o),
(471,482,cs),
(331,482,o),
(302,562,o),
(302,658,c),
(270,641,l),
(268,633,o),
(265,611,o),
(265,589,cs),
(265,488,o),
(326,435,o),
(428,435,cs)
);
}
);
width = 717;
}
);
metricRight = "=sinTta";
unicode = 3498;
},
{
glyphname = sinNna;
layers = (
{
anchors = (
{
name = Virama;
pos = (863,388);
},
{
name = bottom;
pos = (911,182);
},
{
name = reph;
pos = (167,479);
}
);
layerId = "51BB9282-3B82-4DF1-A67A-294D3E37D73A";
shapes = (
{
closed = 1;
nodes = (
(507,-11,o),
(550,165,o),
(550,255,cs),
(550,372,o),
(481,486,o),
(331,486,cs),
(215,486,o),
(118,410,o),
(118,288,cs),
(118,194,o),
(203,128,o),
(293,128,cs),
(363,128,o),
(412,170,o),
(412,228,cs),
(412,273,o),
(377,308,o),
(318,308,cs),
(276,308,o),
(254,289,o),
(216,253,c),
(205,216,l),
(232,243,o),
(261,274,o),
(300,274,cs),
(331,274,o),
(351,259,o),
(351,233,cs),
(351,191,o),
(315,171,o),
(284,171,cs),
(248,171,o),
(156,190,o),
(156,289,cs),
(156,379,o),
(220,426,o),
(324,426,cs),
(441,426,o),
(515,338,o),
(515,254,cs),
(515,152,o),
(447,74,o),
(315,74,cs),
(182,74,o),
(147,92,o),
(74,92,cs),
(62,92,o),
(50,90,o),
(35,84,c),
(77,69,l),
(175,199,o),
(470,487,o),
(652,601,c),
(649,621,o),
(625,654,o),
(605,659,c),
(422,500,o),
(180,260,o),
(52,92,c),
(30,90,o),
(10,75,o),
(10,51,cs),
(10,41,o),
(14,33,o),
(16,30,c),
(24,24,o),
(40,25,o),
(51,34,c),
(51,39,o),
(49,51,o),
(74,51,cs),
(155,51,o),
(186,-11,o),
(333,-11,cs)
);
},
{
closed = 1;
nodes = (
(862,-26,o),
(924,111,o),
(924,242,cs),
(924,367,o),
(870,423,o),
(803,423,cs),
(738,423,o),
(693,361,o),
(676,301,c),
(677,292,l),
(680,326,o),
(667,369,o),
(627,369,cs),
(578,369,o),
(541,312,o),
(537,265,c),
(545,200,l),
(557,266,o),
(571,301,o),
(603,301,cs),
(655,301,o),
(656,229,o),
(653,171,c),
(659,170,o),
(675,170,o),
(684,173,c),
(696,271,o),
(725,335,o),
(797,335,cs),
(835,335,o),
(890,311,o),
(890,221,cs),
(890,130,o),
(834,54,o),
(724,54,cs),
(678,54,o),
(638,67,o),
(605,83,c),
(595,77,o),
(585,64,o),
(583,54,c),
(589,23,o),
(633,-26,o),
(720,-26,cs)
);
}
);
userData = {
com.typemytype.robofont.layerData = {
"Regular Oct 20 16, 02:48" = {
anchors = (
);
components = (
);
contours = (
{
points = (
{
segmentType = line;
smooth = 0;
x = 28;
y = 97;
},
{
smooth = 0;
x = 25;
y = 102.963;
},
{
smooth = 0;
x = 18.592;
y = 120.812;
},
{
segmentType = curve;
smooth = 1;
x = 25;
y = 142;
},
{
smooth = 0;
x = 32.234;
y = 165.92;
},
{
smooth = 0;
x = 60.559;
y = 176.889;
},
{
segmentType = curve;
smooth = 0;
x = 87;
y = 183;
},
{
smooth = 0;
x = 258.424;
y = 398.788;
},
{
smooth = 0;
x = 415.657;
y = 637.287;
},
{
segmentType = curve;
smooth = 0;
x = 644.114;
y = 834;
},
{
smooth = 0;
x = 655.424;
y = 828.275;
},
{
smooth = 0;
x = 693.356;
y = 807.518;
},
{
segmentType = curve;
smooth = 0;
x = 692.551;
y = 766;
},
{
smooth = 0;
x = 477.663;
y = 629.514;
},
{
smooth = 0;
x = 271.488;
y = 349.133;
},
{
segmentType = curve;
smooth = 0;
x = 137.643;
y = 182;
},
{
smooth = 0;
x = 253.335;
y = 187.191;
},
{
smooth = 0;
x = 258.601;
y = 95.489;
},
{
segmentType = curve;
smooth = 1;
x = 441.04;
y = 91;
},
{
smooth = 0;
x = 615.771;
y = 86.701;
},
{
smooth = 0;
x = 689.237;
y = 184.328;
},
{
segmentType = curve;
smooth = 1;
x = 698.723;
y = 300;
},
{
smooth = 0;
x = 707.12;
y = 402.947;
},
{
smooth = 0;
x = 610.03;
y = 489;
},
{
segmentType = curve;
smooth = 1;
x = 496.89;
y = 489;
},
{
smooth = 0;
x = 382.726;
y = 489;
},
{
smooth = 0;
x = 340.663;
y = 410.417;
},
{
segmentType = curve;
smooth = 1;
x = 338.988;
y = 346;
},
{
smooth = 0;
x = 334.993;
y = 220.082;
},
{
smooth = 0;
x = 414.476;
y = 206;
},
{
segmentType = curve;
smooth = 1;
x = 440;
y = 206;
},
{
smooth = 0;
x = 469.212;
y = 206;
},
{
smooth = 0;
x = 500.479;
y = 221.47;
},
{
segmentType = curve;
smooth = 1;
x = 502.988;
y = 256;
},
{
smooth = 0;
x = 506;
y = 297;
},
{
smooth = 0;
x = 471;
y = 337;
},
{
segmentType = curve;
smooth = 1;
x = 420;
y = 340;
},
{
smooth = 0;
x = 381;
y = 342;
},
{
smooth = 0;
x = 346;
y = 329;
},
{
segmentType = curve;
smooth = 0;
x = 311.403;
y = 293;
},
{
segmentType = line;
smooth = 1;
x = 321.496;
y = 352;
},
{
smooth = 0;
x = 369.448;
y = 398.244;
},
{
smooth = 0;
x = 411.263;
y = 409.109;
},
{
segmentType = curve;
smooth = 1;
x = 450.432;
y = 408.938;
},
{
smooth = 0;
x = 539.853;
y = 408.546;
},
{
smooth = 0;
x = 588.079;
y = 348.131;
},
{
segmentType = curve;
smooth = 1;
x = 584.465;
y = 279;
},
{
smooth = 0;
x = 580.692;
y = 206.85;
},
{
smooth = 0;
x = 528.761;
y = 162;
},
{
segmentType = curve;
smooth = 1;
x = 448.966;
y = 162;
},
{
smooth = 0;
x = 346.22;
y = 162;
},
{
smooth = 0;
x = 281.097;
y = 242.486;
},
{
segmentType = curve;
smooth = 1;
x = 286.456;
y = 334;
},
{
smooth = 0;
x = 291.518;
y = 440.308;
},
{
smooth = 0;
x = 340.537;
y = 481.553;
},
{
segmentType = curve;
smooth = 0;
x = 410;
y = 515;
},
{
smooth = 0;
x = 434;
y = 540;
},
{
smooth = 0;
x = 469;
y = 556;
},
{
segmentType = curve;
smooth = 0;
x = 486;
y = 561.193;
},
{
smooth = 0;
x = 495.386;
y = 563.717;
},
{
smooth = 0;
x = 505.11;
y = 565;
},
{
segmentType = curve;
smooth = 1;
x = 515.086;
y = 565;
},
{
smooth = 0;
x = 662.006;
y = 565;
},
{
smooth = 0;
x = 756.191;
y = 453.418;
},
{
segmentType = curve;
smooth = 1;
x = 748.308;
y = 303;
},
{
smooth = 0;
x = 742.426;
y = 190.77;
},
{
smooth = 0;
x = 668.449;
y = -9.409;
},
{
segmentType = curve;
smooth = 1;
x = 471.799;
y = -11;
},
{
smooth = 0;
x = 235.818;
y = -12.909;
},
{
smooth = 0;
x = 243.882;
y = 132.151;
},
{
segmentType = curve;
smooth = 1;
x = 112.019;
y = 133;
},
{
smooth = 0;
x = 84.627;
y = 133.176;
},
{
smooth = 0;
x = 72.632;
y = 120.883;
},
{
segmentType = curve;
smooth = 0;
x = 60.241;
y = 114;
}
);
},
{
points = (
{
segmentType = curve;
smooth = 0;
x = 740.425;
y = 248;
},
{
smooth = 0;
x = 732.964;
y = 248;
},
{
smooth = 0;
x = 730.169;
y = 259.429;
},
{
segmentType = curve;
smooth = 0;
x = 731.617;
y = 328;
},
{
smooth = 0;
x = 736.165;
y = 385.644;
},
{
smooth = 0;
x = 779.953;
y = 458.204;
},
{
segmentType = curve;
smooth = 1;
x = 841.012;
y = 459;
},
{
smooth = 0;
x = 891.771;
y = 459.662;
},
{
smooth = 0;
x = 916.444;
y = 417.347;
},
{
segmentType = curve;
smooth = 0;
x = 912.032;
y = 375;
},
{
segmentType = line;
smooth = 0;
x = 901.976;
y = 393;
},
{
smooth = 0;
x = 924.749;
y = 458.921;
},
{
smooth = 0;
x = 990.364;
y = 526.474;
},
{
segmentType = curve;
smooth = 1;
x = 1065.99;
y = 526;
},
{
smooth = 0;
x = 1150.03;
y = 525.473;
},
{
smooth = 0;
x = 1214.1;
y = 461.982;
},
{
segmentType = curve;
smooth = 1;
x = 1214.05;
y = 299;
},
{
smooth = 0;
x = 1214;
y = 160.093;
},
{
smooth = 0;
x = 1127.67;
y = -10.06;
},
{
segmentType = curve;
smooth = 1;
x = 991.855;
y = -30;
},
{
smooth = 0;
x = 872.116;
y = -47.579;
},
{
smooth = 0;
x = 782.128;
y = 13.315;
},
{
segmentType = curve;
smooth = 0;
x = 777.979;
y = 74;
},
{
smooth = 0;
x = 783.117;
y = 89;
},
{
smooth = 0;
x = 793.567;
y = 104;
},
{
segmentType = curve;
smooth = 0;
x = 806.918;
y = 110;
},
{
smooth = 0;
x = 848.814;
y = 82.349;
},
{
smooth = 0;
x = 935.935;
y = 60.869;
},
{
segmentType = curve;
smooth = 1;
x = 978.468;
y = 68;
},
{
smooth = 0;
x = 1109.99;
y = 90.05;
},
{
smooth = 0;
x = 1160.37;
y = 195.087;
},
{
segmentType = curve;
smooth = 1;
x = 1158.27;
y = 287;
},
{
smooth = 0;
x = 1155.96;
y = 387.717;
},
{
smooth = 0;
x = 1101.95;
y = 418.24;
},
{
segmentType = curve;
smooth = 1;
x = 1050.23;
y = 415;
},
{
smooth = 0;
x = 966.716;
y = 409.768;
},
{
smooth = 0;
x = 920.161;
y = 308.776;
},
{
segmentType = curve;
smooth = 0;
x = 916.368;
y = 266;
},
{
smooth = 0;
x = 903.848;
y = 262;
},
{
smooth = 0;
x = 883.219;
y = 262;
},
{
segmentType = curve;
smooth = 0;
x = 875.211;
y = 263;
},
{
smooth = 0;
x = 881.463;
y = 337.694;
},
{
smooth = 0;
x = 844.281;
y = 375.648;
},
{
segmentType = curve;
smooth = 1;
x = 815.028;
y = 374;
},
{
smooth = 0;
x = 773.101;
y = 371.638;
},
{
smooth = 0;
x = 758.611;
y = 337.557;
}
);
}
);
lib = {
};
name = sinNna;
unicodes = (
);
width = 1253;
};
};
};
width = 964;
}
);
metricRight = sinGa;
unicode = 3499;
},
{
glyphname = sinNndda;
layers = (
{
anchors = (
{
name = bottom;
pos = (771,182);
}
);
layerId = "51BB9282-3B82-4DF1-A67A-294D3E37D73A";
shapes = (
{
closed = 1;
nodes = (
(150,-6,o),
(161,-2,o),
(166,2,c),
(144,35,o),
(100,84,o),
(100,193,cs),
(100,271,o),
(119,395,o),
(266,395,cs),
(279,395,o),
(279,395,o),
(287,393,c),
(292,405,l),
(395,409,l),
(392,439,l),
(384,441,o),
(372,443,o),
(353,444,cs),
(340,445,o),
(329,446,o),
(302,446,cs),
(139,446,o),
(44,354,o),
(44,190,cs),
(44,90,o),
(93,29,o),
(130,-6,c)
);
},
{
pos = (121,0);
ref = sinDda;
}
);
width = 845;
}
);
metricRight = sinDda;
unicode = 3500;
},
{
glyphname = sinTa;
layers = (
{
anchors = (
{
name = Virama;
pos = (692,411);
},
{
name = bottom;
pos = (787,276);
},
{
name = top;
pos = (297,355);
}
);
layerId = "51BB9282-3B82-4DF1-A67A-294D3E37D73A";
shapes = (
{
closed = 1;
nodes = (
(424,-7,o),
(512,111,o),
(512,210,cs),
(512,287,o),
(460,326,o),
(387,326,cs),
(340,326,o),
(299,311,o),
(268,293,cs),
(221,265,o),
(227,269,o),
(211,256,c),
(222,268,o),
(237,281,o),
(258,297,cs),
(320,345,o),
(399,389,o),
(514,389,cs),
(648,389,o),
(745,329,o),
(745,217,cs),
(745,129,o),
(685,75,o),
(557,75,cs),
(553,75,o),
(552,75,o),
(527,79,c),
(516,74,l),
(520,45,o),
(542,5,o),
(555,-6,c),
(729,-1,o),
(791,134,o),
(791,243,cs),
(791,391,o),
(680,475,o),
(552,475,cs),
(440,475,o),
(327,411,o),
(248,336,cs),
(186,278,o),
(84,159,o),
(32,93,c),
(28,70,o),
(58,56,o),
(59,55,c),
(83,118,o),
(136,167,o),
(166,191,cs),
(214,232,o),
(264,258,o),
(351,258,cs),
(422,258,o),
(471,240,o),
(471,192,cs),
(471,145,o),
(425,73,o),
(294,73,cs),
(182,73,o),
(158,126,o),
(111,126,cs),
(96,126,o),
(72,120,o),
(58,106,c),
(62,61,l),
(62,81,o),
(81,99,o),
(96,99,cs),
(132,99,o),
(150,-7,o),
(283,-7,cs)
);
},
{
closed = 1;
nodes = (
(210,288,l),
(229,307,o),
(274,370,o),
(274,415,cs),
(274,454,o),
(237,471,o),
(191,471,cs),
(110,471,o),
(32,415,o),
(32,343,cs),
(32,310,o),
(47,292,o),
(81,292,cs),
(98,292,o),
(115,296,o),
(124,301,c),
(117,309,o),
(105,332,o),
(105,360,cs),
(105,393,o),
(122,435,o),
(170,435,cs),
(205,435,o),
(221,413,o),
(221,378,cs),
(221,345,o),
(206,292,o),
(186,270,c)
);
}
);
width = 831;
}
);
metricRight = sinKa;
unicode = 3501;
},
{
glyphname = sinTha;
layers = (
{
anchors = (
{
name = bottom;
pos = (541,182);
}
);
layerId = "51BB9282-3B82-4DF1-A67A-294D3E37D73A";
shapes = (
{
closed = 1;
nodes = (
(462,-18,o),
(574,118,o),
(574,289,cs),
(574,513,o),
(384,658,o),
(221,658,c),
(197,591,l),
(362,591,o),
(526,470,o),
(526,304,cs),
(526,182,o),
(437,72,o),
(274,72,cs),
(167,72,o),
(82,121,o),
(82,202,cs),
(82,271,o),
(144,308,o),
(237,308,cs),
(250,308,o),
(260,307,o),
(266,306,c),
(276,322,l),
(276,342,o),
(266,381,o),
(255,397,c),
(154,398,o),
(40,306,o),
(40,177,cs),
(40,49,o),
(151,-18,o),
(279,-18,cs)
);
},
{
closed = 1;
nodes = (
(408,435,o),
(469,453,o),
(493,476,c),
(485,497,l),
(464,488,o),
(429,482,o),
(392,482,cs),
(269,482,o),
(221,538,o),
(221,658,c),
(189,641,l),
(187,632,o),
(184,611,o),
(184,589,cs),
(184,491,o),
(239,435,o),
(346,435,cs)
);
}
);
width = 617;
}
);
unicode = 3502;
},
{
glyphname = sinDa;
layers = (
{
anchors = (
{
name = Virama;
pos = (367,435);
},
{
name = top;
pos = (239,481);
}
);
layerId = "51BB9282-3B82-4DF1-A67A-294D3E37D73A";
shapes = (
{
closed = 1;
nodes = (
(342,-27,o),
(394,-16,o),
(428,-3,c),
(436,14,o),
(441,35,o),
(441,64,c),
(433,75,l),
(385,54,o),
(328,42,o),
(263,42,cs),
(163,42,o),
(81,68,o),
(81,141,cs),
(81,219,o),
(150,278,o),
(304,278,cs),
(327,278,o),
(378,275,o),
(405,271,c),
(419,290,l),
(425,378,o),
(379,492,o),
(253,492,cs),
(176,492,o),
(121,454,o),
(121,400,cs),
(121,369,o),
(143,350,o),
(178,350,cs),
(188,350,o),
(198,352,o),
(211,354,c),
(209,362,o),
(209,368,o),
(209,375,cs),
(209,418,o),
(246,441,o),
(282,441,cs),
(334,441,o),
(354,404,o),
(358,340,c),
(345,343,o),
(333,344,o),
(307,344,cs),
(142,344,o),
(40,263,o),
(40,137,cs),
(40,26,o),
(146,-27,o),
(266,-27,cs)
);
},
{
closed = 1;
nodes = (
(427,-243,o),
(456,-237,o),
(491,-220,c),
(494,-197,o),
(489,-156,o),
(471,-144,c),
(434,-168,o),
(404,-174,o),
(381,-174,cs),
(316,-174,o),
(292,-145,o),
(292,-112,cs),
(292,-20,o),
(390,-18,o),
(427,-4,c),
(422,-2,o),
(419,9,o),
(415,11,c),
(408,12,o),
(393,-1,o),
(395,6,cs),
(401,32,l),
(345,7,o),
(238,-20,o),
(238,-129,cs),
(238,-185,o),
(278,-243,o),
(382,-243,cs)
);
}
);
width = 483;
}
);
unicode = 3503;
},
{
glyphname = sinDha;
layers = (
{
anchors = (
{
name = bottom;
pos = (631,222);
},
{
name = reph;
pos = (337,629);
}
);
layerId = "51BB9282-3B82-4DF1-A67A-294D3E37D73A";
shapes = (
{
closed = 1;
nodes = (
(581,-16,o),
(636,122,o),
(636,279,cs),
(636,480,o),
(523,624,o),
(302,624,cs),
(198,624,o),
(133,602,o),
(101,578,c),
(91,563,o),
(86,539,o),
(86,521,cs),
(86,512,o),
(87,505,o),
(89,500,c),
(122,521,o),
(176,548,o),
(297,548,cs),
(436,548,o),
(588,494,o),
(588,297,cs),
(588,158,o),
(539,68,o),
(455,68,cs),
(411,68,o),
(358,83,o),
(358,156,c),
(359,165,l),
(339,161,l),
(321,114,o),
(290,72,o),
(218,72,cs),
(144,72,o),
(84,117,o),
(84,201,cs),
(84,274,o),
(141,325,o),
(264,325,cs),
(289,325,o),
(316,322,o),
(344,315,c),
(356,329,l),
(353,352,o),
(345,379,o),
(335,399,c),
(324,400,o),
(311,401,o),
(297,401,cs),
(152,401,o),
(44,323,o),
(44,180,cs),
(44,53,o),
(121,-15,o),
(213,-15,cs),
(302,-15,o),
(340,51,o),
(345,87,c),
(337,110,l),
(336,104,o),
(335,98,o),
(335,89,cs),
(335,31,o),
(386,-16,o),
(465,-16,cs)
);
}
);
width = 676;
}
);
unicode = 3504;
},
{
glyphname = sinNa;
layers = (
{
anchors = (
{
name = Virama;
pos = (682,435);
},
{
name = bottom;
pos = (781,182);
},
{
name = top;
pos = (337,355);
}
);
layerId = "51BB9282-3B82-4DF1-A67A-294D3E37D73A";
shapes = (
{
closed = 1;
nodes = (
(720,-21,o),
(811,123,o),
(811,260,cs),
(811,414,o),
(684,471,o),
(576,471,cs),
(468,471,o),
(353,414,o),
(259,308,cs),
(196,236,o),
(134,137,o),
(85,137,cs),
(69,137,o),
(61,148,o),
(61,163,cs),
(61,167,o),
(61,172,o),
(63,177,c),
(60,178,o),
(54,179,o),
(47,179,cs),
(39,179,o),
(30,178,o),
(25,176,c),
(34,88,o),
(102,-15,o),
(255,-15,cs),
(403,-15,o),
(501,81,o),
(501,201,cs),
(501,277,o),
(460,316,o),
(401,316,cs),
(338,316,o),
(274,271,o),
(214,223,c),
(209,206,l),
(213,212,o),
(254,262,o),
(275,282,cs),
(336,342,o),
(447,384,o),
(545,384,cs),
(654,384,o),
(760,331,o),
(760,214,cs),
(760,113,o),
(677,59,o),
(577,59,cs),
(558,59,o),
(544,61,o),
(523,63,c),
(510,58,l),
(510,30,o),
(533,-6,o),
(547,-18,c)
);
},
{
closed = 1;
nodes = (
(178,69,o),
(106,81,o),
(77,121,c),
(74,96,l),
(180,97,o),
(203,251,o),
(373,251,cs),
(433,251,o),
(464,233,o),
(464,192,cs),
(464,126,o),
(384,69,o),
(242,69,cs)
);
},
{
closed = 1;
nodes = (
(269,299,o),
(315,367,o),
(315,411,cs),
(315,445,o),
(288,467,o),
(236,467,cs),
(154,467,o),
(73,413,o),
(73,340,cs),
(73,305,o),
(91,288,o),
(125,288,cs),
(140,288,o),
(157,291,o),
(168,297,c),
(160,306,o),
(151,329,o),
(151,352,cs),
(151,396,o),
(178,431,o),
(214,431,cs),
(244,431,o),
(267,407,o),
(267,371,cs),
(267,342,o),
(250,300,o),
(239,284,c),
(246,277,l)
);
}
);
userData = {
com.typemytype.robofont.layerData = {
"Regular Nov 5 16, 12:40" = {
anchors = (
{
name = Virama;
x = 869;
y = 542;
}
);
components = (
);
contours = (
{
points = (
{
segmentType = line;
smooth = 0;
x = 116.207;
y = 146;
},
{
smooth = 0;
x = 163.174;
y = 97.984;
},
{
smooth = 0;
x = 227.114;
y = 84.691;
},
{
segmentType = curve;
smooth = 1;
x = 335.442;
y = 88;
},
{
smooth = 0;
x = 427.739;
y = 90.842;
},
{
smooth = 0;
x = 582.314;
y = 137.947;
},
{
segmentType = curve;
smooth = 1;
x = 593.535;
y = 235;
},
{
smooth = 0;
x = 598.385;
y = 276.951;
},
{
smooth = 0;
x = 556.606;
y = 312;
},
{
segmentType = curve;
smooth = 1;
x = 488.606;
y = 312;
},
{
smooth = 0;
x = 303.606;
y = 312;
},
{
smooth = 0;
x = 224;
y = 141;
},
{
segmentType = curve;
smooth = 0;
x = 112;
y = 140;
}
);
},
{
points = (
{
segmentType = curve;
smooth = 1;
x = 111.813;
y = 438;
},
{
smooth = 0;
x = 121.246;
y = 528;
},
{
smooth = 0;
x = 222.053;
y = 594;
},
{
segmentType = curve;
smooth = 1;
x = 323.164;
y = 594;
},
{
smooth = 0;
x = 389.164;
y = 594;
},
{
smooth = 0;
x = 429.544;
y = 569;
},
{
segmentType = curve;
smooth = 1;
x = 423.359;
y = 510;
},
{
smooth = 0;
x = 419.271;
y = 471;
},
{
smooth = 0;
x = 364.943;
y = 382;
},
{
segmentType = curve;
smooth = 0;
x = 338.323;
y = 357;
},
{
segmentType = line;
smooth = 0;
x = 328.267;
y = 366;
},
{
smooth = 0;
x = 343.468;
y = 387;
},
{
smooth = 0;
x = 358.45;
y = 425;
},
{
segmentType = curve;
smooth = 1;
x = 362.538;
y = 464;
},
{
smooth = 0;
x = 367.674;
y = 513;
},
{
smooth = 0;
x = 339.343;
y = 549;
},
{
segmentType = curve;
smooth = 1;
x = 293.343;
y = 549;
},
{
smooth = 0;
x = 252.871;
y = 549;
},
{
smooth = 0;
x = 225.045;
y = 507;
},
{
segmentType = curve;
smooth = 1;
x = 220.224;
y = 461;
},
{
smooth = 0;
x = 216.45;
y = 425;
},
{
smooth = 0;
x = 230.201;
y = 394;
},
{
segmentType = curve;
smooth = 0;
x = 239.943;
y = 382;
},
{
smooth = 0;
x = 226.21;
y = 375;
},
{
smooth = 0;
x = 203.79;
y = 371;
},
{
segmentType = curve;
smooth = 1;
x = 187.79;
y = 371;
},
{
smooth = 0;
x = 135.761;
y = 371;
},
{
smooth = 0;
x = 106.991;
y = 392;
}
);
},
{
points = (
{
segmentType = curve;
smooth = 0;
x = 49.753;
y = 218;
},
{
smooth = 0;
x = 61.897;
y = 224.157;
},
{
smooth = 0;
x = 91.538;
y = 223.364;
},
{
segmentType = curve;
smooth = 0;
x = 97.915;
y = 220;
},
{
smooth = 0;
x = 92.189;
y = 191;
},
{
smooth = 0;
x = 97.723;
y = 170;
},
{
segmentType = curve;
smooth = 1;
x = 126.723;
y = 170;
},
{
smooth = 0;
x = 187.723;
y = 170;
},
{
smooth = 0;
x = 283.787;
y = 315.112;
},
{
segmentType = curve;
smooth = 1;
x = 343.048;
y = 383;
},
{
smooth = 0;
x = 469.106;
y = 521;
},
{
smooth = 0;
x = 620.78;
y = 592;
},
{
segmentType = curve;
smooth = 1;
x = 743.954;
y = 592;
},
{
smooth = 0;
x = 922.278;
y = 592;
},
{
smooth = 0;
x = 1046.36;
y = 474.483;
},
{
segmentType = curve;
smooth = 1;
x = 1025.72;
y = 294;
},
{
smooth = 0;
x = 1009.67;
y = 151.066;
},
{
smooth = 0;
x = 926.346;
y = -25.467;
},
{
segmentType = curve;
smooth = 0;
x = 701.227;
y = -24;
},
{
smooth = 0;
x = 662.952;
y = 2;
},
{
smooth = 0;
x = 651.717;
y = 47;
},
{
segmentType = curve;
smooth = 1;
x = 654.232;
y = 71;
},
{
segmentType = line;
smooth = 0;
x = 669.966;
y = 78;
},
{
smooth = 0;
x = 702.743;
y = 74;
},
{
smooth = 0;
x = 720.897;
y = 70.291;
},
{
segmentType = curve;
smooth = 1;
x = 752.394;
y = 73;
},
{
smooth = 0;
x = 857.042;
y = 82;
},
{
smooth = 0;
x = 952.272;
y = 127.629;
},
{
segmentType = curve;
smooth = 1;
x = 966.147;
y = 260;
},
{
smooth = 0;
x = 980.053;
y = 390.232;
},
{
smooth = 0;
x = 843.22;
y = 484;
},
{
segmentType = curve;
smooth = 1;
x = 699.529;
y = 484;
},
{
smooth = 0;
x = 571.702;
y = 484;
},
{
smooth = 0;
x = 455.857;
y = 433.006;
},
{
segmentType = curve;
smooth = 1;
x = 361.589;
y = 350;
},
{
smooth = 0;
x = 343;
y = 333;
},
{
smooth = 0;
x = 303;
y = 290;
},
{
segmentType = curve;
smooth = 0;
x = 307;
y = 286;
},
{
segmentType = line;
smooth = 0;
x = 286;
y = 277;
},
{
smooth = 0;
x = 360;
y = 336;
},
{
smooth = 0;
x = 445;
y = 394;
},
{
segmentType = curve;
smooth = 1;
x = 513;
y = 394;
},
{
smooth = 0;
x = 592;
y = 394;
},
{
smooth = 0;
x = 639;
y = 344;
},
{
segmentType = curve;
smooth = 1;
x = 640;
y = 261;
},
{
smooth = 0;
x = 640;
y = 89;
},
{
smooth = 0;
x = 521;
y = -19;
},
{
segmentType = curve;
smooth = 1;
x = 329.96;
y = -19;
},
{
smooth = 0;
x = 153.96;
y = -19;
},
{
smooth = 0;
x = 61.224;
y = 108;
}
);
}
);
lib = {
};
name = sinNa;
unicodes = (
);
width = 1072;
};
};
};
width = 851;
}
);
unicode = 3505;
},
{
glyphname = sinNda;
layers = (
{
anchors = (
{
name = reph;
pos = (367,499);
}
);
layerId = "51BB9282-3B82-4DF1-A67A-294D3E37D73A";
shapes = (
{
closed = 1;
nodes = (
(118,12,o),
(130,16,o),
(134,20,c),
(119,46,o),
(94,116,o),
(94,191,cs),
(94,313,o),
(165,449,o),
(273,440,c),
(358,491,l),
(344,493,o),
(329,494,o),
(315,494,cs),
(174,494,o),
(30,388,o),
(30,216,cs),
(30,125,o),
(72,45,o),
(99,12,c)
);
},
{
pos = (111,0);
ref = sinDa;
}
);
width = 581;
}
);
unicode = 3507;
},
{
glyphname = sinPa;
layers = (
{
anchors = (
{
name = bottom;
pos = (595,192);
},
{
name = top;
pos = (179,442);
}
);
layerId = "51BB9282-3B82-4DF1-A67A-294D3E37D73A";
shapes = (
{
closed = 1;
nodes = (
(481,-20,o),
(602,74,o),
(602,202,cs),
(602,296,o),
(540,345,o),
(455,345,cs),
(414,345,o),
(386,337,o),
(362,325,c),
(413,300,l),
(405,311,o),
(388,329,o),
(388,369,cs),
(388,419,o),
(431,434,o),
(460,434,cs),
(505,434,o),
(543,410,o),
(543,371,cs),
(543,334,o),
(521,320,o),
(516,312,c),
(527,296,l),
(555,306,o),
(591,334,o),
(591,391,cs),
(591,435,o),
(553,484,o),
(483,484,cs),
(392,484,o),
(344,415,o),
(344,313,cs),
(344,301,o),
(345,288,o),
(346,276,c),
(357,268,l),
(392,282,o),
(426,288,o),
(463,288,cs),
(519,288,o),
(564,271,o),
(564,213,cs),
(564,133,o),
(467,74,o),
(327,74,cs),
(175,74,o),
(80,122,o),
(80,188,cs),
(80,250,o),
(140,280,o),
(229,280,cs),
(250,280,o),
(271,278,o),
(294,275,c),
(306,287,l),
(310,305,o),
(312,327,o),
(312,347,cs),
(312,412,o),
(286,482,o),
(189,482,cs),
(125,482,o),
(86,446,o),
(86,408,cs),
(86,369,o),
(114,355,o),
(141,353,c),
(149,385,o),
(181,429,o),
(225,429,cs),
(260,429,o),
(275,404,o),
(275,379,cs),
(275,340,o),
(254,317,o),
(243,307,c),
(281,338,l),
(270,340,o),
(258,341,o),
(247,341,cs),
(146,341,o),
(45,283,o),
(45,177,cs),
(45,82,o),
(119,-20,o),
(322,-20,cs)
);
}
);
userData = {
com.typemytype.robofont.layerData = {
"Jan 18 17, 13:23" = {
anchors = (
{
name = _si_MaU;
x = 737;
y = 255;
},
{
name = Virama;
x = 713;
y = 527;
}
);
components = (
);
contours = (
{
points = (
{
segmentType = line;
smooth = 0;
x = 370;
y = 332;
},
{
smooth = 0;
x = 218;
y = 354;
},
{
smooth = 0;
x = 101;
y = 316;
},
{
segmentType = curve;
smooth = 1;
x = 101;
y = 233;
},
{
smooth = 0;
x = 101;
y = 151;
},
{
smooth = 0;
x = 204;
y = 85;
},
{
segmentType = curve;
smooth = 1;
x = 402;
y = 82;
},
{
smooth = 0;
x = 580;
y = 79;
},
{
smooth = 0;
x = 708;
y = 163;
},
{
segmentType = curve;
smooth = 1;
x = 708;
y = 258;
},
{
smooth = 0;
x = 708;
y = 325;
},
{
smooth = 0;
x = 652;
y = 351;
},
{
segmentType = curve;
smooth = 1;
x = 584;
y = 353;
},
{
smooth = 0;
x = 542;
y = 354;
},
{
smooth = 0;
x = 490;
y = 337;
},
{
segmentType = curve;
smooth = 0;
x = 448;
y = 322;
},
{
segmentType = line;
smooth = 0;
x = 435;
y = 333;
},
{
smooth = 0;
x = 427;
y = 472;
},
{
smooth = 0;
x = 499;
y = 588;
},
{
segmentType = curve;
smooth = 1;
x = 630;
y = 588;
},
{
smooth = 0;
x = 720;
y = 588;
},
{
smooth = 0;
x = 754;
y = 530;
},
{
segmentType = curve;
smooth = 1;
x = 749;
y = 477;
},
{
smooth = 0;
x = 742;
y = 404;
},
{
smooth = 0;
x = 678;
y = 385;
},
{
segmentType = curve;
smooth = 0;
x = 647;
y = 368;
},
{
smooth = 0;
x = 652;
y = 376;
},
{
smooth = 0;
x = 670;
y = 410;
},
{
segmentType = curve;
smooth = 1;
x = 674;
y = 444;
},
{
smooth = 0;
x = 680;
y = 499;
},
{
smooth = 0;
x = 642;
y = 531;
},
{
segmentType = curve;
smooth = 1;
x = 589;
y = 531;
},
{
smooth = 0;
x = 541;
y = 531;
},
{
smooth = 0;
x = 504;
y = 499;
},
{
segmentType = curve;
smooth = 1;
x = 499;
y = 452;
},
{
smooth = 0;
x = 494;
y = 407;
},
{
smooth = 0;
x = 513;
y = 395;
},
{
segmentType = curve;
smooth = 0;
x = 524;
y = 379;
},
{
segmentType = line;
smooth = 0;
x = 455;
y = 395;
},
{
smooth = 0;
x = 498;
y = 410;
},
{
smooth = 0;
x = 522;
y = 417;
},
{
segmentType = curve;
smooth = 1;
x = 580;
y = 416;
},
{
smooth = 0;
x = 680;
y = 414;
},
{
smooth = 0;
x = 754;
y = 354;
},
{
segmentType = curve;
smooth = 1;
x = 754;
y = 251;
},
{
smooth = 0;
x = 754;
y = 91;
},
{
smooth = 0;
x = 602;
y = -26;
},
{
segmentType = curve;
smooth = 1;
x = 417;
y = -26;
},
{
smooth = 0;
x = 152;
y = -26;
},
{
smooth = 0;
x = 60;
y = 101;
},
{
segmentType = curve;
smooth = 1;
x = 60;
y = 220;
},
{
smooth = 0;
x = 60;
y = 353;
},
{
smooth = 0;
x = 219;
y = 431;
},
{
segmentType = curve;
smooth = 0;
x = 355;
y = 410;
},
{
segmentType = line;
smooth = 0;
x = 307;
y = 372;
},
{
smooth = 0;
x = 320;
y = 383;
},
{
smooth = 0;
x = 342;
y = 406;
},
{
segmentType = curve;
smooth = 1;
x = 341;
y = 451;
},
{
smooth = 0;
x = 340;
y = 490;
},
{
smooth = 0;
x = 326;
y = 523;
},
{
segmentType = curve;
smooth = 1;
x = 284;
y = 524;
},
{
smooth = 0;
x = 229;
y = 525;
},
{
smooth = 0;
x = 189;
y = 469;
},
{
segmentType = curve;
smooth = 0;
x = 179;
y = 429;
},
{
smooth = 0;
x = 146;
y = 431;
},
{
smooth = 0;
x = 104;
y = 450;
},
{
segmentType = curve;
smooth = 1;
x = 110;
y = 498;
},
{
smooth = 0;
x = 116;
y = 544;
},
{
smooth = 0;
x = 161;
y = 589;
},
{
segmentType = curve;
smooth = 1;
x = 240;
y = 589;
},
{
smooth = 0;
x = 400;
y = 589;
},
{
smooth = 0;
x = 404;
y = 437;
},
{
segmentType = curve;
smooth = 0;
x = 384;
y = 347;
}
);
}
);
lib = {
};
name = sinPa;
unicodes = (
);
width = 816;
};
"Jan 18 17, 22:45" = {
anchors = (
{
name = _si_MaU;
x = 737;
y = 255;
},
{
name = Virama;
x = 713;
y = 527;
}
);
components = (
);
contours = (
{
points = (
{
segmentType = line;
smooth = 0;
x = 370;
y = 332;
},
{
smooth = 0;
x = 341;
y = 336;
},
{
smooth = 0;
x = 314;
y = 338;
},
{
segmentType = curve;
smooth = 1;
x = 289;
y = 338;
},
{
smooth = 0;
x = 178;
y = 338;
},
{
smooth = 0;
x = 101;
y = 300;
},
{
segmentType = curve;
smooth = 1;
x = 101;
y = 233;
},
{
smooth = 0;
x = 101;
y = 150;
},
{
smooth = 0;
x = 208;
y = 82;
},
{
segmentType = curve;
smooth = 1;
x = 411;
y = 82;
},
{
smooth = 0;
x = 584;
y = 82;
},
{
smooth = 0;
x = 708;
y = 165;
},
{
segmentType = curve;
smooth = 1;
x = 708;
y = 258;
},
{
smooth = 0;
x = 708;
y = 326;
},
{
smooth = 0;
x = 650;
y = 353;
},
{
segmentType = curve;
smooth = 1;
x = 580;
y = 353;
},
{
smooth = 0;
x = 535;
y = 353;
},
{
smooth = 0;
x = 489;
y = 337;
},
{
segmentType = curve;
smooth = 0;
x = 448;
y = 322;
},
{
segmentType = line;
smooth = 0;
x = 435;
y = 333;
},
{
smooth = 0;
x = 419;
y = 473;
},
{
smooth = 0;
x = 485;
y = 590;
},
{
segmentType = curve;
smooth = 1;
x = 624;
y = 590;
},
{
smooth = 0;
x = 714;
y = 590;
},
{
smooth = 0;
x = 746;
y = 531;
},
{
segmentType = curve;
smooth = 1;
x = 746;
y = 484;
},
{
smooth = 0;
x = 746;
y = 414;
},
{
smooth = 0;
x = 698;
y = 373;
},
{
segmentType = curve;
smooth = 0;
x = 664;
y = 360;
},
{
segmentType = line;
smooth = 0;
x = 647;
y = 378;
},
{
smooth = 0;
x = 653;
y = 387;
},
{
smooth = 0;
x = 680;
y = 408;
},
{
segmentType = curve;
smooth = 1;
x = 680;
y = 455;
},
{
smooth = 0;
x = 680;
y = 503;
},
{
smooth = 0;
x = 638;
y = 531;
},
{
segmentType = curve;
smooth = 1;
x = 589;
y = 531;
},
{
smooth = 0;
x = 536;
y = 531;
},
{
smooth = 0;
x = 489;
y = 498;
},
{
segmentType = curve;
smooth = 1;
x = 489;
y = 439;
},
{
smooth = 0;
x = 489;
y = 405;
},
{
smooth = 0;
x = 503;
y = 393;
},
{
segmentType = curve;
smooth = 0;
x = 513;
y = 379;
},
{
segmentType = line;
smooth = 0;
x = 455;
y = 395;
},
{
smooth = 0;
x = 484;
y = 409;
},
{
smooth = 0;
x = 519;
y = 416;
},
{
segmentType = curve;
smooth = 1;
x = 570;
y = 416;
},
{
smooth = 0;
x = 675;
y = 416;
},
{
smooth = 0;
x = 754;
y = 357;
},
{
segmentType = curve;
smooth = 1;
x = 754;
y = 251;
},
{
smooth = 0;
x = 754;
y = 91;
},
{
smooth = 0;
x = 602;
y = -26;
},
{
segmentType = curve;
smooth = 1;
x = 417;
y = -26;
},
{
smooth = 0;
x = 152;
y = -26;
},
{
smooth = 0;
x = 60;
y = 101;
},
{
segmentType = curve;
smooth = 1;
x = 60;
y = 220;
},
{
smooth = 0;
x = 60;
y = 339;
},
{
smooth = 0;
x = 186;
y = 413;
},
{
segmentType = curve;
smooth = 1;
x = 310;
y = 413;
},
{
smooth = 0;
x = 325;
y = 413;
},
{
smooth = 0;
x = 340;
y = 412;
},
{
segmentType = curve;
smooth = 0;
x = 355;
y = 410;
},
{
segmentType = line;
smooth = 0;
x = 307;
y = 372;
},
{
smooth = 0;
x = 320;
y = 383;
},
{
smooth = 0;
x = 347;
y = 409;
},
{
segmentType = curve;
smooth = 1;
x = 347;
y = 452;
},
{
smooth = 0;
x = 347;
y = 492;
},
{
smooth = 0;
x = 327;
y = 524;
},
{
segmentType = curve;
smooth = 1;
x = 283;
y = 524;
},
{
smooth = 0;
x = 228;
y = 524;
},
{
smooth = 0;
x = 189;
y = 469;
},
{
segmentType = curve;
smooth = 0;
x = 179;
y = 429;
},
{
smooth = 0;
x = 146;
y = 431;
},
{
smooth = 0;
x = 110;
y = 448;
},
{
segmentType = curve;
smooth = 1;
x = 110;
y = 496;
},
{
smooth = 0;
x = 110;
y = 545;
},
{
smooth = 0;
x = 160;
y = 589;
},
{
segmentType = curve;
smooth = 1;
x = 239;
y = 589;
},
{
smooth = 0;
x = 360;
y = 589;
},
{
smooth = 0;
x = 392;
y = 502;
},
{
segmentType = curve;
smooth = 1;
x = 392;
y = 421;
},
{
smooth = 0;
x = 392;
y = 395;
},
{
smooth = 0;
x = 389;
y = 369;
},
{
segmentType = curve;
smooth = 0;
x = 384;
y = 347;
}
);
}
);
lib = {
};
name = sinPa;
unicodes = (
);
width = 816;
};
};
};
width = 640;
}
);
unicode = 3508;
},
{
glyphname = sinPha;
layers = (
{
anchors = (
{
name = bottom;
pos = (551,182);
},
{
name = reph;
pos = (77,459);
}
);
layerId = "51BB9282-3B82-4DF1-A67A-294D3E37D73A";
shapes = (
{
closed = 1;
nodes = (
(475,-14,o),
(597,117,o),
(597,311,cs),
(597,535,o),
(424,657,o),
(257,657,c),
(229,591,l),
(379,591,o),
(550,486,o),
(550,311,cs),
(550,164,o),
(452,79,o),
(294,79,cs),
(174,79,o),
(90,111,o),
(90,170,cs),
(90,230,o),
(161,251,o),
(247,251,cs),
(268,251,o),
(290,250,o),
(309,247,c),
(327,260,l),
(330,272,o),
(331,283,o),
(331,298,cs),
(331,370,o),
(285,453,o),
(181,453,cs),
(132,453,o),
(86,426,o),
(86,379,cs),
(86,352,o),
(109,335,o),
(147,339,c),
(148,348,o),
(168,393,o),
(218,393,cs),
(258,393,o),
(293,365,o),
(290,313,c),
(267,313,ls),
(181,313,o),
(50,273,o),
(50,153,cs),
(50,56,o),
(143,-14,o),
(291,-14,cs)
);
},
{
closed = 1;
nodes = (
(443,435,o),
(503,453,o),
(528,475,c),
(520,497,l),
(498,488,o),
(464,482,o),
(426,482,cs),
(304,482,o),
(257,538,o),
(257,657,c),
(224,641,l),
(222,632,o),
(219,609,o),
(219,590,cs),
(219,490,o),
(274,435,o),
(383,435,cs)
);
}
);
width = 632;
}
);
unicode = 3509;
},
{
glyphname = sinBa;
layers = (
{
anchors = (
{
name = bottom;
pos = (651,264);
},
{
name = reph;
pos = (267,629);
}
);
layerId = "51BB9282-3B82-4DF1-A67A-294D3E37D73A";
shapes = (
{
closed = 1;
nodes = (
(580,-9,o),
(659,128,o),
(659,273,cs),
(659,482,o),
(537,623,o),
(302,623,cs),
(179,623,o),
(116,586,o),
(77,567,c),
(71,555,o),
(67,535,o),
(67,515,cs),
(67,507,o),
(68,498,o),
(69,491,cs),
(69,489,o),
(145,550,o),
(302,550,cs),
(537,550,o),
(608,445,o),
(608,298,cs),
(608,176,o),
(532,73,o),
(431,73,cs),
(395,73,o),
(355,93,o),
(355,141,cs),
(355,183,o),
(400,208,o),
(438,208,cs),
(444,208,o),
(450,207,o),
(455,206,c),
(465,209,o),
(473,211,o),
(480,217,c),
(476,330,o),
(393,429,o),
(272,429,cs),
(135,429,o),
(52,311,o),
(52,169,cs),
(52,94,o),
(90,-6,o),
(190,-6,cs),
(247,-6,o),
(286,38,o),
(286,98,cs),
(286,150,o),
(258,194,o),
(205,194,cs),
(153,194,o),
(128,151,o),
(128,112,cs),
(128,86,o),
(135,67,o),
(146,51,c),
(183,32,l),
(167,49,o),
(163,60,o),
(163,75,cs),
(163,122,o),
(193,133,o),
(213,133,cs),
(234,133,o),
(256,122,o),
(256,97,cs),
(256,63,o),
(213,52,o),
(191,52,cs),
(146,52,o),
(84,90,o),
(84,181,cs),
(84,283,o),
(170,347,o),
(270,347,cs),
(332,347,o),
(403,329,o),
(438,270,c),
(394,269,o),
(316,222,o),
(316,126,cs),
(316,61,o),
(358,-9,o),
(448,-9,cs)
);
}
);
userData = {
com.typemytype.robofont.layerData = {
"Jan 19 17, 02:25" = {
anchors = (
{
name = rakaransaya;
x = 799;
y = 363;
}
);
components = (
);
contours = (
{
points = (
{
segmentType = curve;
smooth = 1;
x = 55;
y = 180;
},
{
smooth = 0;
x = 55;
y = 186;
},
{
smooth = 0;
x = 55;
y = 193;
},
{
segmentType = curve;
smooth = 1;
x = 55.434;
y = 200;
},
{
smooth = 0;
x = 67;
y = 379;
},
{
smooth = 0;
x = 187;
y = 502;
},
{
segmentType = curve;
smooth = 1;
x = 339;
y = 502;
},
{
smooth = 0;
x = 473;
y = 502;
},
{
smooth = 0;
x = 543;
y = 410;
},
{
segmentType = curve;
smooth = 0;
x = 535.251;
y = 311;
},
{
smooth = 0;
x = 490.094;
y = 308;
},
{
smooth = 0;
x = 433.605;
y = 270.03;
},
{
segmentType = curve;
smooth = 1;
x = 425.014;
y = 192;
},
{
smooth = 0;
x = 425;
y = 188;
},
{
smooth = 0;
x = 424;
y = 184;
},
{
segmentType = curve;
smooth = 1;
x = 424;
y = 181;
},
{
smooth = 0;
x = 424;
y = 135;
},
{
smooth = 0;
x = 459;
y = 104;
},
{
segmentType = curve;
smooth = 1;
x = 534;
y = 104;
},
{
smooth = 0;
x = 674;
y = 104;
},
{
smooth = 0;
x = 738;
y = 265;
},
{
segmentType = curve;
smooth = 1;
x = 738;
y = 384;
},
{
smooth = 0;
x = 738;
y = 581;
},
{
smooth = 0;
x = 599;
y = 688;
},
{
segmentType = curve;
smooth = 1;
x = 369;
y = 688;
},
{
smooth = 0;
x = 243;
y = 688;
},
{
smooth = 0;
x = 155;
y = 626;
},
{
segmentType = curve;
smooth = 1;
x = 154;
y = 627;
},
{
smooth = 0;
x = 151;
y = 629;
},
{
smooth = 0;
x = 149;
y = 635;
},
{
segmentType = curve;
smooth = 1;
x = 149;
y = 643;
},
{
smooth = 0;
x = 149;
y = 665;
},
{
smooth = 0;
x = 160;
y = 704;
},
{
segmentType = curve;
smooth = 0;
x = 174;
y = 726;
},
{
smooth = 0;
x = 218;
y = 754;
},
{
smooth = 0;
x = 289;
y = 778;
},
{
segmentType = curve;
smooth = 1;
x = 381;
y = 778;
},
{
smooth = 0;
x = 610;
y = 778;
},
{
smooth = 0;
x = 810;
y = 625;
},
{
segmentType = curve;
smooth = 1;
x = 797.557;
y = 355;
},
{
smooth = 0;
x = 789;
y = 148;
},
{
smooth = 0;
x = 698;
y = -12;
},
{
segmentType = curve;
smooth = 1;
x = 536;
y = -12;
},
{
smooth = 0;
x = 401;
y = -12;
},
{
smooth = 0;
x = 363;
y = 84;
},
{
segmentType = curve;
smooth = 1;
x = 368.18;
y = 157;
},
{
smooth = 0;
x = 375.955;
y = 267.19;
},
{
smooth = 0;
x = 439.842;
y = 322.286;
},
{
segmentType = curve;
smooth = 0;
x = 497.509;
y = 335;
},
{
smooth = 0;
x = 486;
y = 363;
},
{
smooth = 0;
x = 397;
y = 407;
},
{
segmentType = curve;
smooth = 1;
x = 312;
y = 407;
},
{
smooth = 0;
x = 204;
y = 407;
},
{
smooth = 0;
x = 93;
y = 329;
},
{
segmentType = curve;
smooth = 1;
x = 93;
y = 201;
},
{
smooth = 0;
x = 93;
y = 112;
},
{
smooth = 0;
x = 161;
y = 64;
},
{
segmentType = curve;
smooth = 0;
x = 194.939;
y = 57;
},
{
segmentType = line;
smooth = 0;
x = 168.677;
y = 52;
},
{
smooth = 0;
x = 160;
y = 69;
},
{
smooth = 0;
x = 156;
y = 87;
},
{
segmentType = curve;
smooth = 1;
x = 156;
y = 105;
},
{
smooth = 0;
x = 156;
y = 157;
},
{
smooth = 0;
x = 192;
y = 207;
},
{
segmentType = curve;
smooth = 1;
x = 255.8;
y = 207;
},
{
smooth = 0;
x = 305.829;
y = 206.727;
},
{
smooth = 0;
x = 345.279;
y = 161.003;
},
{
segmentType = curve;
smooth = 1;
x = 340.455;
y = 105;
},
{
smooth = 0;
x = 334.438;
y = 35.152;
},
{
smooth = 0;
x = 291.009;
y = -18;
},
{
segmentType = curve;
smooth = 1;
x = 233;
y = -18;
},
{
smooth = 0;
x = 105;
y = -18;
},
{
smooth = 0;
x = 55;
y = 77;
}
);
},
{
points = (
{
segmentType = curve;
smooth = 1;
x = 195;
y = 101;
},
{
smooth = 0;
x = 195;
y = 78;
},
{
smooth = 0;
x = 206;
y = 59;
},
{
segmentType = curve;
smooth = 1;
x = 237;
y = 59;
},
{
smooth = 0;
x = 270;
y = 59;
},
{
smooth = 0;
x = 288;
y = 95;
},
{
segmentType = curve;
smooth = 1;
x = 288;
y = 125;
},
{
smooth = 0;
x = 288;
y = 153;
},
{
smooth = 0;
x = 268;
y = 164;
},
{
segmentType = curve;
smooth = 1;
x = 245.547;
y = 164;
},
{
smooth = 0;
x = 217;
y = 164;
},
{
smooth = 0;
x = 195;
y = 135;
}
);
}
);
lib = {
};
name = sinBa;
unicodes = (
);
width = 848;
};
};
};
width = 699;
}
);
unicode = 3510;
},
{
glyphname = sinBha;
layers = (
{
anchors = (
{
name = bottom;
pos = (783,288);
},
{
name = top;
pos = (559,460);
}
);
layerId = "51BB9282-3B82-4DF1-A67A-294D3E37D73A";
shapes = (
{
closed = 1;
nodes = (
(454,-8,o),
(531,85,o),
(531,180,cs),
(531,275,o),
(467,314,o),
(430,314,c),
(419,265,l),
(441,265,o),
(495,249,o),
(495,194,cs),
(494,136,o),
(430,80,o),
(307,80,cs),
(222,80,o),
(145,120,o),
(145,175,cs),
(145,246,o),
(211,274,o),
(281,274,cs),
(306,274,o),
(331,271,o),
(353,265,c),
(363,276,l),
(368,293,o),
(371,312,o),
(371,333,cs),
(371,402,o),
(338,476,o),
(246,476,cs),
(172,476,o),
(125,433,o),
(125,390,cs),
(125,355,o),
(155,339,o),
(187,338,c),
(208,401,o),
(231,426,o),
(268,426,cs),
(291,426,o),
(317,417,o),
(323,393,cs),
(325,387,o),
(325,381,o),
(325,374,cs),
(325,353,o),
(320,332,o),
(315,322,c),
(203,323,o),
(108,274,o),
(108,165,cs),
(108,67,o),
(191,-8,o),
(322,-8,cs)
);
},
{
closed = 1;
nodes = (
(71,257,o),
(171,308,o),
(298,308,cs),
(308,308,o),
(318,308,o),
(328,307,c),
(342,322,l),
(309,322,ls),
(219,322,o),
(93,319,o),
(35,309,c),
(25,287,o),
(21,265,o),
(20,240,c),
(29,233,l)
);
},
{
closed = 1;
nodes = (
(716,-7,o),
(795,123,o),
(795,259,cs),
(795,387,o),
(710,473,o),
(614,473,cs),
(467,473,o),
(389,348,o),
(384,178,c),
(389,177,o),
(393,177,o),
(398,177,cs),
(406,177,o),
(413,177,o),
(421,178,c),
(419,185,o),
(418,199,o),
(418,206,cs),
(418,318,o),
(482,380,o),
(603,380,cs),
(670,380,o),
(748,337,o),
(748,234,cs),
(748,146,o),
(688,69,o),
(587,69,cs),
(569,69,o),
(546,72,o),
(529,76,c),
(529,75,o),
(519,72,o),
(519,70,cs),
(519,53,o),
(539,7,o),
(559,-10,c)
);
}
);
width = 835;
}
);
metricRight = sinGa;
unicode = 3511;
},
{
glyphname = sinMa;
layers = (
{
anchors = (
{
name = bottom;
pos = (591,182);
},
{
name = reph;
pos = (327,619);
}
);
layerId = "51BB9282-3B82-4DF1-A67A-294D3E37D73A";
shapes = (
{
closed = 1;
nodes = (
(541,-25,o),
(640,135,o),
(640,299,cs),
(640,510,o),
(506,629,o),
(304,629,cs),
(190,629,o),
(132,599,o),
(99,575,c),
(94,565,o),
(90,542,o),
(90,521,cs),
(90,514,o),
(91,508,o),
(92,502,c),
(169,543,o),
(227,558,o),
(300,558,cs),
(474,558,o),
(595,491,o),
(595,319,cs),
(595,189,o),
(504,64,o),
(321,64,cs),
(194,64,o),
(84,132,o),
(84,238,cs),
(84,316,o),
(133,348,o),
(164,353,c),
(154,382,l),
(154,362,o),
(152,153,o),
(331,153,cs),
(439,153,o),
(493,236,o),
(493,316,cs),
(493,404,o),
(432,476,o),
(360,476,cs),
(283,476,o),
(254,419,o),
(254,373,cs),
(254,323,o),
(283,290,o),
(332,290,cs),
(383,290,o),
(422,326,o),
(422,383,cs),
(422,398,o),
(420,414,o),
(414,432,c),
(400,435,l),
(396,352,o),
(356,340,o),
(331,340,cs),
(311,340,o),
(286,348,o),
(286,373,cs),
(286,400,o),
(315,423,o),
(363,423,cs),
(415,423,o),
(457,389,o),
(457,329,cs),
(457,268,o),
(409,220,o),
(331,220,cs),
(220,220,o),
(187,329,o),
(187,383,cs),
(187,392,o),
(187,401,o),
(189,406,c),
(183,415,o),
(174,423,o),
(166,425,c),
(101,406,o),
(45,331,o),
(45,220,cs),
(45,90,o),
(149,-25,o),
(333,-25,cs)
);
}
);
width = 682;
}
);
unicode = 3512;
},
{
glyphname = sinMba;
layers = (
{
anchors = (
{
name = bottom;
pos = (661,182);
},
{
name = reph;
pos = (367,639);
}
);
layerId = "51BB9282-3B82-4DF1-A67A-294D3E37D73A";
shapes = (
{
closed = 1;
nodes = (
(638,-16,o),
(693,152,o),
(693,287,cs),
(693,463,o),
(596,643,o),
(346,643,cs),
(253,643,o),
(161,610,o),
(123,593,c),
(117,576,o),
(114,552,o),
(114,533,cs),
(114,524,o),
(115,517,o),
(116,510,c),
(153,528,o),
(236,568,o),
(358,568,cs),
(533,568,o),
(650,474,o),
(650,295,cs),
(650,186,o),
(603,65,o),
(502,65,cs),
(455,65,o),
(437,93,o),
(437,123,cs),
(437,139,o),
(440,156,o),
(443,171,c),
(429,177,o),
(414,178,o),
(398,178,cs),
(372,178,o),
(341,175,o),
(324,163,c),
(325,116,o),
(313,65,o),
(242,65,cs),
(148,65,o),
(87,125,o),
(87,219,cs),
(87,335,o),
(159,357,o),
(200,364,c),
(189,401,l),
(189,398,o),
(193,201,o),
(372,201,cs),
(458,201,o),
(530,259,o),
(530,345,cs),
(530,427,o),
(467,494,o),
(395,494,cs),
(323,494,o),
(287,438,o),
(287,392,cs),
(287,342,o),
(320,308,o),
(368,308,cs),
(419,308,o),
(459,344,o),
(459,402,cs),
(459,416,o),
(457,432,o),
(450,450,c),
(436,453,l),
(432,371,o),
(393,358,o),
(367,358,cs),
(347,358,o),
(323,370,o),
(323,392,cs),
(323,417,o),
(351,442,o),
(400,442,cs),
(451,442,o),
(490,412,o),
(490,362,cs),
(490,289,o),
(438,259,o),
(374,259,cs),
(260,259,o),
(223,355,o),
(223,406,cs),
(223,413,o),
(224,419,o),
(225,424,c),
(219,433,o),
(210,442,o),
(202,444,c),
(137,424,o),
(44,369,o),
(44,206,cs),
(44,79,o),
(117,-13,o),
(237,-13,cs),
(345,-13,o),
(351,108,o),
(352,118,c),
(355,119,o),
(365,123,o),
(382,123,cs),
(385,123,o),
(399,122,o),
(402,119,c),
(399,104,o),
(398,91,o),
(398,74,cs),
(398,35,o),
(422,-16,o),
(503,-16,cs)
);
}
);
width = 735;
}
);
metricRight = sinMa;
unicode = 3513;
},
{
glyphname = sinYa;
layers = (
{
anchors = (
{
name = bottom;
pos = (640,182);
},
{
name = reph;
pos = (377,389);
}
);
layerId = "51BB9282-3B82-4DF1-A67A-294D3E37D73A";
shapes = (
{
closed = 1;
nodes = (
(590,-22,o),
(654,61,o),
(655,170,cs),
(655,257,o),
(602,331,o),
(494,331,cs),
(460,331,o),
(431,327,o),
(399,315,c),
(452,291,l),
(442,304,o),
(428,331,o),
(428,364,cs),
(428,411,o),
(469,430,o),
(501,430,cs),
(544,430,o),
(579,410,o),
(579,364,cs),
(579,330,o),
(560,301,o),
(555,295,c),
(577,289,l),
(604,301,o),
(638,334,o),
(638,389,cs),
(638,433,o),
(604,483,o),
(529,483,cs),
(454,483,o),
(382,431,o),
(382,312,cs),
(382,295,o),
(384,277,o),
(387,262,c),
(398,253,l),
(430,265,o),
(464,269,o),
(497,269,cs),
(554,269,o),
(618,239,o),
(618,182,cs),
(618,119,o),
(570,62,o),
(483,62,cs),
(402,62,o),
(359,112,o),
(359,159,cs),
(359,168,o),
(360,176,o),
(361,182,c),
(339,177,l),
(320,102,o),
(272,68,o),
(197,68,cs),
(134,68,o),
(68,102,o),
(68,181,cs),
(68,267,o),
(149,334,o),
(280,331,c),
(292,342,l),
(292,366,o),
(285,393,o),
(275,408,c),
(99,401,o),
(30,292,o),
(30,170,cs),
(30,38,o),
(116,-19,o),
(195,-19,cs),
(308,-19,o),
(342,64,o),
(357,109,c),
(359,111,o),
(333,114,o),
(334,115,c),
(332,107,o),
(338,102,o),
(338,92,cs),
(338,37,o),
(391,-22,o),
(476,-22,cs)
);
}
);
width = 695;
}
);
unicode = 3514;
},
{
glyphname = sinRa;
layers = (
{
layerId = "51BB9282-3B82-4DF1-A67A-294D3E37D73A";
shapes = (
{
closed = 1;
nodes = (
(398,-29,o),
(512,73,o),
(512,237,cs),
(512,360,o),
(442,448,o),
(325,448,cs),
(207,448,o),
(132,369,o),
(112,342,cs),
(87,309,l),
(79,283,o),
(71,274,o),
(74,248,c),
(106,327,o),
(166,392,o),
(274,392,cs),
(390,392,o),
(471,337,o),
(471,241,cs),
(471,168,o),
(395,53,o),
(259,53,cs),
(136,53,o),
(73,123,o),
(73,206,cs),
(73,242,o),
(73,250,o),
(81,269,c),
(81,269,o),
(113,341,o),
(121,349,c),
(174,435,o),
(441,541,o),
(502,620,c),
(501,652,o),
(468,673,o),
(457,674,c),
(332,498,o),
(35,449,o),
(35,198,cs),
(35,98,o),
(98,-29,o),
(269,-29,cs)
);
}
);
width = 547;
}
);
unicode = 3515;
},
{
glyphname = sinLa;
layers = (
{
anchors = (
{
name = Virama;
pos = (604,414);
}
);
layerId = "51BB9282-3B82-4DF1-A67A-294D3E37D73A";
shapes = (
{
closed = 1;
nodes = (
(538,-225,o),
(626,-163,o),
(653,-125,c),
(656,-110,o),
(642,-88,o),
(637,-85,c),
(581,-118,o),
(510,-142,o),
(415,-142,cs),
(264,-142,o),
(92,-84,o),
(92,141,cs),
(92,286,o),
(193,411,o),
(402,411,cs),
(546,411,o),
(619,352,o),
(619,266,cs),
(619,202,o),
(582,134,o),
(498,134,cs),
(449,134,o),
(405,153,o),
(405,203,cs),
(405,245,o),
(440,272,o),
(478,286,c),
(436,276,l),
(516,276,l),
(523,285,o),
(527,301,o),
(524,312,c),
(281,312,l),
(271,301,o),
(268,287,o),
(272,276,c),
(410,276,l),
(411,278,o),
(436,281,o),
(436,283,c),
(372,277,o),
(337,235,o),
(337,185,cs),
(337,132,o),
(383,80,o),
(478,80,cs),
(599,80,o),
(664,179,o),
(664,286,cs),
(664,375,o),
(608,487,o),
(423,487,cs),
(198,487,o),
(45,326,o),
(45,103,cs),
(45,-66,o),
(141,-225,o),
(408,-225,cs)
);
}
);
userData = {
com.typemytype.robofont.layerData = {
"Regular Oct 20 16, 20:13" = {
anchors = (
);
components = (
);
contours = (
{
points = (
{
segmentType = curve;
smooth = 1;
x = 48;
y = 123;
},
{
smooth = 0;
x = 48;
y = 387;
},
{
smooth = 0;
x = 223;
y = 593;
},
{
segmentType = curve;
smooth = 1;
x = 498;
y = 594;
},
{
smooth = 0;
x = 709;
y = 595;
},
{
smooth = 0;
x = 814;
y = 456;
},
{
segmentType = curve;
smooth = 1;
x = 814;
y = 331;
},
{
smooth = 0;
x = 814;
y = 212;
},
{
smooth = 0;
x = 730;
y = 111;
},
{
segmentType = curve;
smooth = 1;
x = 594;
y = 109;
},
{
smooth = 0;
x = 494;
y = 108;
},
{
smooth = 0;
x = 422;
y = 156;
},
{
segmentType = curve;
smooth = 1;
x = 423;
y = 229;
},
{
smooth = 0;
x = 424;
y = 285;
},
{
smooth = 0;
x = 479;
y = 333;
},
{
segmentType = curve;
smooth = 0;
x = 540;
y = 343;
},
{
smooth = 0;
x = 539;
y = 340;
},
{
smooth = 0;
x = 538;
y = 337;
},
{
segmentType = curve;
smooth = 0;
x = 537;
y = 334;
},
{
segmentType = line;
smooth = 0;
x = 296;
y = 334;
},
{
smooth = 0;
x = 298;
y = 349;
},
{
smooth = 0;
x = 293;
y = 360;
},
{
segmentType = curve;
smooth = 0;
x = 301;
y = 379;
},
{
segmentType = line;
smooth = 0;
x = 636;
y = 379;
},
{
smooth = 0;
x = 636;
y = 367;
},
{
smooth = 0;
x = 636;
y = 356;
},
{
segmentType = curve;
smooth = 0;
x = 629;
y = 334;
},
{
smooth = 0;
x = 566;
y = 334;
},
{
smooth = 0;
x = 501;
y = 292;
},
{
segmentType = curve;
smooth = 1;
x = 501;
y = 248;
},
{
smooth = 0;
x = 501;
y = 187;
},
{
smooth = 0;
x = 553;
y = 165;
},
{
segmentType = curve;
smooth = 1;
x = 610;
y = 165;
},
{
smooth = 0;
x = 696;
y = 165;
},
{
smooth = 0;
x = 739;
y = 229;
},
{
segmentType = curve;
smooth = 1;
x = 739;
y = 297;
},
{
smooth = 0;
x = 739;
y = 416;
},
{
smooth = 0;
x = 634;
y = 515;
},
{
segmentType = curve;
smooth = 1;
x = 460;
y = 515;
},
{
smooth = 0;
x = 283;
y = 515;
},
{
smooth = 0;
x = 123;
y = 389;
},
{
segmentType = curve;
smooth = 1;
x = 123;
y = 176;
},
{
smooth = 0;
x = 123;
y = -48;
},
{
smooth = 0;
x = 283;
y = -168;
},
{
segmentType = curve;
smooth = 1;
x = 483;
y = -168;
},
{
smooth = 0;
x = 591;
y = -168;
},
{
smooth = 0;
x = 690;
y = -140;
},
{
segmentType = curve;
smooth = 0;
x = 760;
y = -99;
},
{
smooth = 0;
x = 763;
y = -101;
},
{
smooth = 0;
x = 765;
y = -112;
},
{
segmentType = curve;
smooth = 1;
x = 765;
y = -125;
},
{
smooth = 0;
x = 765;
y = -138;
},
{
smooth = 0;
x = 765;
y = -147;
},
{
segmentType = curve;
smooth = 0;
x = 760;
y = -158;
},
{
smooth = 0;
x = 696;
y = -226;
},
{
smooth = 0;
x = 596;
y = -263;
},
{
segmentType = curve;
smooth = 1;
x = 464;
y = -263;
},
{
smooth = 0;
x = 194;
y = -263;
},
{
smooth = 0;
x = 48;
y = -74;
}
);
}
);
lib = {
};
name = sinLa;
unicodes = (
);
width = 852;
};
};
};
width = 694;
}
);
unicode = 3517;
},
{
glyphname = sinVa;
layers = (
{
anchors = (
{
name = bottom;
pos = (541,182);
},
{
name = reph;
pos = (267,619);
}
);
layerId = "51BB9282-3B82-4DF1-A67A-294D3E37D73A";
shapes = (
{
closed = 1;
nodes = (
(495,-21,o),
(581,133,o),
(581,309,cs),
(581,517,o),
(466,631,o),
(254,631,cs),
(171,631,o),
(106,605,o),
(65,585,c),
(59,573,o),
(57,558,o),
(57,545,cs),
(57,531,o),
(59,520,o),
(60,513,c),
(87,527,o),
(148,557,o),
(251,557,cs),
(433,557,o),
(534,476,o),
(534,322,cs),
(534,187,o),
(449,65,o),
(274,65,cs),
(173,65,o),
(84,100,o),
(84,167,cs),
(84,240,o),
(166,267,o),
(248,267,cs),
(266,267,o),
(289,265,o),
(309,262,c),
(325,274,l),
(327,282,o),
(327,291,o),
(327,304,cs),
(327,378,o),
(283,457,o),
(186,457,cs),
(131,457,o),
(80,433,o),
(80,389,cs),
(80,361,o),
(98,342,o),
(131,342,cs),
(136,342,o),
(140,342,o),
(144,343,c),
(144,351,o),
(159,405,o),
(211,405,cs),
(250,405,o),
(277,385,o),
(277,326,c),
(271,327,o),
(266,327,o),
(259,327,cs),
(180,327,o),
(44,300,o),
(44,150,cs),
(44,49,o),
(144,-21,o),
(275,-21,cs)
);
}
);
width = 626;
}
);
metricRight = sinTta;
unicode = 3520;
},
{
glyphname = sinSha;
layers = (
{
anchors = (
{
name = bottom;
pos = (752,268);
},
{
name = virama;
pos = (643,407);
}
);
layerId = "51BB9282-3B82-4DF1-A67A-294D3E37D73A";
shapes = (
{
closed = 1;
nodes = (
(668,-5,o),
(757,122,o),
(757,265,cs),
(757,385,o),
(683,473,o),
(557,473,cs),
(410,473,o),
(303,356,o),
(290,169,c),
(295,168,o),
(300,168,o),
(305,168,cs),
(313,168,o),
(319,168,o),
(328,169,c),
(320,294,o),
(396,389,o),
(531,389,cs),
(630,389,o),
(708,318,o),
(708,224,cs),
(708,212,o),
(707,199,o),
(704,185,c),
(692,195,o),
(667,207,o),
(625,207,cs),
(562,207,o),
(486,154,o),
(486,63,cs),
(486,41,o),
(493,10,o),
(514,-8,c)
);
},
{
closed = 1;
nodes = (
(380,-9,o),
(461,83,o),
(461,179,cs),
(461,247,o),
(413,313,o),
(345,312,c),
(336,260,l),
(367,259,o),
(420,240,o),
(420,188,cs),
(420,118,o),
(327,83,o),
(252,83,cs),
(154,83,o),
(90,141,o),
(90,220,cs),
(90,310,o),
(170,379,o),
(273,379,c),
(278,386,o),
(283,426,o),
(283,451,cs),
(283,457,o),
(283,463,o),
(282,466,c),
(183,465,o),
(49,372,o),
(49,213,cs),
(49,85,o),
(132,-9,o),
(254,-9,cs)
);
},
{
closed = 1;
nodes = (
(544,68,o),
(530,69,o),
(517,71,c),
(530,127,o),
(573,141,o),
(612,141,cs),
(641,141,o),
(662,132,o),
(674,126,c),
(649,92,o),
(611,70,o),
(565,69,cs)
);
}
);
width = 797;
}
);
metricRight = sinGa;
unicode = 3521;
},
{
glyphname = sinSsa;
layers = (
{
anchors = (
{
name = bottom;
pos = (592,202);
},
{
name = top;
pos = (206,457);
},
{
name = virama;
pos = (529,428);
}
);
layerId = "51BB9282-3B82-4DF1-A67A-294D3E37D73A";
shapes = (
{
closed = 1;
nodes = (
(482,-20,o),
(603,74,o),
(603,202,cs),
(603,287,o),
(541,335,o),
(456,335,cs),
(415,335,o),
(387,330,o),
(363,318,c),
(410,305,l),
(402,317,o),
(389,325,o),
(389,352,cs),
(389,401,o),
(428,427,o),
(472,427,cs),
(510,427,o),
(545,405,o),
(545,366,cs),
(545,329,o),
(524,311,o),
(520,304,c),
(554,286,l),
(560,293,o),
(596,334,o),
(596,388,cs),
(596,428,o),
(566,475,o),
(491,475,cs),
(396,475,o),
(345,398,o),
(345,301,cs),
(345,291,o),
(346,279,o),
(347,268,c),
(358,260,l),
(391,271,o),
(426,284,o),
(464,284,cs),
(520,284,o),
(566,263,o),
(566,208,cs),
(566,133,o),
(468,51,o),
(328,51,cs),
(165,51,o),
(79,122,o),
(79,188,cs),
(79,242,o),
(141,272,o),
(230,272,cs),
(251,272,o),
(272,271,o),
(295,268,c),
(307,279,l),
(311,297,o),
(313,318,o),
(313,339,cs),
(313,405,o),
(287,475,o),
(190,475,cs),
(126,475,o),
(87,439,o),
(87,400,cs),
(87,360,o),
(115,347,o),
(142,345,c),
(150,377,o),
(182,421,o),
(225,421,cs),
(261,421,o),
(276,396,o),
(276,364,cs),
(276,330,o),
(255,308,o),
(244,299,c),
(282,331,l),
(271,332,o),
(259,333,o),
(248,333,cs),
(147,333,o),
(46,273,o),
(46,177,cs),
(46,82,o),
(120,-20,o),
(333,-20,cs)
);
},
{
closed = 1;
nodes = (
(403,93,o),
(450,140,o),
(450,182,cs),
(450,222,o),
(402,221,o),
(390,222,c),
(370,213,l),
(401,215,o),
(417,201,o),
(417,187,cs),
(417,160,o),
(372,135,o),
(313,135,cs),
(261,135,o),
(205,146,o),
(205,172,cs),
(205,192,o),
(228,197,o),
(279,197,cs),
(291,197,o),
(303,196,o),
(317,196,cs),
(436,193,o),
(515,228,o),
(561,296,c),
(531,317,l),
(503,281,o),
(441,235,o),
(325,229,cs),
(262,226,o),
(175,234,o),
(175,169,cs),
(175,117,o),
(253,93,o),
(316,93,cs)
);
}
);
width = 643;
}
);
unicode = 3522;
},
{
glyphname = sinSa;
layers = (
{
anchors = (
{
name = bottom;
pos = (682,182);
},
{
name = top;
pos = (266,453);
},
{
name = virama;
pos = (602,448);
}
);
layerId = "51BB9282-3B82-4DF1-A67A-294D3E37D73A";
shapes = (
{
closed = 1;
nodes = (
(628,-12,o),
(693,78,o),
(693,176,cs),
(693,275,o),
(624,341,o),
(520,341,cs),
(484,341,o),
(455,330,o),
(431,318,c),
(490,294,l),
(483,303,o),
(463,321,o),
(463,362,cs),
(463,396,o),
(486,446,o),
(540,446,cs),
(580,446,o),
(614,423,o),
(614,379,cs),
(614,349,o),
(593,311,o),
(589,305,c),
(593,307,o),
(601,297,o),
(605,297,cs),
(606,297,o),
(607,299,o),
(607,299,c),
(637,313,o),
(675,350,o),
(675,392,cs),
(675,448,o),
(630,493,o),
(558,493,cs),
(464,493,o),
(413,419,o),
(413,312,cs),
(413,300,o),
(414,287,o),
(415,274,c),
(426,265,l),
(460,277,o),
(493,285,o),
(527,285,cs),
(586,285,o),
(657,258,o),
(657,187,cs),
(657,139,o),
(627,72,o),
(527,72,cs),
(450,72,o),
(395,131,o),
(395,187,cs),
(395,192,o),
(395,196,o),
(396,200,c),
(390,199,o),
(381,197,o),
(376,195,c),
(359,117,o),
(321,73,o),
(246,73,cs),
(170,73,o),
(126,108,o),
(126,158,cs),
(126,209,o),
(171,271,o),
(284,271,cs),
(304,271,o),
(325,269,o),
(349,265,c),
(362,276,l),
(368,294,o),
(371,315,o),
(371,337,cs),
(371,413,o),
(334,494,o),
(241,494,cs),
(174,494,o),
(127,452,o),
(127,410,cs),
(127,376,o),
(160,358,o),
(183,357,c),
(192,396,o),
(216,437,o),
(261,437,cs),
(300,437,o),
(327,414,o),
(327,373,cs),
(327,349,o),
(322,335,o),
(316,324,c),
(228,314,l),
(152,286,o),
(86,240,o),
(86,145,cs),
(86,67,o),
(134,-9,o),
(242,-9,cs),
(337,-9,o),
(384,74,o),
(388,119,c),
(386,121,o),
(385,130,o),
(385,133,cs),
(385,135,l),
(382,126,o),
(380,115,o),
(380,105,cs),
(380,48,o),
(430,-12,o),
(520,-12,cs)
);
},
{
closed = 1;
nodes = (
(71,264,o),
(171,314,o),
(298,314,cs),
(308,314,o),
(318,314,o),
(328,313,c),
(342,329,l),
(309,329,ls),
(219,329,o),
(92,326,o),
(34,315,c),
(25,292,o),
(22,270,o),
(20,246,c),
(29,239,l)
);
}
);
userData = {
com.typemytype.robofont.layerData = {
"Jan 18 17, 22:35" = {
anchors = (
{
name = rakaransaya;
x = 856;
y = 210;
}
);
components = (
);
contours = (
{
points = (
{
segmentType = line;
smooth = 0;
x = 39.292;
y = 294;
},
{
segmentType = line;
smooth = 0;
x = 59.201;
y = 379;
},
{
smooth = 0;
x = 138.669;
y = 393;
},
{
smooth = 0;
x = 331.088;
y = 397;
},
{
segmentType = curve;
smooth = 0;
x = 440.983;
y = 396;
},
{
segmentType = line;
smooth = 0;
x = 422.991;
y = 377;
},
{
smooth = 0;
x = 248.145;
y = 388;
},
{
smooth = 0;
x = 105.702;
y = 317;
},
{
segmentType = curve;
smooth = 0;
x = 51.243;
y = 284;
}
);
},
{
points = (
{
segmentType = curve;
smooth = 0;
x = 753.314;
y = 366;
},
{
smooth = 0;
x = 758.753;
y = 374.188;
},
{
smooth = 0;
x = 784.47;
y = 417.842;
},
{
segmentType = curve;
smooth = 1;
x = 788.295;
y = 452;
},
{
smooth = 0;
x = 794.396;
y = 506.501;
},
{
smooth = 0;
x = 745;
y = 541;
},
{
segmentType = curve;
smooth = 1;
x = 693;
y = 541;
},
{
smooth = 0;
x = 644;
y = 541;
},
{
smooth = 0;
x = 596;
y = 496;
},
{
segmentType = curve;
smooth = 1;
x = 596;
y = 450;
},
{
smooth = 0;
x = 596;
y = 405;
},
{
smooth = 0;
x = 600.28;
y = 391.787;
},
{
segmentType = curve;
smooth = 0;
x = 611.781;
y = 376;
},
{
segmentType = line;
smooth = 0;
x = 550.516;
y = 383;
},
{
smooth = 0;
x = 593.088;
y = 398;
},
{
smooth = 0;
x = 608;
y = 411;
},
{
segmentType = curve;
smooth = 1;
x = 666;
y = 410;
},
{
smooth = 0;
x = 796;
y = 409;
},
{
smooth = 0;
x = 858;
y = 317;
},
{
segmentType = curve;
smooth = 1;
x = 858;
y = 211;
},
{
smooth = 0;
x = 858;
y = 67;
},
{
smooth = 0;
x = 747.134;
y = -28;
},
{
segmentType = curve;
smooth = 1;
x = 634;
y = -28;
},
{
smooth = 0;
x = 492.535;
y = -28;
},
{
smooth = 0;
x = 429.622;
y = 60.728;
},
{
segmentType = curve;
smooth = 0;
x = 456.36;
y = 142;
},
{
smooth = 0;
x = 455.209;
y = 140.444;
},
{
smooth = 0;
x = 482.123;
y = 125.542;
},
{
segmentType = curve;
smooth = 0;
x = 480.949;
y = 124;
},
{
smooth = 0;
x = 461.491;
y = 73.791;
},
{
smooth = 0;
x = 400.535;
y = -25.155;
},
{
segmentType = curve;
smooth = 1;
x = 276.013;
y = -26;
},
{
smooth = 0;
x = 136.592;
y = -26.917;
},
{
smooth = 0;
x = 95;
y = 71;
},
{
segmentType = curve;
smooth = 1;
x = 96.351;
y = 157;
},
{
smooth = 0;
x = 98;
y = 274;
},
{
smooth = 0;
x = 211.41;
y = 356.413;
},
{
segmentType = curve;
smooth = 0;
x = 302.579;
y = 391;
},
{
smooth = 0;
x = 305.463;
y = 392.048;
},
{
smooth = 0;
x = 302.726;
y = 387.048;
},
{
segmentType = curve;
smooth = 0;
x = 305.62;
y = 388;
},
{
segmentType = line;
smooth = 0;
x = 408.354;
y = 390;
},
{
smooth = 0;
x = 442.253;
y = 435.824;
},
{
smooth = 0;
x = 401.579;
y = 529.982;
},
{
segmentType = curve;
smooth = 1;
x = 348.766;
y = 531;
},
{
smooth = 0;
x = 296.857;
y = 532;
},
{
smooth = 0;
x = 264.263;
y = 480;
},
{
segmentType = curve;
smooth = 0;
x = 253.128;
y = 431;
},
{
smooth = 0;
x = 220.337;
y = 433;
},
{
smooth = 0;
x = 177.073;
y = 456.894;
},
{
segmentType = curve;
smooth = 1;
x = 182.884;
y = 505;
},
{
smooth = 0;
x = 189.043;
y = 556.004;
},
{
smooth = 0;
x = 239.946;
y = 601;
},
{
segmentType = curve;
smooth = 1;
x = 318.946;
y = 601;
},
{
smooth = 0;
x = 458.609;
y = 601;
},
{
smooth = 0;
x = 496.07;
y = 432.586;
},
{
segmentType = curve;
smooth = 0;
x = 464.065;
y = 330;
},
{
segmentType = line;
smooth = 0;
x = 448.598;
y = 316;
},
{
smooth = 0;
x = 248.715;
y = 349.568;
},
{
smooth = 0;
x = 136;
y = 257;
},
{
segmentType = curve;
smooth = 1;
x = 138;
y = 183;
},
{
smooth = 0;
x = 140;
y = 114;
},
{
smooth = 0;
x = 202;
y = 76;
},
{
segmentType = curve;
smooth = 1;
x = 299;
y = 76;
},
{
smooth = 0;
x = 387;
y = 76;
},
{
smooth = 0;
x = 442.709;
y = 115.466;
},
{
segmentType = curve;
smooth = 0;
x = 471.906;
y = 209;
},
{
smooth = 0;
x = 479.448;
y = 210.986;
},
{
smooth = 0;
x = 487.079;
y = 213.831;
},
{
segmentType = curve;
smooth = 0;
x = 494.535;
y = 215;
},
{
smooth = 0;
x = 477.299;
y = 137.996;
},
{
smooth = 0;
x = 525.611;
y = 75.999;
},
{
segmentType = curve;
smooth = 1;
x = 650;
y = 76;
},
{
smooth = 0;
x = 742.789;
y = 76.001;
},
{
smooth = 0;
x = 814;
y = 148;
},
{
segmentType = curve;
smooth = 1;
x = 814.897;
y = 221;
},
{
smooth = 0;
x = 816;
y = 309;
},
{
smooth = 0;
x = 748.461;
y = 339.452;
},
{
segmentType = curve;
smooth = 1;
x = 670.283;
y = 340.62;
},
{
smooth = 0;
x = 628.85;
y = 341.239;
},
{
smooth = 0;
x = 586.702;
y = 331.12;
},
{
segmentType = curve;
smooth = 0;
x = 544.689;
y = 315.877;
},
{
segmentType = line;
smooth = 0;
x = 530.855;
y = 327;
},
{
smooth = 0;
x = 532;
y = 486;
},
{
smooth = 0;
x = 600;
y = 600;
},
{
segmentType = curve;
smooth = 1;
x = 731;
y = 600;
},
{
smooth = 0;
x = 831;
y = 600;
},
{
smooth = 0;
x = 866;
y = 546;
},
{
segmentType = curve;
smooth = 1;
x = 865.787;
y = 485;
},
{
smooth = 0;
x = 866;
y = 413;
},
{
smooth = 0;
x = 784.976;
y = 383.074;
}
);
}
);
lib = {
};
name = sinSa;
unicodes = (
);
width = 905;
};
"Jan 18 17, 22:42" = {
anchors = (
{
name = rakaransaya;
x = 928;
y = 210;
}
);
components = (
);
contours = (
{
points = (
{
segmentType = line;
smooth = 0;
x = 442;
y = 332;
},
{
smooth = 0;
x = 413;
y = 336;
},
{
smooth = 0;
x = 386;
y = 338;
},
{
segmentType = curve;
smooth = 1;
x = 361;
y = 338;
},
{
smooth = 0;
x = 250;
y = 338;
},
{
smooth = 0;
x = 173;
y = 300;
},
{
segmentType = curve;
smooth = 1;
x = 173;
y = 233;
},
{
smooth = 0;
x = 173;
y = 150;
},
{
smooth = 0;
x = 280;
y = 82;
},
{
segmentType = curve;
smooth = 1;
x = 483;
y = 82;
},
{
smooth = 0;
x = 656;
y = 82;
},
{
smooth = 0;
x = 780;
y = 165;
},
{
segmentType = curve;
smooth = 1;
x = 780;
y = 258;
},
{
smooth = 0;
x = 780;
y = 326;
},
{
smooth = 0;
x = 722;
y = 353;
},
{
segmentType = curve;
smooth = 1;
x = 652;
y = 353;
},
{
smooth = 0;
x = 607;
y = 353;
},
{
smooth = 0;
x = 561;
y = 337;
},
{
segmentType = curve;
smooth = 0;
x = 520;
y = 322;
},
{
segmentType = line;
smooth = 0;
x = 507;
y = 333;
},
{
smooth = 0;
x = 491;
y = 473;
},
{
smooth = 0;
x = 557;
y = 590;
},
{
segmentType = curve;
smooth = 1;
x = 696;
y = 590;
},
{
smooth = 0;
x = 786;
y = 590;
},
{
smooth = 0;
x = 818;
y = 531;
},
{
segmentType = curve;
smooth = 1;
x = 818;
y = 484;
},
{
smooth = 0;
x = 818;
y = 414;
},
{
smooth = 0;
x = 770;
y = 373;
},
{
segmentType = curve;
smooth = 0;
x = 736;
y = 360;
},
{
segmentType = line;
smooth = 0;
x = 719;
y = 378;
},
{
smooth = 0;
x = 725;
y = 387;
},
{
smooth = 0;
x = 752;
y = 408;
},
{
segmentType = curve;
smooth = 1;
x = 752;
y = 455;
},
{
smooth = 0;
x = 752;
y = 503;
},
{
smooth = 0;
x = 710;
y = 531;
},
{
segmentType = curve;
smooth = 1;
x = 661;
y = 531;
},
{
smooth = 0;
x = 608;
y = 531;
},
{
smooth = 0;
x = 561;
y = 498;
},
{
segmentType = curve;
smooth = 1;
x = 561;
y = 439;
},
{
smooth = 0;
x = 561;
y = 405;
},
{
smooth = 0;
x = 575;
y = 393;
},
{
segmentType = curve;
smooth = 0;
x = 585;
y = 379;
},
{
segmentType = line;
smooth = 0;
x = 527;
y = 395;
},
{
smooth = 0;
x = 556;
y = 409;
},
{
smooth = 0;
x = 591;
y = 416;
},
{
segmentType = curve;
smooth = 1;
x = 642;
y = 416;
},
{
smooth = 0;
x = 747;
y = 416;
},
{
smooth = 0;
x = 826;
y = 357;
},
{
segmentType = curve;
smooth = 1;
x = 826;
y = 251;
},
{
smooth = 0;
x = 826;
y = 91;
},
{
smooth = 0;
x = 674;
y = -26;
},
{
segmentType = curve;
smooth = 1;
x = 489;
y = -26;
},
{
smooth = 0;
x = 224;
y = -26;
},
{
smooth = 0;
x = 132;
y = 101;
},
{
segmentType = curve;
smooth = 1;
x = 132;
y = 220;
},
{
smooth = 0;
x = 132;
y = 339;
},
{
smooth = 0;
x = 258;
y = 413;
},
{
segmentType = curve;
smooth = 1;
x = 382;
y = 413;
},
{
smooth = 0;
x = 397;
y = 413;
},
{
smooth = 0;
x = 412;
y = 412;
},
{
segmentType = curve;
smooth = 0;
x = 427;
y = 410;
},
{
segmentType = line;
smooth = 0;
x = 379;
y = 372;
},
{
smooth = 0;
x = 392;
y = 383;
},
{
smooth = 0;
x = 419;
y = 409;
},
{
segmentType = curve;
smooth = 1;
x = 419;
y = 452;
},
{
smooth = 0;
x = 419;
y = 492;
},
{
smooth = 0;
x = 399;
y = 524;
},
{
segmentType = curve;
smooth = 1;
x = 355;
y = 524;
},
{
smooth = 0;
x = 300;
y = 524;
},
{
smooth = 0;
x = 261;
y = 469;
},
{
segmentType = curve;
smooth = 0;
x = 251;
y = 429;
},
{
smooth = 0;
x = 218;
y = 431;
},
{
smooth = 0;
x = 182;
y = 448;
},
{
segmentType = curve;
smooth = 1;
x = 182;
y = 496;
},
{
smooth = 0;
x = 182;
y = 545;
},
{
smooth = 0;
x = 232;
y = 589;
},
{
segmentType = curve;
smooth = 1;
x = 311;
y = 589;
},
{
smooth = 0;
x = 432;
y = 589;
},
{
smooth = 0;
x = 464;
y = 502;
},
{
segmentType = curve;
smooth = 1;
x = 464;
y = 421;
},
{
smooth = 0;
x = 464;
y = 395;
},
{
smooth = 0;
x = 461;
y = 369;
},
{
segmentType = curve;
smooth = 0;
x = 456;
y = 347;
}
);
}
);
lib = {
};
name = sinSa;
unicodes = (
);
width = 905;
};
"Regular Nov 5 16, 14:24" = {
anchors = (
);
components = (
);
contours = (
{
points = (
{
segmentType = line;
smooth = 0;
x = 39.292;
y = 294;
},
{
segmentType = line;
smooth = 0;
x = 59.201;
y = 379;
},
{
smooth = 0;
x = 138.669;
y = 393;
},
{
smooth = 0;
x = 331.088;
y = 397;
},
{
segmentType = curve;
smooth = 0;
x = 440.983;
y = 396;
},
{
segmentType = line;
smooth = 0;
x = 422.991;
y = 377;
},
{
smooth = 0;
x = 248.145;
y = 388;
},
{
smooth = 0;
x = 105.702;
y = 317;
},
{
segmentType = curve;
smooth = 0;
x = 51.243;
y = 284;
}
);
},
{
points = (
{
segmentType = curve;
smooth = 0;
x = 753.314;
y = 366;
},
{
smooth = 0;
x = 755;
y = 368;
},
{
smooth = 0;
x = 736;
y = 369;
},
{
segmentType = curve;
smooth = 0;
x = 743;
y = 376;
},
{
smooth = 0;
x = 759;
y = 394;
},
{
smooth = 0;
x = 808;
y = 406;
},
{
segmentType = curve;
smooth = 1;
x = 808;
y = 452;
},
{
smooth = 0;
x = 808;
y = 508;
},
{
smooth = 0;
x = 765.368;
y = 541;
},
{
segmentType = curve;
smooth = 1;
x = 712.657;
y = 541;
},
{
smooth = 0;
x = 664.271;
y = 541;
},
{
smooth = 0;
x = 596;
y = 506;
},
{
segmentType = curve;
smooth = 1;
x = 597;
y = 445;
},
{
smooth = 0;
x = 597;
y = 414;
},
{
smooth = 0;
x = 620;
y = 382;
},
{
segmentType = curve;
smooth = 0;
x = 622;
y = 376;
},
{
segmentType = line;
smooth = 0;
x = 550.516;
y = 383;
},
{
smooth = 0;
x = 593.088;
y = 398;
},
{
smooth = 0;
x = 618.447;
y = 410.522;
},
{
segmentType = curve;
smooth = 1;
x = 676.346;
y = 410;
},
{
smooth = 0;
x = 806.22;
y = 408.829;
},
{
smooth = 0;
x = 871.788;
y = 316.06;
},
{
segmentType = curve;
smooth = 1;
x = 857.915;
y = 195;
},
{
smooth = 0;
x = 842.189;
y = 67.135;
},
{
smooth = 0;
x = 747.134;
y = -28;
},
{
segmentType = curve;
smooth = 1;
x = 612.064;
y = -28;
},
{
smooth = 0;
x = 492.535;
y = -28;
},
{
smooth = 0;
x = 429.622;
y = 60.728;
},
{
segmentType = curve;
smooth = 0;
x = 456.36;
y = 142;
},
{
smooth = 0;
x = 455.209;
y = 140.444;
},
{
smooth = 0;
x = 482.123;
y = 125.542;
},
{
segmentType = curve;
smooth = 0;
x = 480.949;
y = 124;
},
{
smooth = 0;
x = 461.491;
y = 73.791;
},
{
smooth = 0;
x = 400.535;
y = -25.155;
},
{
segmentType = curve;
smooth = 1;
x = 276.013;
y = -26;
},
{
smooth = 0;
x = 136.592;
y = -26.917;
},
{
smooth = 0;
x = 86.903;
y = 71.679;
},
{
segmentType = curve;
smooth = 1;
x = 96.351;
y = 157;
},
{
smooth = 0;
x = 109.061;
y = 273.714;
},
{
smooth = 0;
x = 211;
y = 346;
},
{
segmentType = curve;
smooth = 0;
x = 303;
y = 381;
},
{
smooth = 0;
x = 305;
y = 382;
},
{
smooth = 0;
x = 303;
y = 377;
},
{
segmentType = curve;
smooth = 0;
x = 306;
y = 378;
},
{
segmentType = line;
smooth = 0;
x = 408.354;
y = 390;
},
{
smooth = 0;
x = 417;
y = 402;
},
{
smooth = 0;
x = 432;
y = 415;
},
{
segmentType = curve;
smooth = 1;
x = 432;
y = 452;
},
{
smooth = 0;
x = 432;
y = 498;
},
{
smooth = 0;
x = 396;
y = 530;
},
{
segmentType = curve;
smooth = 1;
x = 348.766;
y = 531;
},
{
smooth = 0;
x = 287;
y = 532;
},
{
smooth = 0;
x = 264.263;
y = 480;
},
{
segmentType = curve;
smooth = 0;
x = 253.128;
y = 431;
},
{
smooth = 0;
x = 220.337;
y = 433;
},
{
smooth = 0;
x = 177.073;
y = 456.894;
},
{
segmentType = curve;
smooth = 1;
x = 182.884;
y = 505;
},
{
smooth = 0;
x = 189.043;
y = 556.004;
},
{
smooth = 0;
x = 239.946;
y = 601;
},
{
segmentType = curve;
smooth = 1;
x = 318.946;
y = 601;
},
{
smooth = 0;
x = 458.609;
y = 601;
},
{
smooth = 0;
x = 496.07;
y = 432.586;
},
{
segmentType = curve;
smooth = 0;
x = 464.065;
y = 330;
},
{
segmentType = line;
smooth = 0;
x = 448.598;
y = 316;
},
{
smooth = 0;
x = 248.715;
y = 349.568;
},
{
smooth = 0;
x = 154.553;
y = 256.873;
},
{
segmentType = curve;
smooth = 1;
x = 146.076;
y = 183;
},
{
smooth = 0;
x = 138.061;
y = 114.516;
},
{
smooth = 0;
x = 202.441;
y = 78.167;
},
{
segmentType = curve;
smooth = 1;
x = 298.647;
y = 85;
},
{
smooth = 0;
x = 369.578;
y = 90.038;
},
{
smooth = 0;
x = 442.709;
y = 115.466;
},
{
segmentType = curve;
smooth = 0;
x = 471.906;
y = 209;
},
{
smooth = 0;
x = 479.448;
y = 210.986;
},
{
smooth = 0;
x = 487.079;
y = 213.831;
},
{
segmentType = curve;
smooth = 0;
x = 494.535;
y = 215;
},
{
smooth = 0;
x = 477.299;
y = 137.996;
},
{
smooth = 0;
x = 525.611;
y = 75.999;
},
{
segmentType = curve;
smooth = 1;
x = 622.967;
y = 76;
},
{
smooth = 0;
x = 742.789;
y = 76.001;
},
{
smooth = 0;
x = 810.231;
y = 147.703;
},
{
segmentType = curve;
smooth = 1;
x = 814.897;
y = 221;
},
{
smooth = 0;
x = 820.531;
y = 309.485;
},
{
smooth = 0;
x = 748.461;
y = 339.452;
},
{
segmentType = curve;
smooth = 1;
x = 670.283;
y = 340.62;
},
{
smooth = 0;
x = 628.85;
y = 341.239;
},
{
smooth = 0;
x = 586.702;
y = 331.12;
},
{
segmentType = curve;
smooth = 0;
x = 544.689;
y = 315.877;
},
{
segmentType = line;
smooth = 0;
x = 530.855;
y = 327;
},
{
smooth = 0;
x = 522.415;
y = 456.36;
},
{
smooth = 0;
x = 611.841;
y = 600;
},
{
segmentType = curve;
smooth = 1;
x = 742.841;
y = 600;
},
{
smooth = 0;
x = 832.841;
y = 600;
},
{
smooth = 0;
x = 870.756;
y = 538.007;
},
{
segmentType = curve;
smooth = 1;
x = 865.787;
y = 485;
},
{
smooth = 0;
x = 859;
y = 412;
},
{
smooth = 0;
x = 784.976;
y = 383.074;
}
);
}
);
lib = {
};
name = sinSa;
unicodes = (
);
width = 905;
};
};
};
width = 733;
}
);
unicode = 3523;
},
{
glyphname = sinHa;
layers = (
{
anchors = (
{
name = bottom;
pos = (741,252);
},
{
name = top;
pos = (523,473);
},
{
name = virama;
pos = (638,431);
}
);
layerId = "51BB9282-3B82-4DF1-A67A-294D3E37D73A";
shapes = (
{
closed = 1;
nodes = (
(685,-5,o),
(751,100,o),
(751,254,cs),
(751,386,o),
(678,473,o),
(550,473,cs),
(422,473,o),
(328,359,o),
(317,177,c),
(322,176,o),
(331,176,o),
(335,176,cs),
(343,176,o),
(347,176,o),
(354,177,c),
(348,298,o),
(405,389,o),
(522,389,cs),
(625,389,o),
(703,319,o),
(703,233,cs),
(703,145,o),
(649,82,o),
(556,78,cs),
(524,77,o),
(508,78,o),
(482,82,c),
(473,76,l),
(472,58,o),
(479,9,o),
(498,-8,c)
);
},
{
closed = 1;
nodes = (
(351,-8,o),
(452,66,o),
(452,173,cs),
(452,256,o),
(395,288,o),
(353,287,c),
(345,237,l),
(360,236,o),
(421,220,o),
(421,173,cs),
(421,109,o),
(327,81,o),
(241,81,cs),
(156,81,o),
(70,109,o),
(70,173,cs),
(70,237,o),
(132,275,o),
(220,275,cs),
(239,275,o),
(259,272,o),
(281,269,c),
(292,281,l),
(294,294,o),
(296,310,o),
(296,326,cs),
(296,395,o),
(269,474,o),
(166,474,cs),
(100,474,o),
(65,435,o),
(65,396,cs),
(65,362,o),
(98,348,o),
(123,347,c),
(130,379,o),
(160,423,o),
(203,423,cs),
(237,423,o),
(253,400,o),
(253,365,cs),
(253,329,o),
(236,310,o),
(223,291,c),
(257,331,l),
(245,334,o),
(234,334,o),
(221,334,cs),
(117,334,o),
(31,267,o),
(31,159,cs),
(31,55,o),
(117,-8,o),
(234,-8,cs)
);
}
);
width = 791;
}
);
unicode = 3524;
},
{
glyphname = sinLla;
layers = (
{
anchors = (
{
name = virama;
pos = (533,452);
}
);
layerId = "51BB9282-3B82-4DF1-A67A-294D3E37D73A";
shapes = (
{
closed = 1;
nodes = (
(538,-220,o),
(623,-157,o),
(659,-124,c),
(660,-112,o),
(652,-87,o),
(641,-77,c),
(604,-105,o),
(510,-140,o),
(411,-140,cs),
(181,-140,o),
(84,-31,o),
(84,92,cs),
(84,221,o),
(204,281,o),
(358,281,cs),
(480,281,o),
(559,277,o),
(593,265,c),
(613,284,l),
(615,405,o),
(582,494,o),
(494,494,cs),
(423,494,o),
(400,437,o),
(400,405,c),
(403,421,l),
(403,430,o),
(386,495,o),
(306,495,cs),
(227,495,o),
(146,432,o),
(146,302,cs),
(146,169,o),
(239,61,o),
(411,61,cs),
(508,61,o),
(572,101,o),
(601,131,c),
(602,133,o),
(602,136,o),
(602,139,cs),
(602,149,o),
(598,160,o),
(593,167,c),
(553,148,o),
(497,140,o),
(444,140,cs),
(324,140,o),
(188,168,o),
(188,297,cs),
(188,405,o),
(259,429,o),
(307,429,cs),
(342,429,o),
(374,411,o),
(387,375,c),
(413,377,l),
(427,408,o),
(461,423,o),
(491,423,cs),
(533,423,o),
(576,387,o),
(570,314,c),
(575,316,l),
(524,333,o),
(472,343,o),
(368,343,cs),
(165,343,o),
(45,243,o),
(45,68,cs),
(45,-87,o),
(156,-220,o),
(406,-220,cs)
);
}
);
width = 656;
}
);
unicode = 3525;
},
{
glyphname = sinFa;
layers = (
{
anchors = (
{
name = bottom;
pos = (675,263);
},
{
name = reph;
pos = (377,429);
},
{
name = virama;
pos = (558,402);
}
);
layerId = "51BB9282-3B82-4DF1-A67A-294D3E37D73A";
shapes = (
{
closed = 1;
nodes = (
(279,-14,o),
(304,-11,o),
(329,0,c),
(331,7,o),
(332,19,o),
(332,32,cs),
(332,50,o),
(330,69,o),
(328,80,c),
(296,66,o),
(261,66,o),
(239,67,cs),
(159,70,o),
(65,122,o),
(65,211,cs),
(65,304,o),
(125,364,o),
(210,364,cs),
(284,364,o),
(348,304,o),
(348,254,cs),
(348,250,o),
(348,245,o),
(347,242,c),
(354,242,o),
(363,243,o),
(371,247,c),
(391,320,o),
(453,361,o),
(507,361,cs),
(572,361,o),
(642,322,o),
(642,238,cs),
(642,180,o),
(607,64,o),
(430,67,c),
(424,57,l),
(428,33,o),
(445,-1,o),
(456,-13,c),
(623,-11,o),
(681,139,o),
(681,250,cs),
(681,404,o),
(589,458,o),
(526,458,cs),
(442,458,o),
(385,388,o),
(361,327,c),
(368,323,l),
(369,326,o),
(369,330,o),
(369,334,cs),
(369,387,o),
(312,459,o),
(233,459,cs),
(118,459,o),
(30,349,o),
(30,224,cs),
(30,85,o),
(116,-14,o),
(252,-14,cs)
);
}
);
width = 721;
}
);
metricRight = sinYa;
unicode = 3526;
},
{
glyphname = sinPfa;
layers = (
{
anchors = (
{
name = _si_MaU;
pos = (573,209);
},
{
name = rakar;
pos = (578,177);
}
);
layerId = "51BB9282-3B82-4DF1-A67A-294D3E37D73A";
shapes = (
{
closed = 1;
nodes = (
(518,-17,o),
(640,77,o),
(640,206,cs),
(640,299,o),
(525,348,o),
(440,348,cs),
(399,348,o),
(402,340,o),
(379,329,c),
(451,303,l),
(442,316,o),
(425,332,o),
(425,372,cs),
(425,422,o),
(468,438,o),
(497,438,cs),
(542,438,o),
(579,413,o),
(579,374,cs),
(579,337,o),
(506,324,o),
(501,317,c),
(512,299,l),
(540,310,o),
(628,337,o),
(628,395,cs),
(628,439,o),
(590,487,o),
(520,487,cs),
(428,487,o),
(382,418,o),
(382,318,cs),
(382,305,o),
(383,292,o),
(384,280,c),
(394,271,l),
(428,286,o),
(464,292,o),
(500,292,cs),
(556,292,o),
(602,274,o),
(602,217,cs),
(602,137,o),
(503,77,o),
(332,77,cs),
(160,77,o),
(65,125,o),
(65,191,cs),
(65,254,o),
(125,284,o),
(214,284,cs),
(235,284,o),
(256,282,o),
(279,279,c),
(291,291,l),
(295,309,o),
(297,330,o),
(297,350,cs),
(297,415,o),
(271,485,o),
(174,485,cs),
(110,485,o),
(71,449,o),
(71,411,cs),
(71,372,o),
(99,359,o),
(126,357,c),
(134,390,o),
(166,433,o),
(210,433,cs),
(245,433,o),
(260,407,o),
(260,383,cs),
(260,343,o),
(239,321,o),
(228,311,c),
(266,341,l),
(255,343,o),
(243,344,o),
(232,344,cs),
(131,344,o),
(30,287,o),
(30,181,cs),
(30,86,o),
(104,-17,o),
(327,-17,cs)
);
},
{
closed = 1;
nodes = (
(361,190,l),
(516,204,l),
(505,237,l),
(454,235,o),
(410,234,o),
(367,234,cs),
(323,234,o),
(247,235,o),
(189,237,c),
(198,202,l),
(247,202,o),
(327,192,o),
(327,139,c)
);
},
{
closed = 1;
nodes = (
(495,-105,l),
(487,-78,l),
(433,-78,o),
(377,-70,o),
(374,-49,cs),
(361,47,o),
(363,141,o),
(363,204,cs),
(363,277,o),
(362,385,o),
(366,439,cs),
(370,520,o),
(424,571,o),
(465,571,cs),
(520,571,o),
(564,556,o),
(596,508,c),
(612,541,o),
(629,557,o),
(629,600,c),
(622,604,o),
(575,619,o),
(524,619,cs),
(430,619,o),
(315,550,o),
(315,421,cs),
(317,254,o),
(317,77,o),
(317,-47,c),
(317,-47,o),
(314,-72,o),
(227,-72,c),
(234,-105,l)
);
}
);
width = 655;
}
);
},
{
glyphname = sinKSsa;
layers = (
{
anchors = (
{
name = top;
pos = (699,437);
},
{
name = virama;
pos = (991,450);
}
);
layerId = "51BB9282-3B82-4DF1-A67A-294D3E37D73A";
shapes = (
{
closed = 1;
nodes = (
(298,-6,o),
(336,23,o),
(350,65,c),
(363,20,o),
(401,-6,o),
(446,-6,cs),
(540,-6,o),
(583,97,o),
(583,174,cs),
(583,266,o),
(536,334,o),
(454,334,cs),
(365,334,o),
(262,265,o),
(224,225,c),
(258,250,l),
(260,260,o),
(308,295,o),
(322,306,cs),
(374,349,o),
(504,413,o),
(595,413,cs),
(610,413,o),
(623,411,o),
(634,408,c),
(716,468,l),
(691,472,o),
(664,475,o),
(640,475,cs),
(496,475,o),
(388,406,o),
(296,329,cs),
(146,202,o),
(70,121,o),
(50,101,c),
(47,79,o),
(69,65,o),
(73,64,c),
(80,101,o),
(182,182,o),
(221,206,cs),
(275,241,o),
(350,264,o),
(415,264,cs),
(489,264,o),
(549,233,o),
(549,168,cs),
(549,112,o),
(498,83,o),
(446,83,cs),
(402,83,o),
(372,123,o),
(372,176,cs),
(372,182,o),
(372,187,o),
(373,192,c),
(353,188,l),
(339,122,o),
(291,81,o),
(241,81,cs),
(186,81,o),
(174,127,o),
(129,127,cs),
(122,127,o),
(115,126,o),
(106,123,c),
(85,94,l),
(91,99,o),
(97,101,o),
(105,101,cs),
(117,101,o),
(129,94,o),
(136,83,cs),
(166,40,o),
(193,-6,o),
(254,-6,cs)
);
},
{
closed = 1;
nodes = (
(165,291,o),
(182,293,o),
(195,299,c),
(185,312,o),
(175,327,o),
(175,351,cs),
(175,405,o),
(207,441,o),
(244,441,cs),
(279,441,o),
(295,413,o),
(295,379,cs),
(295,346,o),
(282,321,o),
(267,303,c),
(290,311,l),
(306,329,o),
(345,371,o),
(345,413,cs),
(345,453,o),
(305,470,o),
(263,470,cs),
(181,470,o),
(102,414,o),
(102,342,cs),
(102,308,o),
(118,291,o),
(152,291,cs)
);
},
{
pos = (506,0);
ref = sinSsa;
}
);
userData = {
com.typemytype.robofont.layerData = {
background = {
anchors = (
);
components = (
);
contours = (
{
points = (
{
smooth = 0;
x = 599;
y = 485;
},
{
smooth = 0;
x = 479;
y = 441;
},
{
segmentType = curve;
smooth = 1;
x = 404;
y = 380;
},
{
smooth = 0;
x = 387;
y = 366;
},
{
smooth = 0;
x = 326;
y = 322;
},
{
segmentType = curve;
smooth = 0;
x = 323;
y = 310;
},
{
segmentType = line;
smooth = 0;
x = 282;
y = 279;
},
{
smooth = 0;
x = 328;
y = 329;
},
{
smooth = 0;
x = 457;
y = 414;
},
{
segmentType = curve;
smooth = 1;
x = 569;
y = 414;
},
{
smooth = 0;
x = 673;
y = 414;
},
{
smooth = 0;
x = 733;
y = 325;
},
{
segmentType = curve;
smooth = 1;
x = 728;
y = 204;
},
{
smooth = 0;
x = 724;
y = 110;
},
{
smooth = 0;
x = 671;
y = -8;
},
{
segmentType = curve;
smooth = 1;
x = 559;
y = -8;
},
{
smooth = 0;
x = 501;
y = -8;
},
{
smooth = 0;
x = 455;
y = 23;
},
{
segmentType = curve;
smooth = 0;
x = 439;
y = 80;
},
{
smooth = 0;
x = 419;
y = 26;
},
{
smooth = 0;
x = 372;
y = -10;
},
{
segmentType = curve;
smooth = 1;
x = 312;
y = -8;
},
{
smooth = 0;
x = 242;
y = -6;
},
{
smooth = 0;
x = 208;
y = 49;
},
{
segmentType = curve;
smooth = 1;
x = 173;
y = 102;
},
{
smooth = 0;
x = 160;
y = 122;
},
{
smooth = 0;
x = 127;
y = 134;
},
{
segmentType = curve;
smooth = 0;
x = 109;
y = 115;
},
{
segmentType = line;
smooth = 0;
x = 134;
y = 152;
},
{
smooth = 0;
x = 216;
y = 176;
},
{
smooth = 0;
x = 224;
y = 100;
},
{
segmentType = curve;
smooth = 1;
x = 302;
y = 100;
},
{
smooth = 0;
x = 365;
y = 100;
},
{
smooth = 0;
x = 425;
y = 150;
},
{
segmentType = curve;
smooth = 0;
x = 443;
y = 232;
},
{
segmentType = line;
smooth = 0;
x = 468;
y = 238;
},
{
smooth = 0;
x = 460;
y = 162;
},
{
smooth = 0;
x = 497;
y = 103;
},
{
segmentType = curve;
smooth = 1;
x = 559;
y = 103;
},
{
smooth = 0;
x = 622;
y = 103;
},
{
smooth = 0;
x = 685;
y = 137;
},
{
segmentType = curve;
smooth = 1;
x = 686;
y = 205;
},
{
smooth = 0;
x = 687;
y = 288;
},
{
smooth = 0;
x = 613;
y = 327;
},
{
segmentType = curve;
smooth = 1;
x = 519;
y = 327;
},
{
smooth = 0;
x = 439;
y = 327;
},
{
smooth = 0;
x = 346;
y = 299;
},
{
segmentType = curve;
smooth = 1;
x = 278;
y = 256;
},
{
smooth = 0;
x = 228;
y = 225;
},
{
smooth = 0;
x = 102;
y = 125;
},
{
segmentType = curve;
smooth = 0;
x = 94;
y = 79;
},
{
smooth = 0;
x = 88;
y = 81;
},
{
smooth = 0;
x = 61;
y = 98;
},
{
segmentType = curve;
smooth = 0;
x = 65;
y = 125;
},
{
smooth = 0;
x = 89;
y = 149;
},
{
smooth = 0;
x = 185;
y = 250;
},
{
segmentType = curve;
smooth = 1;
x = 372;
y = 408;
},
{
smooth = 0;
x = 505;
y = 521;
},
{
smooth = 0;
x = 626;
y = 592;
},
{
segmentType = curve;
smooth = 0;
x = 771;
y = 592;
},
{
segmentType = line;
smooth = 0;
x = 728;
y = 485;
}
);
}
);
lib = {
};
name = sinKSsa;
unicodes = (
);
width = 1463;
};
};
};
width = 1126;
}
);
},
{
glyphname = sinKVa;
layers = (
{
layerId = "51BB9282-3B82-4DF1-A67A-294D3E37D73A";
shapes = (
{
closed = 1;
nodes = (
(269,-6,o),
(307,23,o),
(321,65,c),
(334,20,o),
(372,-6,o),
(417,-6,cs),
(511,-6,o),
(554,97,o),
(554,174,cs),
(554,266,o),
(507,334,o),
(425,334,cs),
(336,334,o),
(233,265,o),
(195,225,c),
(229,250,l),
(231,260,o),
(279,295,o),
(293,306,cs),
(339,344,o),
(452,396,o),
(550,396,cs),
(580,396,o),
(609,391,o),
(634,378,c),
(715,434,l),
(671,449,o),
(627,455,o),
(585,455,cs),
(458,455,o),
(348,397,o),
(267,329,cs),
(117,202,o),
(41,121,o),
(21,101,c),
(18,79,o),
(40,65,o),
(44,64,c),
(51,101,o),
(153,182,o),
(192,206,cs),
(246,241,o),
(321,264,o),
(386,264,cs),
(460,264,o),
(520,233,o),
(520,168,cs),
(520,112,o),
(469,83,o),
(417,83,cs),
(373,83,o),
(343,123,o),
(343,176,cs),
(343,182,o),
(343,187,o),
(344,192,c),
(324,188,l),
(310,122,o),
(262,81,o),
(212,81,cs),
(157,81,o),
(145,127,o),
(100,127,cs),
(93,127,o),
(86,126,o),
(77,123,c),
(56,94,l),
(62,99,o),
(68,101,o),
(76,101,cs),
(88,101,o),
(100,94,o),
(107,83,cs),
(137,40,o),
(164,-6,o),
(225,-6,cs)
);
},
{
closed = 1;
nodes = (
(136,291,o),
(153,293,o),
(166,299,c),
(156,312,o),
(146,327,o),
(146,351,cs),
(146,405,o),
(178,441,o),
(215,441,cs),
(250,441,o),
(266,413,o),
(266,379,cs),
(266,346,o),
(253,321,o),
(238,303,c),
(261,311,l),
(277,329,o),
(316,371,o),
(316,413,cs),
(316,453,o),
(276,470,o),
(234,470,cs),
(152,470,o),
(73,414,o),
(73,342,cs),
(73,308,o),
(89,291,o),
(123,291,cs)
);
},
{
pos = (456,0);
ref = sinVa;
}
);
width = 1065;
}
);
metricLeft = sinKa;
},
{
glyphname = sinTVa;
layers = (
{
layerId = "51BB9282-3B82-4DF1-A67A-294D3E37D73A";
shapes = (
{
closed = 1;
nodes = (
(448,-7,o),
(525,122,o),
(525,210,cs),
(525,287,o),
(473,328,o),
(402,328,cs),
(354,328,o),
(306,309,o),
(282,294,cs),
(265,283,o),
(245,273,o),
(224,257,c),
(234,267,o),
(258,288,o),
(271,298,cs),
(336,344,o),
(419,401,o),
(537,401,cs),
(600,401,l),
(618,401,l),
(632,456,l),
(620,457,o),
(606,457,o),
(591,457,cs),
(448,457,o),
(341,412,o),
(261,337,cs),
(195,273,o),
(105,167,o),
(43,89,c),
(39,66,o),
(69,52,o),
(70,51,c),
(90,108,o),
(129,150,o),
(172,188,cs),
(223,234,o),
(286,264,o),
(380,264,cs),
(443,264,o),
(494,244,o),
(494,197,cs),
(494,148,o),
(437,74,o),
(307,74,cs),
(194,74,o),
(168,122,o),
(121,122,cs),
(106,122,o),
(83,117,o),
(69,102,c),
(73,57,ls),
(72,68,o),
(84,96,o),
(112,96,cs),
(138,96,o),
(165,-7,o),
(292,-7,cs)
);
},
{
closed = 1;
nodes = (
(223,288,l),
(242,307,o),
(287,371,o),
(287,415,cs),
(287,454,o),
(250,473,o),
(202,473,cs),
(122,473,o),
(45,415,o),
(45,341,cs),
(45,311,o),
(60,293,o),
(94,293,cs),
(111,293,o),
(128,297,o),
(137,302,c),
(130,309,o),
(116,336,o),
(118,366,cs),
(119,402,o),
(142,436,o),
(180,436,cs),
(219,436,o),
(234,413,o),
(234,379,cs),
(234,345,o),
(219,293,o),
(199,270,c)
);
},
{
pos = (428,0);
ref = sinVa;
}
);
width = 1078;
}
);
},
{
glyphname = sinTTha;
layers = (
{
layerId = "51BB9282-3B82-4DF1-A67A-294D3E37D73A";
shapes = (
{
closed = 1;
nodes = (
(928,-18,o),
(1040,118,o),
(1040,289,cs),
(1040,513,o),
(851,658,o),
(688,658,c),
(664,591,l),
(828,591,o),
(993,470,o),
(993,304,cs),
(993,182,o),
(903,72,o),
(741,72,cs),
(634,72,o),
(549,121,o),
(549,202,cs),
(549,271,o),
(610,330,o),
(705,330,cs),
(718,330,o),
(726,329,o),
(733,326,c),
(743,342,l),
(740,361,o),
(733,381,o),
(721,397,c),
(621,398,o),
(506,338,o),
(506,177,cs),
(506,49,o),
(618,-18,o),
(745,-18,cs)
);
},
{
closed = 1;
nodes = (
(235,288,l),
(254,307,o),
(299,371,o),
(299,415,cs),
(299,454,o),
(262,472,o),
(214,472,cs),
(135,472,o),
(57,416,o),
(57,344,cs),
(57,312,o),
(71,293,o),
(106,293,cs),
(123,293,o),
(140,297,o),
(149,302,c),
(142,309,o),
(128,336,o),
(130,366,cs),
(131,402,o),
(154,435,o),
(192,435,cs),
(231,435,o),
(246,413,o),
(246,379,cs),
(246,345,o),
(231,293,o),
(211,270,c)
);
},
{
closed = 1;
nodes = (
(460,-7,o),
(537,122,o),
(537,210,cs),
(537,287,o),
(485,327,o),
(414,327,cs),
(366,327,o),
(318,309,o),
(294,294,cs),
(277,283,o),
(257,273,o),
(236,257,c),
(246,267,o),
(270,288,o),
(283,298,cs),
(349,343,o),
(411,369,o),
(527,369,cs),
(566,369,o),
(617,358,o),
(650,344,c),
(721,397,l),
(676,421,o),
(625,436,o),
(556,436,cs),
(465,436,o),
(353,412,o),
(273,337,cs),
(206,274,o),
(117,166,o),
(55,89,c),
(51,66,o),
(81,52,o),
(82,51,c),
(102,107,o),
(141,150,o),
(184,188,cs),
(235,234,o),
(298,264,o),
(392,264,cs),
(455,264,o),
(506,244,o),
(506,197,cs),
(506,147,o),
(448,74,o),
(314,74,cs),
(206,74,o),
(179,122,o),
(133,122,cs),
(118,122,o),
(95,117,o),
(81,102,c),
(85,57,ls),
(84,68,o),
(96,96,o),
(124,96,cs),
(150,96,o),
(177,-7,o),
(304,-7,cs)
);
},
{
closed = 1;
nodes = (
(874,435,o),
(935,453,o),
(960,476,c),
(952,497,l),
(930,488,o),
(895,482,o),
(858,482,cs),
(736,482,o),
(688,538,o),
(688,658,c),
(655,641,l),
(653,632,o),
(650,611,o),
(650,589,cs),
(650,491,o),
(706,435,o),
(813,435,cs)
);
}
);
width = 1050;
}
);
},
{
glyphname = sinNDa;
layers = (
{
layerId = "51BB9282-3B82-4DF1-A67A-294D3E37D73A";
shapes = (
{
closed = 1;
nodes = (
(418,-5,o),
(513,89,o),
(513,210,cs),
(513,288,o),
(475,327,o),
(417,327,cs),
(355,327,o),
(289,280,o),
(230,232,c),
(225,216,l),
(229,222,o),
(286,279,o),
(301,294,c),
(366,350,o),
(463,419,o),
(581,419,cs),
(595,419,o),
(617,418,o),
(636,414,c),
(684,492,l),
(488,498,o),
(377,428,o),
(275,318,cs),
(201,235,o),
(150,147,o),
(101,147,cs),
(84,147,o),
(76,156,o),
(76,172,cs),
(76,177,o),
(78,182,o),
(79,187,c),
(76,188,o),
(69,189,o),
(63,189,cs),
(55,189,o),
(45,188,o),
(40,186,c),
(51,90,o),
(123,-5,o),
(271,-5,cs)
);
},
{
closed = 1;
nodes = (
(182,79,o),
(118,95,o),
(93,130,c),
(90,108,l),
(190,109,o),
(215,261,o),
(389,261,cs),
(446,261,o),
(477,243,o),
(477,202,cs),
(477,135,o),
(399,79,o),
(257,79,cs)
);
},
{
closed = 1;
nodes = (
(295,320,o),
(340,387,o),
(340,431,cs),
(340,466,o),
(312,487,o),
(260,487,cs),
(178,487,o),
(98,434,o),
(98,360,cs),
(98,326,o),
(115,308,o),
(149,308,cs),
(164,308,o),
(182,311,o),
(192,317,c),
(185,327,o),
(177,348,o),
(177,372,cs),
(177,415,o),
(202,451,o),
(240,451,cs),
(270,451,o),
(291,427,o),
(291,389,cs),
(291,357,o),
(276,324,o),
(263,304,c),
(271,297,l)
);
},
{
pos = (433,0);
ref = sinDa;
}
);
width = 887;
}
);
},
{
glyphname = sinNDha;
layers = (
{
anchors = (
{
name = bottom;
pos = (1030,192);
}
);
layerId = "51BB9282-3B82-4DF1-A67A-294D3E37D73A";
shapes = (
{
closed = 1;
nodes = (
(1004,-16,o),
(1060,122,o),
(1060,279,cs),
(1060,480,o),
(946,624,o),
(725,624,cs),
(632,624,o),
(589,602,o),
(544,578,c),
(535,563,o),
(530,539,o),
(530,521,cs),
(530,512,o),
(531,505,o),
(533,500,c),
(566,521,o),
(599,548,o),
(720,548,cs),
(859,548,o),
(1011,494,o),
(1011,297,cs),
(1011,158,o),
(962,68,o),
(879,68,cs),
(834,68,o),
(781,83,o),
(781,156,c),
(782,165,l),
(762,161,l),
(744,114,o),
(713,72,o),
(641,72,cs),
(567,72,o),
(514,117,o),
(514,201,cs),
(514,253,o),
(561,341,o),
(684,341,cs),
(709,341,o),
(737,338,o),
(764,332,c),
(776,345,l),
(774,368,o),
(769,379,o),
(758,399,c),
(747,400,o),
(735,387,o),
(720,387,cs),
(575,387,o),
(467,323,o),
(467,180,cs),
(467,53,o),
(544,-15,o),
(636,-15,cs),
(725,-15,o),
(763,51,o),
(769,87,c),
(760,110,l),
(759,104,o),
(758,98,o),
(758,89,cs),
(758,31,o),
(810,-16,o),
(888,-16,cs)
);
},
{
closed = 1;
nodes = (
(162,69,o),
(102,82,o),
(73,121,c),
(70,108,l),
(168,109,o),
(200,251,o),
(364,251,cs),
(426,251,o),
(464,233,o),
(464,196,cs),
(464,111,o),
(350,69,o),
(249,69,cs)
);
},
{
closed = 1;
nodes = (
(273,307,o),
(320,379,o),
(320,419,cs),
(320,457,o),
(292,478,o),
(239,478,cs),
(158,478,o),
(78,425,o),
(78,346,cs),
(78,316,o),
(95,299,o),
(130,299,cs),
(144,299,o),
(162,302,o),
(172,307,c),
(165,316,o),
(157,338,o),
(157,365,cs),
(157,406,o),
(182,442,o),
(220,442,cs),
(249,442,o),
(272,418,o),
(272,383,cs),
(272,380,o),
(271,377,o),
(271,373,cs),
(267,342,o),
(255,311,o),
(243,295,c),
(251,287,l)
);
},
{
closed = 1;
nodes = (
(398,-15,o),
(495,72,o),
(493,210,cs),
(493,277,o),
(455,316,o),
(392,316,cs),
(337,316,o),
(269,271,o),
(210,223,c),
(205,206,l),
(209,212,o),
(255,268,o),
(270,282,cs),
(324,331,o),
(422,397,o),
(547,397,cs),
(598,397,o),
(682,386,o),
(721,361,c),
(758,399,l),
(708,438,o),
(619,454,o),
(563,454,cs),
(445,454,o),
(324,382,o),
(255,308,cs),
(207,255,o),
(130,137,o),
(82,137,cs),
(64,137,o),
(56,146,o),
(56,162,cs),
(56,166,o),
(58,172,o),
(59,177,c),
(56,178,o),
(49,179,o),
(43,179,cs),
(34,179,o),
(25,178,o),
(20,176,c),
(29,87,o),
(103,-15,o),
(245,-15,cs)
);
}
);
width = 1100;
}
);
metricRight = sinDha;
},
{
glyphname = sinNVa;
layers = (
{
layerId = "51BB9282-3B82-4DF1-A67A-294D3E37D73A";
shapes = (
{
closed = 1;
nodes = (
(428,-29,o),
(525,57,o),
(523,195,cs),
(523,262,o),
(485,302,o),
(422,302,cs),
(367,302,o),
(299,256,o),
(240,209,c),
(235,191,l),
(239,197,o),
(285,254,o),
(300,267,cs),
(361,322,o),
(476,387,o),
(576,387,c),
(614,453,l),
(490,453,o),
(355,370,o),
(285,293,cs),
(237,240,o),
(160,122,o),
(112,122,cs),
(94,122,o),
(86,131,o),
(86,147,cs),
(86,152,o),
(88,158,o),
(89,163,c),
(86,164,o),
(80,165,o),
(73,165,cs),
(64,165,o),
(55,164,o),
(50,161,c),
(59,73,o),
(133,-29,o),
(275,-29,cs)
);
},
{
closed = 1;
nodes = (
(192,55,o),
(132,67,o),
(103,106,c),
(100,94,l),
(198,94,o),
(230,237,o),
(394,237,cs),
(456,237,o),
(494,218,o),
(494,181,cs),
(494,97,o),
(380,55,o),
(279,55,cs)
);
},
{
closed = 1;
nodes = (
(303,293,o),
(350,364,o),
(350,405,cs),
(350,443,o),
(322,464,o),
(269,464,cs),
(188,464,o),
(108,411,o),
(108,331,cs),
(108,301,o),
(125,284,o),
(160,284,cs),
(174,284,o),
(192,287,o),
(202,293,c),
(195,302,o),
(187,323,o),
(187,351,cs),
(187,391,o),
(212,426,o),
(250,426,cs),
(279,426,o),
(302,403,o),
(302,369,cs),
(301,359,ls),
(298,328,o),
(285,296,o),
(273,279,c),
(281,272,l)
);
},
{
pos = (430,0);
ref = sinVa;
}
);
width = 1070;
}
);
},
{
glyphname = sinNTha;
layers = (
{
layerId = "51BB9282-3B82-4DF1-A67A-294D3E37D73A";
shapes = (
{
closed = 1;
nodes = (
(418,-15,o),
(515,72,o),
(513,210,cs),
(513,277,o),
(475,316,o),
(412,316,cs),
(357,316,o),
(289,271,o),
(230,223,c),
(225,206,l),
(229,212,o),
(296,268,o),
(311,282,cs),
(365,331,o),
(399,413,o),
(535,413,cs),
(606,413,o),
(641,383,o),
(660,327,c),
(700,397,l),
(660,447,o),
(617,481,o),
(540,481,cs),
(420,481,o),
(344,382,o),
(275,308,cs),
(227,256,o),
(150,137,o),
(102,137,cs),
(84,137,o),
(76,147,o),
(76,162,cs),
(76,166,o),
(78,172,o),
(79,177,c),
(76,178,o),
(69,179,o),
(63,179,cs),
(54,179,o),
(45,178,o),
(40,176,c),
(49,87,o),
(123,-15,o),
(265,-15,cs)
);
},
{
closed = 1;
nodes = (
(182,69,o),
(122,82,o),
(93,121,c),
(90,108,l),
(188,109,o),
(220,251,o),
(384,251,cs),
(446,251,o),
(484,233,o),
(484,196,cs),
(484,112,o),
(370,69,o),
(269,69,cs)
);
},
{
closed = 1;
nodes = (
(293,307,o),
(340,379,o),
(340,419,cs),
(340,457,o),
(312,478,o),
(259,478,cs),
(178,478,o),
(98,425,o),
(98,346,cs),
(98,316,o),
(115,299,o),
(150,299,cs),
(164,299,o),
(182,302,o),
(192,307,c),
(185,316,o),
(177,338,o),
(177,366,cs),
(177,406,o),
(202,442,o),
(240,442,cs),
(269,442,o),
(292,418,o),
(292,383,cs),
(292,380,o),
(291,377,o),
(291,373,cs),
(287,342,o),
(275,311,o),
(263,295,c),
(271,287,l)
);
},
{
pos = (427,0);
ref = sinTha;
}
);
width = 1029;
}
);
},
{
glyphname = sinGDha;
layers = (
{
layerId = "51BB9282-3B82-4DF1-A67A-294D3E37D73A";
shapes = (
{
closed = 1;
nodes = (
(961,-16,o),
(1017,122,o),
(1017,279,cs),
(1017,480,o),
(905,624,o),
(684,624,cs),
(579,624,o),
(514,602,o),
(481,578,c),
(472,563,o),
(467,539,o),
(467,521,cs),
(467,512,o),
(468,505,o),
(470,500,c),
(503,521,o),
(556,548,o),
(678,548,cs),
(816,548,o),
(968,494,o),
(968,297,cs),
(968,158,o),
(919,68,o),
(836,68,cs),
(791,68,o),
(738,83,o),
(738,156,c),
(739,165,l),
(720,161,l),
(701,114,o),
(670,72,o),
(598,72,cs),
(524,72,o),
(465,117,o),
(465,201,cs),
(465,274,o),
(522,343,o),
(645,343,cs),
(670,343,o),
(694,340,o),
(718,334,c),
(730,347,l),
(728,370,o),
(726,384,o),
(715,398,c),
(678,401,ls),
(533,409,o),
(424,323,o),
(424,180,cs),
(424,53,o),
(502,-15,o),
(593,-15,cs),
(684,-15,o),
(721,51,o),
(726,87,c),
(717,110,l),
(716,104,o),
(715,98,o),
(715,89,cs),
(715,31,o),
(767,-16,o),
(845,-16,cs)
);
},
{
closed = 1;
nodes = (
(386,-9,o),
(456,83,o),
(456,181,cs),
(456,259,o),
(403,315,o),
(335,314,c),
(331,261,l),
(362,260,o),
(420,240,o),
(420,189,cs),
(420,119,o),
(332,84,o),
(261,84,cs),
(160,84,o),
(82,136,o),
(82,225,cs),
(82,310,o),
(146,372,o),
(260,372,c),
(265,379,o),
(270,426,o),
(270,451,cs),
(270,457,o),
(270,463,o),
(269,466,c),
(159,465,o),
(44,373,o),
(44,203,cs),
(44,74,o),
(127,-9,o),
(257,-9,cs)
);
},
{
closed = 1;
nodes = (
(321,177,o),
(328,177,o),
(336,178,c),
(334,186,o),
(333,199,o),
(333,206,cs),
(333,318,o),
(407,411,o),
(535,411,cs),
(615,411,o),
(654,389,o),
(686,359,c),
(715,398,l),
(672,446,o),
(625,473,o),
(545,473,cs),
(393,473,o),
(303,348,o),
(298,178,c),
(303,177,o),
(308,177,o),
(313,177,cs)
);
}
);
width = 1037;
}
);
},
{
glyphname = sinDVa;
layers = (
{
layerId = "51BB9282-3B82-4DF1-A67A-294D3E37D73A";
shapes = (
{
closed = 1;
nodes = (
(116,51,o),
(132,53,o),
(140,58,c),
(128,84,o),
(97,160,o),
(97,230,cs),
(97,312,o),
(137,407,o),
(237,415,c),
(275,455,l),
(136,455,o),
(44,349,o),
(44,233,cs),
(44,139,o),
(84,78,o),
(105,51,c)
);
},
{
pos = (86,11);
ref = sinVa;
}
);
width = 712;
}
);
metricRight = sinVa;
},
{
glyphname = sinDDha;
layers = (
{
anchors = (
{
name = bottom;
pos = (761,182);
}
);
layerId = "51BB9282-3B82-4DF1-A67A-294D3E37D73A";
shapes = (
{
closed = 1;
nodes = (
(734,-16,o),
(789,122,o),
(789,279,cs),
(789,480,o),
(676,624,o),
(455,624,cs),
(351,624,o),
(286,602,o),
(254,578,c),
(244,563,o),
(239,540,o),
(239,521,cs),
(239,513,o),
(240,505,o),
(242,500,c),
(275,521,o),
(329,549,o),
(450,549,cs),
(589,549,o),
(741,494,o),
(741,297,cs),
(741,158,o),
(692,68,o),
(607,68,cs),
(564,68,o),
(511,83,o),
(511,156,c),
(512,166,l),
(492,161,l),
(474,114,o),
(443,73,o),
(371,73,cs),
(297,73,o),
(237,117,o),
(237,201,cs),
(237,274,o),
(283,335,o),
(407,335,cs),
(431,335,o),
(458,332,o),
(487,326,c),
(498,339,l),
(498,362,o),
(498,369,o),
(488,389,c),
(477,390,o),
(464,391,o),
(450,391,cs),
(305,391,o),
(197,323,o),
(197,181,cs),
(197,53,o),
(274,-15,o),
(366,-15,cs),
(455,-15,o),
(493,51,o),
(498,87,c),
(490,111,l),
(489,104,o),
(488,98,o),
(488,89,cs),
(488,31,o),
(539,-16,o),
(618,-16,cs)
);
},
{
closed = 1;
nodes = (
(139,-22,o),
(151,-18,o),
(155,-15,c),
(131,13,o),
(117,66,o),
(117,127,cs),
(117,241,o),
(147,346,o),
(319,346,cs),
(335,346,o),
(350,345,o),
(367,342,c),
(349,331,l),
(471,380,l),
(468,390,l),
(450,393,o),
(377,398,o),
(342,398,cs),
(139,398,o),
(50,290,o),
(50,144,cs),
(50,70,o),
(89,11,o),
(120,-22,c)
);
}
);
width = 819;
}
);
},
{
glyphname = sinTtTtha;
layers = (
{
layerId = "51BB9282-3B82-4DF1-A67A-294D3E37D73A";
shapes = (
{
closed = 1;
nodes = (
(704,-18,o),
(767,123,o),
(767,265,cs),
(767,533,o),
(537,659,o),
(371,659,c),
(360,587,l),
(528,587,o),
(722,458,o),
(722,270,cs),
(722,165,o),
(662,83,o),
(578,83,cs),
(527,83,o),
(484,113,o),
(484,167,cs),
(484,173,o),
(484,178,o),
(485,185,c),
(464,179,l),
(446,119,o),
(401,81,o),
(337,81,cs),
(278,81,o),
(228,113,o),
(228,176,cs),
(228,253,o),
(303,309,o),
(392,309,cs),
(414,309,o),
(436,307,o),
(459,303,c),
(469,315,l),
(466,341,o),
(451,357,o),
(441,368,c),
(341,372,o),
(188,309,o),
(188,157,cs),
(188,66,o),
(242,-15,o),
(332,-15,cs),
(417,-15,o),
(467,57,o),
(472,107,c),
(473,107,o),
(454,112,o),
(455,114,c),
(456,72,o),
(475,-18,o),
(578,-18,cs)
);
},
{
closed = 1;
nodes = (
(152,10,o),
(165,14,o),
(169,17,c),
(145,46,o),
(130,99,o),
(130,156,cs),
(130,270,o),
(212,347,o),
(316,347,cs),
(332,347,o),
(337,346,o),
(354,343,c),
(442,359,l),
(440,369,l),
(438,369,o),
(403,387,o),
(333,387,cs),
(189,387,o),
(69,312,o),
(69,173,cs),
(69,102,o),
(101,44,o),
(133,10,c)
);
},
{
closed = 1;
nodes = (
(554,431,o),
(620,449,o),
(646,468,c),
(630,494,l),
(609,486,o),
(580,479,o),
(538,479,cs),
(408,479,o),
(381,543,o),
(371,659,c),
(340,641,l),
(337,621,o),
(335,600,o),
(335,581,cs),
(335,494,o),
(380,431,o),
(494,431,cs)
);
}
);
width = 789;
}
);
},
{
category = Mark;
glyphname = sinMatraAa;
layers = (
{
layerId = "51BB9282-3B82-4DF1-A67A-294D3E37D73A";
shapes = (
{
closed = 1;
nodes = (
(236,-10,o),
(273,128,o),
(273,228,cs),
(273,371,o),
(199,435,o),
(134,435,cs),
(79,435,o),
(51,407,o),
(29,386,c),
(26,376,o),
(25,364,o),
(25,355,cs),
(25,349,o),
(25,343,o),
(26,338,c),
(47,350,o),
(77,360,o),
(104,360,cs),
(186,360,o),
(232,319,o),
(237,252,cs),
(239,244,o),
(239,237,o),
(239,231,cs),
(239,129,o),
(181,67,o),
(99,67,cs),
(69,67,o),
(31,77,o),
(12,83,c),
(4,69,o),
(1,55,o),
(1,35,c),
(4,19,o),
(54,-10,o),
(107,-10,cs)
);
}
);
width = 307;
}
);
script = sinhala;
subCategory = Spacing;
unicode = 3535;
},
{
category = Mark;
glyphname = sinMatraAae;
layers = (
{
layerId = "51BB9282-3B82-4DF1-A67A-294D3E37D73A";
shapes = (
{
closed = 1;
nodes = (
(294,-133,o),
(341,-80,o),
(356,-53,c),
(358,-44,o),
(349,-19,o),
(343,-16,c),
(318,-39,o),
(271,-58,o),
(226,-58,cs),
(172,-58,o),
(126,-23,o),
(126,49,cs),
(126,114,o),
(164,155,o),
(230,170,c),
(236,175,l),
(206,221,l),
(193,219,o),
(198,225,o),
(195,215,cs),
(194,212,o),
(192,214,o),
(188,212,c),
(124,173,o),
(83,120,o),
(83,29,cs),
(83,-66,o),
(135,-133,o),
(221,-133,cs)
);
},
{
closed = 1;
nodes = (
(239,184,o),
(243,207,o),
(241,218,c),
(223,222,o),
(179,223,o),
(136,231,c),
(213,275,l),
(216,287,o),
(219,306,o),
(219,321,cs),
(219,327,o),
(219,332,o),
(217,336,c),
(156,338,o),
(89,339,o),
(23,342,c),
(19,337,o),
(17,324,o),
(17,310,cs),
(17,300,o),
(18,291,o),
(21,285,c),
(168,299,l),
(130,281,o),
(77,251,o),
(42,238,c),
(42,229,o),
(41,219,o),
(44,209,c),
(79,206,o),
(132,198,o),
(158,192,cs),
(236,175,l)
);
}
);
width = 371;
}
);
metricLeft = tt;
script = sinhala;
subCategory = Spacing;
unicode = 3537;
},
{
category = Mark;
glyphname = sinMatraAe;
layers = (
{
layerId = "51BB9282-3B82-4DF1-A67A-294D3E37D73A";
shapes = (
{
closed = 1;
nodes = (
(315,-132,o),
(359,-78,o),
(374,-51,c),
(373,-34,o),
(369,-23,o),
(362,-16,c),
(344,-33,o),
(297,-60,o),
(243,-60,cs),
(172,-60,o),
(129,-14,o),
(129,73,cs),
(129,164,o),
(164,243,o),
(247,280,c),
(252,294,o),
(257,297,o),
(257,318,cs),
(257,329,o),
(256,338,o),
(253,346,c),
(225,345,o),
(64,340,o),
(24,338,c),
(20,327,o),
(18,320,o),
(18,305,cs),
(18,293,o),
(19,281,o),
(21,273,c),
(152,280,l),
(113,219,o),
(83,152,o),
(83,42,cs),
(83,-63,o),
(133,-132,o),
(235,-132,cs)
);
}
);
width = 369;
}
);
script = sinhala;
subCategory = Spacing;
unicode = 3536;
},
{
category = Mark;
glyphname = sinMatraAi;
layers = (
{
layerId = "51BB9282-3B82-4DF1-A67A-294D3E37D73A";
shapes = (
{
closed = 1;
nodes = (
(388,-24,o),
(461,73,o),
(461,169,cs),
(461,269,o),
(398,325,o),
(319,325,cs),
(260,325,o),
(198,284,o),
(198,212,cs),
(198,170,o),
(226,135,o),
(272,135,cs),
(325,135,o),
(353,173,o),
(353,216,cs),
(353,253,o),
(330,276,o),
(324,283,c),
(293,280,l),
(299,277,o),
(320,261,o),
(320,229,cs),
(320,206,o),
(309,187,o),
(274,187,cs),
(247,187,o),
(232,201,o),
(232,220,cs),
(232,245,o),
(261,268,o),
(307,268,cs),
(354,268,o),
(422,255,o),
(422,182,cs),
(422,108,o),
(330,55,o),
(244,55,cs),
(159,55,o),
(73,106,o),
(73,212,cs),
(73,329,o),
(184,398,o),
(299,398,cs),
(435,398,o),
(499,343,o),
(499,343,c),
(510,360,o),
(521,376,o),
(519,402,c),
(519,402,o),
(463,459,o),
(311,459,cs),
(173,459,o),
(32,361,o),
(32,190,cs),
(32,74,o),
(105,-24,o),
(243,-24,cs)
);
},
{
pos = (482,0);
ref = sinMatraE;
}
);
width = 970;
}
);
metricLeft = "=sinMatraE";
metricRight = "=sinMatraE";
script = sinhala;
subCategory = Spacing;
unicode = 3547;
},
{
category = Mark;
glyphname = sinMatraE;
layers = (
{
layerId = "51BB9282-3B82-4DF1-A67A-294D3E37D73A";
shapes = (
{
closed = 1;
nodes = (
(397,-16,o),
(460,89,o),
(460,173,cs),
(460,281,o),
(379,326,o),
(310,326,cs),
(244,326,o),
(188,288,o),
(188,224,cs),
(188,167,o),
(229,139,o),
(276,139,cs),
(325,139,o),
(353,177,o),
(353,219,cs),
(353,254,o),
(324,281,o),
(310,288,c),
(285,282,l),
(300,279,o),
(319,262,o),
(319,232,cs),
(319,209,o),
(299,191,o),
(266,191,cs),
(240,191,o),
(215,206,o),
(215,229,cs),
(215,259,o),
(248,273,o),
(291,273,cs),
(338,273,o),
(421,256,o),
(421,181,cs),
(421,115,o),
(358,60,o),
(252,60,cs),
(150,60,o),
(73,121,o),
(73,215,cs),
(73,329,o),
(174,392,o),
(291,392,cs),
(377,392,o),
(438,362,o),
(446,358,c),
(455,375,o),
(466,404,o),
(466,423,c),
(459,428,o),
(404,459,o),
(302,459,cs),
(155,459,o),
(32,358,o),
(32,209,cs),
(32,80,o),
(120,-16,o),
(253,-16,cs)
);
}
);
width = 488;
}
);
script = sinhala;
subCategory = Spacing;
unicode = 3545;
},
{
glyphname = sinMatraI;
layers = (
{
layerId = "51BB9282-3B82-4DF1-A67A-294D3E37D73A";
shapes = (
{
closed = 1;
nodes = (
(192,427,o),
(228,465,o),
(228,514,cs),
(228,607,o),
(106,635,o),
(19,635,cs),
(-99,635,o),
(-216,596,o),
(-216,502,cs),
(-216,459,o),
(-186,432,o),
(-141,419,c),
(-126,447,l),
(-141,455,o),
(-167,463,o),
(-167,493,cs),
(-167,552,o),
(-92,557,o),
(-19,557,cs),
(88,557,o),
(179,554,o),
(179,486,cs),
(179,464,o),
(166,450,o),
(151,438,c),
(164,417,l)
);
}
);
width = 0;
}
);
unicode = 3538;
},
{
glyphname = sinMatraIi;
layers = (
{
layerId = "51BB9282-3B82-4DF1-A67A-294D3E37D73A";
shapes = (
{
closed = 1;
nodes = (
(181,385,o),
(219,412,o),
(219,479,cs),
(219,556,o),
(135,640,o),
(-30,640,cs),
(-147,640,o),
(-223,588,o),
(-223,498,cs),
(-223,431,o),
(-173,391,o),
(-146,391,c),
(-138,389,o),
(-131,388,o),
(-125,388,cs),
(-101,388,o),
(-89,402,o),
(-87,410,c),
(-105,419,o),
(-187,446,o),
(-187,492,cs),
(-187,556,o),
(-114,566,o),
(-15,566,cs),
(56,566,o),
(179,550,o),
(179,488,cs),
(179,457,o),
(157,419,o),
(138,419,cs),
(114,419,o),
(102,447,o),
(102,469,cs),
(102,498,o),
(111,531,o),
(158,542,c),
(136,560,l),
(120,558,o),
(52,526,o),
(52,465,cs),
(52,411,o),
(86,385,o),
(137,385,cs)
);
}
);
width = 0;
}
);
unicode = 3539;
},
{
category = Mark;
glyphname = sinMatraLl;
layers = (
{
layerId = "51BB9282-3B82-4DF1-A67A-294D3E37D73A";
shapes = (
{
closed = 1;
nodes = (
(379,-16,o),
(412,136,o),
(412,272,cs),
(412,410,o),
(364,457,o),
(291,457,cs),
(215,457,o),
(151,384,o),
(152,247,c),
(157,246,o),
(161,245,o),
(166,245,cs),
(172,245,o),
(176,246,o),
(186,247,c),
(185,256,o),
(185,267,o),
(185,275,cs),
(185,336,o),
(206,384,o),
(274,384,cs),
(346,384,o),
(377,343,o),
(377,259,cs),
(377,212,o),
(372,41,o),
(219,41,cs),
(170,41,o),
(155,86,o),
(142,106,c),
(100,116,o),
(59,106,o),
(58,61,cs),
(57,0,o),
(141,-16,o),
(205,-16,cs)
);
},
{
closed = 1;
nodes = (
(250,135,o),
(278,198,o),
(278,255,cs),
(278,323,o),
(219,344,o),
(186,343,c),
(182,299,l),
(217,300,o),
(252,287,o),
(252,252,cs),
(252,220,o),
(224,200,o),
(176,200,cs),
(142,200,o),
(80,207,o),
(80,295,cs),
(80,363,o),
(137,428,o),
(150,441,c),
(142,450,o),
(124,456,o),
(109,456,cs),
(104,456,o),
(100,456,o),
(97,455,c),
(73,422,o),
(52,365,o),
(52,292,cs),
(52,222,o),
(81,135,o),
(174,135,cs)
);
}
);
width = 447;
}
);
script = sinhala;
subCategory = Spacing;
unicode = 3571;
},
{
category = Mark;
glyphname = sinMatraLs;
layers = (
{
layerId = "51BB9282-3B82-4DF1-A67A-294D3E37D73A";
shapes = (
{
closed = 1;
nodes = (
(369,-16,o),
(412,136,o),
(412,282,cs),
(412,410,o),
(364,457,o),
(291,457,cs),
(215,457,o),
(151,384,o),
(152,247,c),
(157,246,o),
(161,245,o),
(166,245,cs),
(172,245,o),
(176,246,o),
(186,247,c),
(185,256,o),
(185,267,o),
(185,275,cs),
(185,336,o),
(206,384,o),
(274,384,cs),
(346,384,o),
(377,343,o),
(377,269,cs),
(377,212,o),
(361,59,o),
(219,59,cs),
(170,59,o),
(118,73,o),
(83,101,c),
(74,98,o),
(60,82,o),
(57,71,c),
(82,22,o),
(152,-16,o),
(215,-16,cs)
);
},
{
closed = 1;
nodes = (
(250,135,o),
(278,198,o),
(278,255,cs),
(278,323,o),
(219,344,o),
(186,343,c),
(182,299,l),
(217,300,o),
(252,287,o),
(252,252,cs),
(252,220,o),
(224,200,o),
(176,200,cs),
(142,200,o),
(80,207,o),
(80,295,cs),
(80,363,o),
(137,428,o),
(150,441,c),
(142,450,o),
(124,456,o),
(109,456,cs),
(104,456,o),
(100,456,o),
(97,455,c),
(73,422,o),
(52,365,o),
(52,292,cs),
(52,222,o),
(81,135,o),
(174,135,cs)
);
}
);
width = 469;
}
);
script = sinhala;
subCategory = Spacing;
unicode = 3551;
},
{
category = Mark;
glyphname = sinMatraR;
layers = (
{
layerId = "51BB9282-3B82-4DF1-A67A-294D3E37D73A";
shapes = (
{
closed = 1;
nodes = (
(277,-15,o),
(304,112,o),
(304,210,cs),
(304,355,o),
(229,420,o),
(164,420,cs),
(109,420,o),
(71,391,o),
(48,370,c),
(47,366,o),
(46,360,o),
(46,354,cs),
(46,343,o),
(49,329,o),
(56,322,c),
(77,335,o),
(107,352,o),
(145,352,cs),
(222,352,o),
(264,297,o),
(264,231,cs),
(264,125,o),
(207,35,o),
(141,35,cs),
(107,35,o),
(90,53,o),
(90,91,cs),
(90,155,o),
(121,195,o),
(175,195,cs),
(215,195,o),
(243,180,o),
(271,157,c),
(275,223,l),
(257,231,o),
(227,234,o),
(197,234,cs),
(99,234,o),
(25,165,o),
(25,91,cs),
(25,9,o),
(102,-15,o),
(142,-15,cs)
);
}
);
width = 332;
}
);
script = sinhala;
subCategory = Spacing;
unicode = 3544;
},
{
glyphname = sinMatraU;
layers = (
{
layerId = "51BB9282-3B82-4DF1-A67A-294D3E37D73A";
shapes = (
{
closed = 1;
nodes = (
(46,-215,l),
(38,219,l),
(7,217,l),
(-12,-140,l),
(-117,-154,o),
(-204,-168,o),
(-299,-166,cs),
(-353,-165,o),
(-376,-115,o),
(-376,-86,c),
(-379,-85,o),
(-382,-85,o),
(-385,-85,cs),
(-409,-85,o),
(-443,-100,o),
(-453,-111,c),
(-445,-154,o),
(-403,-215,o),
(-297,-215,cs)
);
}
);
width = 0;
}
);
unicode = 3540;
},
{
glyphname = sinMatraUu;
layers = (
{
anchors = (
{
name = _bottom;
pos = (36,226);
}
);
layerId = "51BB9282-3B82-4DF1-A67A-294D3E37D73A";
shapes = (
{
closed = 1;
nodes = (
(36,-211,l),
(40,244,l),
(2,222,l),
(-20,-173,l),
(12,-181,l),
(-12,-149,o),
(-67,-93,o),
(-136,-93,cs),
(-231,-93,o),
(-279,-171,o),
(-333,-171,cs),
(-367,-171,o),
(-401,-149,o),
(-401,-100,c),
(-412,-95,o),
(-427,-94,o),
(-442,-98,cs),
(-453,-100,o),
(-465,-106,o),
(-474,-115,c),
(-474,-157,o),
(-441,-220,o),
(-341,-220,cs),
(-263,-220,o),
(-240,-172,o),
(-151,-172,cs),
(-95,-172,o),
(-29,-201,o),
(13,-225,c)
);
}
);
width = 0;
}
);
unicode = 3542;
},
{
glyphname = sinVirama;
layers = (
{
anchors = (
{
name = _virama;
pos = (13,367);
}
);
layerId = "51BB9282-3B82-4DF1-A67A-294D3E37D73A";
shapes = (
{
closed = 1;
nodes = (
(14,368,l),
(9,509,l),
(18,489,o),
(44,465,o),
(79,465,cs),
(125,465,o),
(144,501,o),
(144,545,cs),
(144,656,o),
(20,689,o),
(-7,694,c),
(-24,684,l),
(-27,368,l)
);
},
{
closed = 1;
nodes = (
(41,529,o),
(9,556,o),
(9,598,cs),
(9,621,l),
(46,617,o),
(109,601,o),
(109,558,cs),
(109,536,o),
(93,529,o),
(75,529,cs)
);
}
);
width = 1;
}
);
unicode = 3530;
},
{
category = Mark;
glyphname = sinRakar;
layers = (
{
layerId = "51BB9282-3B82-4DF1-A67A-294D3E37D73A";
shapes = (
{
closed = 1;
nodes = (
(-34,-261,o),
(44,40,o),
(21,295,c),
(-25,274,l),
(-16,70,o),
(-67,-164,o),
(-289,-174,cs),
(-300,-174,o),
(-310,-175,o),
(-320,-175,cs),
(-475,-175,o),
(-510,-116,o),
(-510,-116,c),
(-534,-141,l),
(-530,-162,o),
(-448,-261,o),
(-295,-261,cs)
);
}
);
width = 0;
}
);
script = sinhala;
subCategory = Spacing;
},
{
glyphname = sinReph;
layers = (
{
anchors = (
{
name = _reph;
pos = (-333,469);
}
);
layerId = "51BB9282-3B82-4DF1-A67A-294D3E37D73A";
shapes = (
{
closed = 1;
nodes = (
(-224,425,o),
(-163,465,o),
(-163,548,cs),
(-163,636,o),
(-232,700,o),
(-327,700,cs),
(-426,700,o),
(-482,628,o),
(-482,553,cs),
(-482,497,o),
(-444,452,o),
(-385,452,cs),
(-335,452,o),
(-309,486,o),
(-309,523,cs),
(-309,568,o),
(-342,601,o),
(-381,601,cs),
(-426,601,o),
(-446,561,o),
(-456,551,c),
(-447,537,l),
(-431,547,o),
(-417,557,o),
(-384,557,cs),
(-360,557,o),
(-335,546,o),
(-335,525,cs),
(-335,500,o),
(-361,494,o),
(-381,494,cs),
(-419,494,o),
(-440,520,o),
(-440,564,cs),
(-440,615,o),
(-379,636,o),
(-327,636,cs),
(-293,636,o),
(-196,621,o),
(-196,546,cs),
(-196,494,o),
(-220,466,o),
(-295,452,c),
(-289,417,l)
);
}
);
width = 0;
}
);
},
{
category = Mark;
glyphname = sinYansaya;
layers = (
{
anchors = (
{
name = reph;
pos = (334,492);
}
);
layerId = "51BB9282-3B82-4DF1-A67A-294D3E37D73A";
shapes = (
{
closed = 1;
nodes = (
(468,-13,o),
(546,82,o),
(546,180,cs),
(546,295,o),
(463,352,o),
(377,352,cs),
(371,352,o),
(364,352,o),
(358,351,c),
(358,351,o),
(348,435,o),
(418,435,cs),
(457,435,o),
(483,412,o),
(483,379,cs),
(483,345,o),
(456,324,o),
(456,324,c),
(461,306,l),
(461,306,o),
(545,320,o),
(545,398,cs),
(545,453,o),
(499,492,o),
(445,492,cs),
(371,492,o),
(291,439,o),
(301,304,c),
(317,290,l),
(428,291,o),
(504,255,o),
(504,184,cs),
(504,114,o),
(427,64,o),
(309,64,cs),
(225,64,o),
(177,85,o),
(148,105,c),
(114,75,l),
(150,38,o),
(199,-13,o),
(313,-13,cs)
);
},
{
closed = 1;
nodes = (
(157,65,o),
(249,185,o),
(249,323,cs),
(249,402,o),
(219,484,o),
(129,484,cs),
(62,484,o),
(18,429,o),
(17,405,c),
(22,394,o),
(33,385,o),
(42,378,c),
(61,403,o),
(95,414,o),
(117,414,cs),
(145,414,o),
(209,407,o),
(209,327,cs),
(209,183,o),
(79,86,o),
(10,48,c),
(12,28,o),
(19,8,o),
(34,-12,c)
);
}
);
width = 600;
}
);
script = sinhala;
subCategory = Spacing;
},
{
category = Mark;
glyphname = sinAnusvara;
layers = (
{
layerId = "51BB9282-3B82-4DF1-A67A-294D3E37D73A";
shapes = (
{
closed = 1;
nodes = (
(362,54,o),
(408,156,o),
(408,250,cs),
(408,334,o),
(348,418,o),
(232,418,cs),
(140,418,o),
(59,345,o),
(59,230,cs),
(59,132,o),
(122,54,o),
(239,54,cs)
);
},
{
closed = 1;
nodes = (
(173,129,o),
(99,156,o),
(99,233,cs),
(99,304,o),
(158,343,o),
(234,343,cs),
(306,343,o),
(368,310,o),
(368,236,cs),
(368,180,o),
(318,129,o),
(239,129,cs)
);
}
);
width = 453;
}
);
script = sinhala;
subCategory = Spacing;
unicode = 3458;
},
{
category = Mark;
glyphname = sinVisarga;
layers = (
{
layerId = "51BB9282-3B82-4DF1-A67A-294D3E37D73A";
shapes = (
{
closed = 1;
nodes = (
(209,258,o),
(243,311,o),
(243,365,cs),
(243,413,o),
(202,455,o),
(140,455,cs),
(91,455,o),
(42,425,o),
(42,357,cs),
(42,302,o),
(80,258,o),
(138,258,cs)
);
},
{
closed = 1;
nodes = (
(197,2,o),
(237,50,o),
(237,110,cs),
(237,162,o),
(206,200,o),
(145,200,cs),
(90,200,o),
(39,161,o),
(39,88,cs),
(39,42,o),
(70,2,o),
(129,2,cs)
);
},
{
closed = 1;
nodes = (
(98,44,o),
(80,65,o),
(80,90,cs),
(80,135,o),
(112,157,o),
(144,157,cs),
(175,157,o),
(192,139,o),
(192,112,cs),
(192,80,o),
(170,44,o),
(129,44,cs)
);
},
{
closed = 1;
nodes = (
(98,300,o),
(80,318,o),
(80,344,cs),
(80,393,o),
(119,420,o),
(153,420,cs),
(182,420,o),
(197,401,o),
(197,375,cs),
(197,339,o),
(173,300,o),
(125,300,cs)
);
}
);
width = 276;
}
);
script = sinhala;
subCategory = Spacing;
unicode = 3459;
},
{
category = Mark;
glyphname = sinMatraAa.virama;
layers = (
{
layerId = "51BB9282-3B82-4DF1-A67A-294D3E37D73A";
shapes = (
{
closed = 1;
nodes = (
(247,-10,o),
(284,120,o),
(284,218,cs),
(284,368,o),
(207,435,o),
(141,435,cs),
(87,435,o),
(59,407,o),
(37,386,c),
(35,377,o),
(34,367,o),
(34,358,cs),
(34,351,o),
(35,344,o),
(36,338,c),
(57,350,o),
(85,360,o),
(113,360,cs),
(194,360,o),
(242,319,o),
(248,252,cs),
(249,242,o),
(249,234,o),
(249,225,cs),
(249,127,o),
(193,67,o),
(113,67,cs),
(83,67,o),
(45,77,o),
(25,83,c),
(18,69,o),
(15,55,o),
(15,35,c),
(19,19,o),
(69,-10,o),
(123,-10,cs)
);
},
{
closed = 1;
nodes = (
(165,408,l),
(162,538,l),
(172,518,o),
(194,499,o),
(226,499,cs),
(277,499,o),
(297,539,o),
(297,583,cs),
(297,591,o),
(296,600,o),
(295,608,cs),
(280,696,o),
(168,725,o),
(144,729,c),
(132,719,l),
(131,408,l)
);
},
{
closed = 1;
nodes = (
(229,570,o),
(226,570,o),
(222,571,cs),
(187,578,o),
(161,598,o),
(161,627,cs),
(161,661,l),
(197,657,o),
(262,644,o),
(262,600,cs),
(262,579,o),
(247,570,o),
(232,570,cs)
);
}
);
width = 315;
}
);
script = sinhala;
subCategory = Spacing;
},
{
glyphname = sinKh.virama;
layers = (
{
layerId = "51BB9282-3B82-4DF1-A67A-294D3E37D73A";
shapes = (
{
closed = 1;
nodes = (
(624,516,o),
(577,752,o),
(305,752,cs),
(199,752,o),
(145,722,o),
(145,722,c),
(131,697,o),
(128,671,o),
(127,659,c),
(150,671,o),
(161,675,o),
(189,681,c),
(211,712,l),
(197,701,o),
(180,660,o),
(148,588,c),
(190,583,l),
(208,635,o),
(232,694,o),
(277,699,c),
(244,700,o),
(221,701,o),
(193,681,c),
(193,681,o),
(207,691,o),
(283,691,cs),
(576,691,o),
(577,481,o),
(575,431,c),
(624,379,l)
);
},
{
ref = sinKha;
}
);
userData = {
com.typemytype.robofont.layerData = {
background = {
anchors = (
);
components = (
);
contours = (
{
points = (
{
smooth = 0;
x = 186;
y = 52;
},
{
smooth = 0;
x = 97;
y = 87;
},
{
segmentType = curve;
smooth = 1;
x = 100.01;
y = 211;
},
{
smooth = 0;
x = 103.35;
y = 351.131;
},
{
smooth = 0;
x = 210;
y = 417;
},
{
segmentType = curve;
smooth = 1;
x = 298;
y = 417;
},
{
smooth = 0;
x = 408;
y = 417;
},
{
smooth = 0;
x = 436.537;
y = 329.068;
},
{
segmentType = curve;
smooth = 1;
x = 438;
y = 260;
},
{
smooth = 0;
x = 440.038;
y = 163.812;
},
{
smooth = 0;
x = 399.917;
y = 59.615;
},
{
segmentType = curve;
smooth = 0;
x = 352;
y = -22;
},
{
segmentType = line;
smooth = 0;
x = 399;
y = -30;
},
{
smooth = 0;
x = 430.332;
y = 22.643;
},
{
smooth = 0;
x = 442.143;
y = 31.75;
},
{
segmentType = curve;
smooth = 0;
x = 450;
y = 64;
},
{
segmentType = line;
smooth = 0;
x = 407;
y = 34;
},
{
smooth = 0;
x = 432.083;
y = 12.39;
},
{
smooth = 0;
x = 464.591;
y = -12.158;
},
{
segmentType = curve;
smooth = 1;
x = 540.323;
y = -12;
},
{
smooth = 0;
x = 699.758;
y = -11.667;
},
{
smooth = 0;
x = 788.701;
y = 149.408;
},
{
segmentType = curve;
smooth = 1;
x = 797.557;
y = 355;
},
{
smooth = 0;
x = 809.175;
y = 624.744;
},
{
smooth = 0;
x = 623.938;
y = 778;
},
{
segmentType = curve;
smooth = 1;
x = 410.725;
y = 778;
},
{
smooth = 0;
x = 318.725;
y = 778;
},
{
smooth = 0;
x = 248.468;
y = 754;
},
{
segmentType = curve;
smooth = 0;
x = 204;
y = 726;
},
{
smooth = 0;
x = 185.141;
y = 696.402;
},
{
smooth = 0;
x = 171.547;
y = 635.165;
},
{
segmentType = curve;
smooth = 1;
x = 183.812;
y = 627;
},
{
smooth = 0;
x = 185.466;
y = 625.899;
},
{
smooth = 0;
x = 272.818;
y = 688;
},
{
segmentType = curve;
smooth = 1;
x = 399.009;
y = 688;
},
{
smooth = 0;
x = 614.735;
y = 688;
},
{
smooth = 0;
x = 742.913;
y = 576.689;
},
{
segmentType = curve;
smooth = 1;
x = 737.447;
y = 372;
},
{
smooth = 0;
x = 734.193;
y = 251.824;
},
{
smooth = 0;
x = 671.062;
y = 84.498;
},
{
segmentType = curve;
smooth = 1;
x = 535.402;
y = 84;
},
{
smooth = 0;
x = 471.95;
y = 83.58;
},
{
smooth = 0;
x = 463.83;
y = 115.825;
},
{
segmentType = curve;
smooth = 0;
x = 453;
y = 122;
},
{
segmentType = line;
smooth = 1;
x = 465.014;
y = 92;
},
{
smooth = 0;
x = 488.145;
y = 125.419;
},
{
smooth = 0;
x = 521.133;
y = 216.217;
},
{
segmentType = curve;
smooth = 1;
x = 525;
y = 287;
},
{
smooth = 0;
x = 530.284;
y = 383.709;
},
{
smooth = 0;
x = 482;
y = 498;
},
{
segmentType = curve;
smooth = 1;
x = 341;
y = 496;
},
{
smooth = 0;
x = 186;
y = 494;
},
{
smooth = 0;
x = 69;
y = 378;
},
{
segmentType = curve;
smooth = 1;
x = 55.434;
y = 200;
},
{
smooth = 0;
x = 48;
y = 100;
},
{
smooth = 0;
x = 87.009;
y = -18;
},
{
segmentType = curve;
smooth = 1;
x = 196;
y = -18;
},
{
smooth = 0;
x = 291.009;
y = -18;
},
{
smooth = 0;
x = 334.438;
y = 35.152;
},
{
segmentType = curve;
smooth = 1;
x = 340.455;
y = 105;
},
{
smooth = 0;
x = 345.28;
y = 161.003;
},
{
smooth = 0;
x = 312.829;
y = 206.727;
},
{
segmentType = curve;
smooth = 1;
x = 262.8;
y = 207;
},
{
smooth = 0;
x = 177.373;
y = 207.467;
},
{
smooth = 0;
x = 135.739;
y = 118.241;
},
{
segmentType = curve;
smooth = 0;
x = 168.677;
y = 52;
},
{
segmentType = line;
smooth = 0;
x = 167;
y = 9;
},
{
smooth = 0;
x = 163.615;
y = 9.513;
},
{
smooth = 0;
x = 243.66;
y = -2;
},
{
segmentType = curve;
smooth = 0;
x = 213;
y = 29;
},
{
smooth = 0;
x = 194.345;
y = 36.169;
},
{
smooth = 0;
x = 194;
y = 78;
},
{
segmentType = curve;
smooth = 1;
x = 196;
y = 99;
},
{
smooth = 0;
x = 198;
y = 130;
},
{
smooth = 0;
x = 226.547;
y = 154;
},
{
segmentType = curve;
smooth = 1;
x = 252.547;
y = 154;
},
{
smooth = 0;
x = 276.547;
y = 154;
},
{
smooth = 0;
x = 300.918;
y = 142;
},
{
segmentType = curve;
smooth = 1;
x = 298.188;
y = 109;
},
{
smooth = 0;
x = 295.955;
y = 81.994;
},
{
smooth = 0;
x = 269.053;
y = 54.902;
},
{
segmentType = curve;
smooth = 1;
x = 219.044;
y = 53;
}
);
}
);
lib = {
};
name = sinKh.virama;
unicodes = (
);
width = 863;
};
};
};
width = 682;
}
);
metricRight = sinKha;
},
{
glyphname = sinNg.virama;
layers = (
{
layerId = "51BB9282-3B82-4DF1-A67A-294D3E37D73A";
shapes = (
{
closed = 1;
nodes = (
(613,534,o),
(576,749,o),
(304,749,cs),
(208,749,o),
(133,713,o),
(133,713,c),
(119,687,o),
(116,661,o),
(115,650,c),
(138,666,o),
(170,668,o),
(197,678,c),
(220,710,l),
(206,700,o),
(169,663,o),
(136,591,c),
(178,586,l),
(196,637,o),
(242,693,o),
(275,698,c),
(253,699,o),
(230,700,o),
(202,678,c),
(202,678,o),
(216,689,o),
(282,689,cs),
(576,689,o),
(575,500,o),
(573,450,c),
(613,385,l)
);
},
{
ref = sinNga;
}
);
width = 656;
}
);
},
{
glyphname = sinC.virama;
layers = (
{
layerId = "51BB9282-3B82-4DF1-A67A-294D3E37D73A";
shapes = (
{
closed = 1;
nodes = (
(623,534,o),
(587,749,o),
(315,749,cs),
(219,749,o),
(144,713,o),
(144,713,c),
(130,689,o),
(127,661,o),
(126,650,c),
(149,666,o),
(180,668,o),
(208,678,c),
(232,710,l),
(217,700,o),
(179,663,o),
(147,591,c),
(188,586,l),
(207,637,o),
(252,693,o),
(287,698,c),
(264,699,o),
(241,700,o),
(214,678,c),
(214,678,o),
(228,690,o),
(293,690,cs),
(587,690,o),
(586,500,o),
(583,450,c),
(623,385,l)
);
},
{
ref = sinCa;
}
);
width = 682;
}
);
metricLeft = sinCa;
metricRight = sinCa;
},
{
glyphname = sinCh.virama;
layers = (
{
anchors = (
{
name = _si_MaU;
pos = (592,205);
}
);
layerId = "51BB9282-3B82-4DF1-A67A-294D3E37D73A";
shapes = (
{
closed = 1;
nodes = (
(471,-20,o),
(592,74,o),
(592,202,cs),
(592,287,o),
(530,335,o),
(445,335,cs),
(424,335,o),
(409,337,o),
(397,337,cs),
(386,337,o),
(377,335,o),
(365,330,c),
(369,282,l),
(372,314,ls),
(372,361,o),
(387,417,o),
(461,417,cs),
(499,417,o),
(542,388,o),
(542,332,cs),
(542,278,o),
(509,210,o),
(447,210,cs),
(360,210,o),
(372,300,o),
(372,332,cs),
(372,438,o),
(438,507,o),
(481,556,cs),
(516,595,o),
(619,658,o),
(619,658,c),
(616,683,o),
(594,708,o),
(584,712,c),
(428,624,o),
(326,450,o),
(326,308,cs),
(326,185,o),
(391,163,o),
(435,163,cs),
(531,163,o),
(580,268,o),
(580,356,cs),
(580,420,o),
(538,475,o),
(479,475,cs),
(392,475,o),
(330,375,o),
(330,291,cs),
(330,282,o),
(330,275,o),
(331,268,c),
(347,260,l),
(380,271,o),
(416,284,o),
(453,284,cs),
(509,284,o),
(555,263,o),
(555,208,cs),
(555,133,o),
(457,66,o),
(317,66,cs),
(154,66,o),
(68,122,o),
(68,188,cs),
(68,242,o),
(130,272,o),
(219,272,cs),
(240,272,o),
(261,271,o),
(284,268,c),
(296,279,l),
(300,297,o),
(302,318,o),
(302,339,cs),
(302,405,o),
(276,475,o),
(179,475,cs),
(115,475,o),
(76,439,o),
(76,400,cs),
(76,360,o),
(104,347,o),
(131,345,c),
(139,377,o),
(171,421,o),
(214,421,cs),
(250,421,o),
(265,396,o),
(265,364,cs),
(265,330,o),
(244,308,o),
(233,299,c),
(271,331,l),
(260,332,o),
(248,333,o),
(237,333,cs),
(136,333,o),
(35,273,o),
(35,177,cs),
(35,82,o),
(109,-20,o),
(322,-20,cs)
);
},
{
closed = 1;
nodes = (
(361,303,l),
(361,596,l),
(369,576,o),
(392,557,o),
(424,557,cs),
(476,557,o),
(496,581,o),
(496,627,cs),
(496,732,o),
(372,766,o),
(344,771,c),
(333,759,l),
(326,303,l)
);
},
{
closed = 1;
nodes = (
(393,608,o),
(361,637,o),
(361,679,cs),
(361,703,l),
(398,699,o),
(462,684,o),
(462,641,cs),
(462,620,o),
(448,608,o),
(427,608,cs)
);
}
);
width = 605;
}
);
},
{
glyphname = sinJ.virama;
layers = (
{
layerId = "51BB9282-3B82-4DF1-A67A-294D3E37D73A";
shapes = (
{
closed = 1;
nodes = (
(364,306,l),
(364,620,l),
(373,599,o),
(396,579,o),
(430,579,cs),
(479,579,o),
(498,614,o),
(498,656,cs),
(498,763,o),
(388,797,o),
(348,802,c),
(337,791,l),
(330,306,l)
);
},
{
ref = sinJa;
},
{
closed = 1;
nodes = (
(398,643,o),
(368,669,o),
(368,701,cs),
(368,735,l),
(405,730,o),
(470,716,o),
(470,674,cs),
(470,652,o),
(450,643,o),
(431,643,cs)
);
}
);
width = 642;
}
);
},
{
glyphname = sinJh.virama;
layers = (
{
layerId = "51BB9282-3B82-4DF1-A67A-294D3E37D73A";
shapes = (
{
closed = 1;
nodes = (
(270,-6,o),
(307,23,o),
(323,65,c),
(336,19,o),
(373,-6,o),
(422,-6,cs),
(513,-6,o),
(555,100,o),
(555,176,cs),
(555,267,o),
(508,334,o),
(427,334,cs),
(337,334,o),
(234,265,o),
(197,225,c),
(230,250,l),
(233,260,o),
(280,295,o),
(295,306,cs),
(355,354,o),
(452,389,o),
(555,389,cs),
(691,389,o),
(739,358,o),
(774,333,c),
(801,378,l),
(761,411,o),
(696,455,o),
(567,455,cs),
(471,455,o),
(376,419,o),
(269,328,cs),
(120,201,o),
(42,121,o),
(23,101,c),
(19,79,o),
(40,65,o),
(46,64,c),
(52,101,o),
(174,183,o),
(215,208,cs),
(269,241,o),
(323,264,o),
(387,264,cs),
(463,264,o),
(522,232,o),
(522,165,cs),
(522,110,o),
(469,83,o),
(419,83,cs),
(374,83,o),
(345,123,o),
(345,176,cs),
(345,181,o),
(345,187,o),
(346,192,c),
(326,188,l),
(312,122,o),
(264,81,o),
(213,81,cs),
(159,81,o),
(147,127,o),
(102,127,cs),
(95,127,o),
(88,126,o),
(79,123,c),
(57,93,l),
(63,99,o),
(69,101,o),
(76,101,cs),
(89,101,o),
(102,93,o),
(109,83,cs),
(138,40,o),
(166,-6,o),
(224,-6,cs)
);
},
{
closed = 1;
nodes = (
(138,290,o),
(155,292,o),
(167,299,c),
(157,312,o),
(148,325,o),
(148,348,cs),
(148,404,o),
(178,441,o),
(216,441,cs),
(253,441,o),
(269,411,o),
(267,376,cs),
(267,344,o),
(254,320,o),
(239,303,c),
(263,311,l),
(279,328,o),
(317,371,o),
(317,413,cs),
(317,453,o),
(278,470,o),
(236,470,cs),
(152,470,o),
(75,413,o),
(75,339,cs),
(75,307,o),
(91,290,o),
(124,290,cs)
);
},
{
closed = 1;
nodes = (
(1038,-16,o),
(1092,122,o),
(1092,259,cs),
(1092,458,o),
(960,602,o),
(739,602,cs),
(686,602,o),
(630,592,o),
(599,578,c),
(590,563,o),
(584,539,o),
(584,521,cs),
(584,512,o),
(585,505,o),
(587,500,c),
(608,510,o),
(664,527,o),
(733,527,cs),
(883,527,o),
(1045,473,o),
(1045,276,cs),
(1045,158,o),
(995,68,o),
(911,68,cs),
(877,68,o),
(825,83,o),
(825,156,c),
(826,165,l),
(806,161,l),
(787,114,o),
(757,72,o),
(685,72,cs),
(611,72,o),
(561,117,o),
(561,180,cs),
(561,253,o),
(628,325,o),
(719,325,cs),
(745,325,o),
(772,322,o),
(799,315,c),
(812,329,l),
(812,352,o),
(809,365,o),
(801,378,c),
(790,379,o),
(778,380,o),
(764,380,cs),
(640,380,o),
(522,334,o),
(522,159,cs),
(522,53,o),
(589,-15,o),
(680,-15,cs),
(769,-15,o),
(808,51,o),
(813,87,c),
(803,110,l),
(802,104,o),
(801,98,o),
(801,89,cs),
(801,31,o),
(853,-16,o),
(921,-16,cs)
);
},
{
closed = 1;
nodes = (
(1072,503,o),
(1036,714,o),
(784,714,cs),
(700,714,o),
(625,680,o),
(625,680,c),
(611,655,o),
(607,629,o),
(606,618,c),
(629,634,o),
(660,642,o),
(688,647,c),
(717,678,l),
(682,668,o),
(629,603,o),
(629,550,c),
(658,533,l),
(658,590,o),
(732,661,o),
(767,666,c),
(693,648,l),
(693,648,o),
(708,657,o),
(773,657,cs),
(1004,657,o),
(1035,469,o),
(1034,419,c),
(1072,354,l)
);
}
);
width = 1089;
}
);
},
{
glyphname = sinNyj.virama;
layers = (
{
layerId = "51BB9282-3B82-4DF1-A67A-294D3E37D73A";
shapes = (
{
closed = 1;
nodes = (
(480,294,l),
(480,580,l),
(489,561,o),
(510,541,o),
(543,541,cs),
(596,541,o),
(615,583,o),
(615,628,cs),
(615,733,o),
(491,767,o),
(464,772,c),
(453,760,l),
(445,294,l)
);
},
{
ref = sinNyja;
},
{
closed = 1;
nodes = (
(511,609,o),
(480,638,o),
(480,680,cs),
(480,704,l),
(517,700,o),
(580,685,o),
(580,642,cs),
(580,621,o),
(567,609,o),
(546,609,cs)
);
}
);
width = 751;
}
);
metricRight = "=sinNdja";
},
{
glyphname = sinTt.virama;
layers = (
{
layerId = "51BB9282-3B82-4DF1-A67A-294D3E37D73A";
shapes = (
{
closed = 1;
nodes = (
(568,521,o),
(504,758,o),
(276,758,cs),
(182,758,o),
(126,718,o),
(126,718,c),
(113,694,o),
(110,666,o),
(108,656,c),
(131,671,o),
(142,675,o),
(170,687,c),
(192,717,l),
(178,707,o),
(140,660,o),
(118,588,c),
(146,585,l),
(155,636,o),
(213,700,o),
(249,705,c),
(225,706,o),
(201,707,o),
(175,687,c),
(175,687,o),
(197,694,o),
(262,694,cs),
(503,694,o),
(531,487,o),
(530,437,c),
(568,372,l)
);
},
{
ref = sinTta;
}
);
width = 628;
}
);
metricLeft = sinTta;
metricRight = sinTta;
},
{
glyphname = sinDd.virama;
layers = (
{
layerId = "51BB9282-3B82-4DF1-A67A-294D3E37D73A";
shapes = (
{
closed = 1;
nodes = (
(654,535,o),
(618,750,o),
(345,750,cs),
(250,750,o),
(175,714,o),
(175,714,c),
(161,689,o),
(158,662,o),
(157,651,c),
(180,667,o),
(211,669,o),
(239,679,c),
(262,711,l),
(248,701,o),
(210,664,o),
(178,592,c),
(219,587,l),
(238,638,o),
(283,694,o),
(318,699,c),
(294,700,o),
(271,701,o),
(245,679,c),
(245,679,o),
(258,690,o),
(324,690,cs),
(618,690,o),
(617,501,o),
(615,451,c),
(654,386,l)
);
},
{
ref = sinDda;
}
);
userData = {
com.typemytype.robofont.guides = (
{
angle = 0;
isGlobal = 0;
x = 98;
y = 881;
}
);
};
width = 696;
}
);
},
{
glyphname = sinNndd.virama;
layers = (
{
layerId = "51BB9282-3B82-4DF1-A67A-294D3E37D73A";
shapes = (
{
closed = 1;
nodes = (
(148,-12,o),
(160,-8,o),
(164,-5,c),
(148,24,o),
(118,96,o),
(118,195,cs),
(118,314,o),
(181,403,o),
(288,403,c),
(398,448,l),
(383,451,o),
(375,454,o),
(328,454,cs),
(191,454,o),
(60,374,o),
(60,197,cs),
(60,106,o),
(102,21,o),
(129,-12,c)
);
},
{
pos = (131,0);
ref = sinDd.virama;
}
);
width = 820;
}
);
},
{
glyphname = sinDh.virama;
layers = (
{
layerId = "51BB9282-3B82-4DF1-A67A-294D3E37D73A";
shapes = (
{
closed = 1;
nodes = (
(560,-16,o),
(616,122,o),
(616,259,cs),
(616,458,o),
(482,602,o),
(261,602,cs),
(209,602,o),
(152,592,o),
(121,578,c),
(112,563,o),
(107,539,o),
(107,521,cs),
(107,512,o),
(108,505,o),
(110,500,c),
(130,510,o),
(186,527,o),
(256,527,cs),
(405,527,o),
(567,473,o),
(567,276,cs),
(567,158,o),
(517,68,o),
(434,68,cs),
(401,68,o),
(347,83,o),
(347,156,c),
(348,165,l),
(329,161,l),
(310,114,o),
(279,72,o),
(207,72,cs),
(133,72,o),
(84,117,o),
(84,180,cs),
(84,253,o),
(151,304,o),
(254,304,cs),
(278,304,o),
(306,301,o),
(334,295,c),
(345,308,l),
(343,332,o),
(335,358,o),
(325,378,c),
(313,379,o),
(300,380,o),
(287,380,cs),
(163,380,o),
(44,302,o),
(44,159,cs),
(44,53,o),
(111,-15,o),
(202,-15,cs),
(292,-15,o),
(330,51,o),
(335,87,c),
(327,110,l),
(326,104,o),
(325,98,o),
(325,89,cs),
(325,31,o),
(375,-16,o),
(443,-16,cs)
);
},
{
closed = 1;
nodes = (
(594,503,o),
(558,714,o),
(307,714,cs),
(222,714,o),
(147,680,o),
(147,680,c),
(133,655,o),
(129,629,o),
(128,618,c),
(151,634,o),
(183,642,o),
(211,647,c),
(240,678,l),
(204,668,o),
(151,603,o),
(151,550,c),
(181,533,l),
(181,590,o),
(255,661,o),
(290,666,c),
(216,648,l),
(216,648,o),
(231,657,o),
(295,657,cs),
(526,657,o),
(557,469,o),
(556,419,c),
(594,354,l)
);
}
);
userData = {
com.typemytype.robofont.layerData = {
background = {
anchors = (
);
components = (
);
contours = (
{
points = (
{
segmentType = move;
smooth = 0;
x = 725;
y = 373;
},
{
smooth = 0;
x = 724;
y = 588;
},
{
smooth = 0;
x = 543;
y = 666;
},
{
segmentType = curve;
smooth = 1;
x = 382;
y = 666;
},
{
smooth = 0;
x = 227;
y = 666;
},
{
smooth = 0;
x = 146;
y = 596;
},
{
segmentType = curve;
smooth = 0;
x = 144;
y = 596;
},
{
smooth = 0;
x = 142;
y = 599;
},
{
smooth = 0;
x = 145;
y = 606;
},
{
segmentType = curve;
smooth = 1;
x = 145;
y = 616;
},
{
smooth = 0;
x = 145;
y = 637;
},
{
smooth = 0;
x = 169;
y = 675;
},
{
segmentType = curve;
smooth = 0;
x = 180;
y = 698;
},
{
smooth = 0;
x = 225;
y = 729;
},
{
smooth = 0;
x = 289;
y = 750;
},
{
segmentType = curve;
smooth = 1;
x = 382;
y = 750;
},
{
smooth = 0;
x = 613;
y = 750;
},
{
smooth = 0;
x = 785;
y = 586;
},
{
segmentType = curve;
smooth = 1;
x = 787;
y = 358;
}
);
}
);
lib = {
};
name = sinDh.virama;
unicodes = (
);
width = 852;
};
};
};
width = 656;
}
);
metricLeft = sinDha;
metricRight = sinDha;
},
{
glyphname = sinB.virama;
layers = (
{
layerId = "51BB9282-3B82-4DF1-A67A-294D3E37D73A";
shapes = (
{
closed = 1;
nodes = (
(632,531,o),
(574,766,o),
(323,766,cs),
(228,766,o),
(153,729,o),
(153,729,c),
(139,705,o),
(135,677,o),
(134,667,c),
(157,682,o),
(189,690,o),
(217,695,c),
(246,727,l),
(210,717,o),
(157,652,o),
(157,598,c),
(187,582,l),
(187,639,o),
(261,710,o),
(296,715,c),
(222,696,l),
(222,696,o),
(236,707,o),
(301,707,cs),
(554,707,o),
(594,497,o),
(593,446,c),
(632,382,l)
);
},
{
ref = sinBa;
}
);
width = 679;
}
);
},
{
glyphname = sinM.virama;
layers = (
{
anchors = (
{
name = rakaransaya;
pos = (634,286);
}
);
layerId = "51BB9282-3B82-4DF1-A67A-294D3E37D73A";
shapes = (
{
closed = 1;
nodes = (
(628,536,o),
(570,762,o),
(320,762,cs),
(224,762,o),
(149,724,o),
(149,724,c),
(135,699,o),
(131,671,o),
(130,661,c),
(153,676,o),
(185,685,o),
(213,691,c),
(242,721,l),
(206,711,o),
(153,646,o),
(153,592,c),
(183,576,l),
(183,633,o),
(257,704,o),
(292,709,c),
(218,692,l),
(218,692,o),
(233,701,o),
(297,701,cs),
(550,701,o),
(590,501,o),
(589,451,c),
(628,387,l)
);
},
{
ref = sinMa;
},
{
closed = 1;
nodes = (
(628,536,o),
(570,762,o),
(320,762,cs),
(224,762,o),
(149,724,o),
(149,724,c),
(135,699,o),
(131,671,o),
(130,661,c),
(153,676,o),
(185,685,o),
(213,691,c),
(242,721,l),
(206,711,o),
(153,646,o),
(153,592,c),
(183,576,l),
(183,633,o),
(257,704,o),
(292,709,c),
(218,692,l),
(218,692,o),
(233,701,o),
(297,701,cs),
(550,701,o),
(590,501,o),
(589,451,c),
(628,387,l)
);
}
);
width = 646;
}
);
},
{
glyphname = sinMb.virama;
layers = (
{
layerId = "51BB9282-3B82-4DF1-A67A-294D3E37D73A";
shapes = (
{
closed = 1;
nodes = (
(680,535,o),
(654,760,o),
(320,760,cs),
(224,760,o),
(149,723,o),
(149,723,c),
(136,699,o),
(131,671,o),
(130,661,c),
(153,675,o),
(185,683,o),
(213,689,c),
(242,721,l),
(206,711,o),
(153,646,o),
(153,592,c),
(183,576,l),
(183,633,o),
(257,704,o),
(292,709,c),
(218,690,l),
(218,690,o),
(266,705,o),
(331,705,cs),
(635,705,o),
(642,501,o),
(641,451,c),
(680,386,l)
);
},
{
ref = sinMba;
}
);
width = 716;
}
);
},
{
glyphname = sinY.virama;
layers = (
{
anchors = (
{
name = _Virama;
pos = (570,413);
}
);
layerId = "51BB9282-3B82-4DF1-A67A-294D3E37D73A";
shapes = (
{
closed = 1;
nodes = (
(571,445,l),
(567,555,l),
(575,534,o),
(602,511,o),
(637,511,cs),
(683,511,o),
(701,547,o),
(701,591,cs),
(701,702,o),
(577,735,o),
(550,740,c),
(534,730,l),
(531,445,l)
);
},
{
ref = sinYa;
},
{
closed = 1;
nodes = (
(599,575,o),
(567,601,o),
(567,644,cs),
(567,667,l),
(604,663,o),
(666,647,o),
(666,603,cs),
(666,582,o),
(650,575,o),
(633,575,cs)
);
}
);
width = 741;
}
);
metricRight = sinYa;
},
{
glyphname = sinR.virama;
layers = (
{
layerId = "51BB9282-3B82-4DF1-A67A-294D3E37D73A";
shapes = (
{
closed = 1;
nodes = (
(95,291,l),
(91,588,l),
(99,568,o),
(124,545,o),
(160,545,cs),
(206,545,o),
(225,580,o),
(225,625,cs),
(225,735,o),
(101,769,o),
(74,774,c),
(57,764,l),
(54,291,l)
);
},
{
ref = sinRa;
},
{
closed = 1;
nodes = (
(121,610,o),
(91,635,o),
(91,677,cs),
(91,701,l),
(127,697,o),
(189,681,o),
(189,637,cs),
(189,616,o),
(174,610,o),
(156,610,cs)
);
}
);
width = 535;
}
);
},
{
glyphname = sinV.virama;
layers = (
{
layerId = "51BB9282-3B82-4DF1-A67A-294D3E37D73A";
shapes = (
{
closed = 1;
nodes = (
(569,494,o),
(565,772,o),
(283,772,cs),
(207,772,o),
(132,734,o),
(132,734,c),
(119,709,o),
(115,681,o),
(114,671,c),
(137,687,o),
(168,696,o),
(196,701,c),
(225,732,l),
(190,721,o),
(147,657,o),
(147,602,c),
(177,587,l),
(177,643,o),
(240,714,o),
(275,719,c),
(201,702,l),
(201,702,o),
(216,711,o),
(280,711,cs),
(544,711,o),
(532,459,o),
(531,410,c),
(569,345,l)
);
},
{
ref = sinVa;
}
);
width = 601;
}
);
},
{
glyphname = sinPf.virama;
layers = (
{
anchors = (
{
name = _si_MaU;
pos = (573,209);
},
{
name = rakar;
pos = (578,177);
}
);
layerId = "51BB9282-3B82-4DF1-A67A-294D3E37D73A";
shapes = (
{
closed = 1;
nodes = (
(518,-17,o),
(640,77,o),
(640,206,cs),
(640,299,o),
(525,348,o),
(440,348,cs),
(399,348,o),
(402,340,o),
(379,329,c),
(451,303,l),
(442,316,o),
(425,332,o),
(425,372,cs),
(425,422,o),
(468,438,o),
(497,438,cs),
(542,438,o),
(579,413,o),
(579,374,cs),
(579,337,o),
(506,324,o),
(501,317,c),
(512,299,l),
(540,310,o),
(628,337,o),
(628,395,cs),
(628,439,o),
(590,487,o),
(520,487,cs),
(428,487,o),
(382,418,o),
(382,318,cs),
(382,305,o),
(383,292,o),
(384,280,c),
(394,271,l),
(428,286,o),
(464,292,o),
(500,292,cs),
(556,292,o),
(602,274,o),
(602,217,cs),
(602,137,o),
(503,77,o),
(332,77,cs),
(160,77,o),
(65,125,o),
(65,191,cs),
(65,254,o),
(125,284,o),
(214,284,cs),
(235,284,o),
(256,282,o),
(279,279,c),
(291,291,l),
(295,309,o),
(297,330,o),
(297,350,cs),
(297,415,o),
(271,485,o),
(174,485,cs),
(110,485,o),
(71,449,o),
(71,411,cs),
(71,372,o),
(99,359,o),
(126,357,c),
(134,390,o),
(166,433,o),
(210,433,cs),
(245,433,o),
(260,407,o),
(260,383,cs),
(260,343,o),
(239,321,o),
(228,311,c),
(266,341,l),
(255,343,o),
(243,344,o),
(232,344,cs),
(131,344,o),
(30,287,o),
(30,181,cs),
(30,86,o),
(104,-17,o),
(327,-17,cs)
);
},
{
closed = 1;
nodes = (
(361,190,l),
(516,204,l),
(505,237,l),
(454,235,o),
(410,234,o),
(367,234,cs),
(323,234,o),
(247,235,o),
(189,237,c),
(198,202,l),
(247,202,o),
(327,192,o),
(327,139,c)
);
},
{
closed = 1;
nodes = (
(495,-105,l),
(487,-78,l),
(433,-78,o),
(377,-70,o),
(374,-49,cs),
(361,47,o),
(363,141,o),
(363,204,cs),
(363,277,o),
(362,385,o),
(366,439,cs),
(370,520,o),
(424,571,o),
(465,571,cs),
(478,571,o),
(492,569,o),
(504,567,c),
(501,618,l),
(414,609,o),
(315,541,o),
(315,421,cs),
(317,254,o),
(317,77,o),
(317,-47,c),
(317,-47,o),
(314,-72,o),
(227,-72,c),
(234,-105,l)
);
},
{
pos = (492,55);
ref = sinVirama;
}
);
width = 655;
}
);
},
{
glyphname = sinKV.virama;
layers = (
{
layerId = "51BB9282-3B82-4DF1-A67A-294D3E37D73A";
shapes = (
{
closed = 1;
nodes = (
(269,-6,o),
(307,23,o),
(321,65,c),
(334,20,o),
(372,-6,o),
(417,-6,cs),
(514,-6,o),
(554,102,o),
(554,178,cs),
(554,268,o),
(505,334,o),
(425,334,cs),
(336,334,o),
(233,265,o),
(195,225,c),
(229,250,l),
(231,260,o),
(279,295,o),
(293,306,cs),
(338,344,o),
(451,396,o),
(548,396,cs),
(580,396,o),
(609,391,o),
(634,378,c),
(717,438,l),
(674,451,o),
(631,457,o),
(590,457,cs),
(460,457,o),
(348,397,o),
(267,329,cs),
(117,201,o),
(41,121,o),
(21,101,c),
(18,80,o),
(40,66,o),
(44,64,c),
(51,101,o),
(153,182,o),
(192,206,cs),
(246,241,o),
(321,264,o),
(386,264,cs),
(460,264,o),
(520,233,o),
(520,168,cs),
(520,113,o),
(469,83,o),
(417,83,cs),
(373,83,o),
(343,123,o),
(343,176,cs),
(343,182,o),
(343,187,o),
(344,192,c),
(324,188,l),
(310,122,o),
(262,81,o),
(212,81,cs),
(157,81,o),
(145,127,o),
(100,127,cs),
(93,127,o),
(86,126,o),
(77,123,c),
(56,94,l),
(62,99,o),
(68,101,o),
(76,101,cs),
(88,101,o),
(100,94,o),
(107,83,cs),
(137,40,o),
(164,-6,o),
(225,-6,cs)
);
},
{
closed = 1;
nodes = (
(136,291,o),
(153,293,o),
(166,300,c),
(156,312,o),
(146,328,o),
(146,351,cs),
(146,405,o),
(178,441,o),
(215,441,cs),
(250,441,o),
(266,414,o),
(266,379,cs),
(266,346,o),
(253,321,o),
(238,303,c),
(261,311,l),
(277,329,o),
(316,372,o),
(316,415,cs),
(316,454,o),
(276,470,o),
(234,470,cs),
(152,470,o),
(73,415,o),
(73,342,cs),
(73,309,o),
(89,291,o),
(123,291,cs)
);
},
{
pos = (464,0);
ref = sinV.virama;
}
);
width = 1083;
}
);
metricLeft = sinKa;
},
{
glyphname = sinTV.virama;
layers = (
{
layerId = "51BB9282-3B82-4DF1-A67A-294D3E37D73A";
shapes = (
{
closed = 1;
nodes = (
(495,-12,o),
(572,116,o),
(572,205,cs),
(572,281,o),
(520,321,o),
(449,321,cs),
(401,321,o),
(353,303,o),
(329,288,cs),
(312,278,o),
(292,268,o),
(271,250,c),
(281,261,o),
(305,282,o),
(318,293,cs),
(383,338,o),
(456,384,o),
(572,384,cs),
(600,384,o),
(626,383,o),
(647,378,c),
(732,438,l),
(693,452,o),
(650,459,o),
(611,459,cs),
(500,459,o),
(388,407,o),
(308,331,cs),
(242,268,o),
(152,161,o),
(90,83,c),
(86,61,o),
(116,47,o),
(117,45,c),
(137,101,o),
(176,145,o),
(219,183,cs),
(270,229,o),
(333,258,o),
(427,258,cs),
(490,258,o),
(541,237,o),
(541,191,cs),
(541,142,o),
(484,68,o),
(354,68,cs),
(241,68,o),
(215,117,o),
(168,117,cs),
(153,117,o),
(130,111,o),
(116,97,c),
(120,52,ls),
(119,62,o),
(131,89,o),
(159,89,cs),
(185,89,o),
(212,-12,o),
(339,-12,cs)
);
},
{
closed = 1;
nodes = (
(270,283,l),
(289,302,o),
(334,366,o),
(334,410,cs),
(334,449,o),
(297,467,o),
(249,467,cs),
(170,467,o),
(92,411,o),
(92,338,cs),
(92,306,o),
(106,287,o),
(141,287,cs),
(158,287,o),
(175,292,o),
(184,296,c),
(177,303,o),
(163,331,o),
(165,359,cs),
(166,396,o),
(189,429,o),
(227,429,cs),
(266,429,o),
(281,407,o),
(281,373,cs),
(281,341,o),
(266,286,o),
(246,265,c)
);
},
{
pos = (485,0);
ref = sinV.virama;
}
);
width = 1086;
}
);
},
{
glyphname = sinTTh.virama;
layers = (
{
layerId = "51BB9282-3B82-4DF1-A67A-294D3E37D73A";
shapes = (
{
closed = 1;
nodes = (
(928,-18,o),
(1040,118,o),
(1040,289,cs),
(1040,513,o),
(851,658,o),
(688,658,c),
(664,591,l),
(828,591,o),
(993,470,o),
(993,304,cs),
(993,182,o),
(903,72,o),
(741,72,cs),
(634,72,o),
(549,121,o),
(549,202,cs),
(549,271,o),
(610,330,o),
(715,330,cs),
(718,330,o),
(717,330,o),
(733,327,c),
(743,343,l),
(740,362,o),
(733,381,o),
(721,397,c),
(621,398,o),
(506,306,o),
(506,177,cs),
(506,49,o),
(618,-18,o),
(745,-18,cs)
);
},
{
closed = 1;
nodes = (
(235,288,l),
(254,307,o),
(299,371,o),
(299,415,cs),
(299,454,o),
(262,472,o),
(214,472,cs),
(135,472,o),
(57,416,o),
(57,344,cs),
(57,312,o),
(71,293,o),
(106,293,cs),
(123,293,o),
(140,297,o),
(149,302,c),
(142,309,o),
(128,336,o),
(130,366,cs),
(131,402,o),
(154,435,o),
(192,435,cs),
(231,435,o),
(246,413,o),
(246,379,cs),
(246,345,o),
(231,293,o),
(211,270,c)
);
},
{
closed = 1;
nodes = (
(460,-7,o),
(537,122,o),
(537,210,cs),
(537,287,o),
(485,327,o),
(414,327,cs),
(366,327,o),
(318,309,o),
(294,294,cs),
(277,283,o),
(257,273,o),
(236,257,c),
(246,267,o),
(270,288,o),
(283,298,cs),
(349,343,o),
(411,369,o),
(527,369,cs),
(566,369,o),
(617,358,o),
(650,344,c),
(721,397,l),
(676,421,o),
(625,436,o),
(556,436,cs),
(465,436,o),
(353,412,o),
(273,337,cs),
(206,274,o),
(117,166,o),
(55,89,c),
(51,66,o),
(81,52,o),
(82,51,c),
(102,107,o),
(141,150,o),
(184,188,cs),
(235,234,o),
(298,264,o),
(392,264,cs),
(455,264,o),
(506,244,o),
(506,197,cs),
(506,147,o),
(448,74,o),
(314,74,cs),
(206,74,o),
(179,122,o),
(133,122,cs),
(118,122,o),
(95,117,o),
(81,102,c),
(85,57,ls),
(84,68,o),
(96,96,o),
(124,96,cs),
(150,96,o),
(177,-7,o),
(304,-7,cs)
);
},
{
closed = 1;
nodes = (
(874,435,o),
(935,453,o),
(960,476,c),
(952,497,l),
(930,488,o),
(895,482,o),
(858,482,cs),
(736,482,o),
(688,538,o),
(688,658,c),
(655,641,l),
(653,632,o),
(650,611,o),
(650,589,cs),
(650,491,o),
(706,435,o),
(813,435,cs)
);
},
{
pos = (972,80);
ref = sinVirama;
}
);
width = 1136;
}
);
},
{
glyphname = sinNDh.virama;
layers = (
{
layerId = "51BB9282-3B82-4DF1-A67A-294D3E37D73A";
shapes = (
{
closed = 1;
nodes = (
(419,-15,o),
(516,72,o),
(514,210,cs),
(514,277,o),
(476,316,o),
(413,316,cs),
(358,316,o),
(290,271,o),
(231,223,c),
(226,206,l),
(230,212,o),
(276,268,o),
(291,282,cs),
(342,328,o),
(440,379,o),
(542,379,cs),
(589,379,o),
(638,368,o),
(684,340,c),
(762,377,l),
(706,420,o),
(641,437,o),
(577,437,cs),
(459,437,o),
(342,379,o),
(276,308,cs),
(228,255,o),
(151,137,o),
(103,137,cs),
(85,137,o),
(77,146,o),
(77,162,cs),
(77,166,o),
(79,172,o),
(80,177,c),
(77,178,o),
(70,179,o),
(64,179,cs),
(55,179,o),
(46,178,o),
(41,176,c),
(50,87,o),
(124,-15,o),
(266,-15,cs)
);
},
{
closed = 1;
nodes = (
(183,69,o),
(123,82,o),
(94,121,c),
(91,108,l),
(189,109,o),
(221,251,o),
(385,251,cs),
(447,251,o),
(485,233,o),
(485,196,cs),
(485,111,o),
(371,69,o),
(270,69,cs)
);
},
{
closed = 1;
nodes = (
(254,260,o),
(300,332,o),
(300,371,cs),
(300,410,o),
(262,429,o),
(219,429,cs),
(138,429,o),
(57,377,o),
(57,298,cs),
(57,269,o),
(75,251,o),
(111,251,cs),
(124,251,o),
(142,254,o),
(152,260,c),
(145,269,o),
(137,289,o),
(137,317,cs),
(137,357,o),
(163,394,o),
(200,394,cs),
(230,394,o),
(253,370,o),
(253,336,cs),
(253,333,o),
(252,329,o),
(252,325,cs),
(248,293,o),
(236,264,o),
(223,247,c),
(232,239,l)
);
},
{
pos = (433,0);
ref = sinDh.virama;
}
);
width = 1089;
}
);
},
{
glyphname = sinNV.virama;
layers = (
{
layerId = "51BB9282-3B82-4DF1-A67A-294D3E37D73A";
shapes = (
{
closed = 1;
nodes = (
(428,-29,o),
(525,57,o),
(523,195,cs),
(523,262,o),
(485,302,o),
(422,302,cs),
(367,302,o),
(299,256,o),
(240,209,c),
(235,191,l),
(239,197,o),
(285,254,o),
(300,267,cs),
(361,322,o),
(476,387,o),
(576,387,c),
(614,453,l),
(490,453,o),
(355,370,o),
(285,293,cs),
(237,240,o),
(160,122,o),
(112,122,cs),
(94,122,o),
(86,131,o),
(86,147,cs),
(86,152,o),
(88,158,o),
(89,163,c),
(86,164,o),
(80,165,o),
(73,165,cs),
(64,165,o),
(55,164,o),
(50,161,c),
(59,73,o),
(133,-29,o),
(275,-29,cs)
);
},
{
closed = 1;
nodes = (
(192,55,o),
(132,67,o),
(103,106,c),
(100,94,l),
(198,94,o),
(230,237,o),
(394,237,cs),
(456,237,o),
(494,218,o),
(494,181,cs),
(494,97,o),
(380,55,o),
(279,55,cs)
);
},
{
closed = 1;
nodes = (
(303,293,o),
(350,364,o),
(350,405,cs),
(350,443,o),
(322,464,o),
(269,464,cs),
(188,464,o),
(108,411,o),
(108,331,cs),
(108,301,o),
(125,284,o),
(160,284,cs),
(174,284,o),
(192,287,o),
(202,293,c),
(195,302,o),
(187,323,o),
(187,351,cs),
(187,391,o),
(212,426,o),
(250,426,cs),
(279,426,o),
(302,403,o),
(302,369,cs),
(301,359,ls),
(298,328,o),
(285,296,o),
(273,279,c),
(281,272,l)
);
},
{
pos = (437,0);
ref = sinV.virama;
}
);
width = 1063;
}
);
metricRight = sinVa;
},
{
glyphname = sinNTh.virama;
layers = (
{
layerId = "51BB9282-3B82-4DF1-A67A-294D3E37D73A";
shapes = (
{
closed = 1;
nodes = (
(395,-15,o),
(492,72,o),
(490,210,cs),
(490,277,o),
(452,316,o),
(389,316,cs),
(334,316,o),
(266,271,o),
(207,223,c),
(202,206,l),
(206,212,o),
(273,268,o),
(288,282,cs),
(342,331,o),
(376,413,o),
(512,413,cs),
(583,413,o),
(618,383,o),
(637,327,c),
(677,397,l),
(637,447,o),
(594,481,o),
(517,481,cs),
(397,481,o),
(321,382,o),
(252,308,cs),
(204,256,o),
(127,137,o),
(79,137,cs),
(61,137,o),
(53,147,o),
(53,162,cs),
(53,166,o),
(55,172,o),
(56,177,c),
(53,178,o),
(46,179,o),
(40,179,cs),
(31,179,o),
(22,178,o),
(17,176,c),
(26,87,o),
(100,-15,o),
(242,-15,cs)
);
},
{
closed = 1;
nodes = (
(159,69,o),
(99,82,o),
(70,121,c),
(67,108,l),
(165,109,o),
(197,251,o),
(361,251,cs),
(423,251,o),
(461,233,o),
(461,196,cs),
(461,112,o),
(347,69,o),
(246,69,cs)
);
},
{
closed = 1;
nodes = (
(270,307,o),
(317,379,o),
(317,419,cs),
(317,457,o),
(289,478,o),
(236,478,cs),
(155,478,o),
(75,425,o),
(75,346,cs),
(75,316,o),
(92,299,o),
(127,299,cs),
(141,299,o),
(159,302,o),
(169,307,c),
(162,316,o),
(154,338,o),
(154,366,cs),
(154,406,o),
(179,442,o),
(217,442,cs),
(246,442,o),
(269,418,o),
(269,383,cs),
(269,380,o),
(268,377,o),
(268,373,cs),
(264,342,o),
(252,311,o),
(240,295,c),
(248,287,l)
);
},
{
pos = (404,0);
ref = sinTh.virama;
}
);
width = 1056;
}
);
},
{
glyphname = sinDV.virama;
layers = (
{
layerId = "51BB9282-3B82-4DF1-A67A-294D3E37D73A";
shapes = (
{
closed = 1;
nodes = (
(124,52,o),
(140,54,o),
(148,59,c),
(136,85,o),
(106,161,o),
(106,217,cs),
(106,313,o),
(145,409,o),
(276,416,c),
(315,456,l),
(144,456,o),
(50,349,o),
(50,233,cs),
(50,139,o),
(92,85,o),
(113,52,c)
);
},
{
pos = (134,0);
ref = sinV.virama;
}
);
width = 760;
}
);
metricRight = sinVa;
},
{
glyphname = sinDDh.virama;
layers = (
{
layerId = "51BB9282-3B82-4DF1-A67A-294D3E37D73A";
shapes = (
{
closed = 1;
nodes = (
(758,535,o),
(721,750,o),
(449,750,cs),
(353,750,o),
(278,714,o),
(278,714,c),
(265,690,o),
(262,662,o),
(261,651,c),
(283,667,o),
(315,669,o),
(343,679,c),
(366,711,l),
(351,701,o),
(314,664,o),
(281,592,c),
(324,587,l),
(342,638,o),
(387,694,o),
(421,699,c),
(399,700,o),
(375,701,o),
(348,679,c),
(348,679,o),
(362,691,o),
(427,691,cs),
(721,691,o),
(720,501,o),
(718,451,c),
(758,386,l)
);
},
{
ref = sinDDha;
}
);
width = 829;
}
);
metricRight = sinDha;
},
{
glyphname = sinKhI;
layers = (
{
anchors = (
{
name = bottom;
pos = (621,202);
}
);
layerId = "51BB9282-3B82-4DF1-A67A-294D3E37D73A";
shapes = (
{
closed = 1;
nodes = (
(580,-8,o),
(637,95,o),
(637,273,cs),
(637,423,o),
(525,539,o),
(383,539,cs),
(299,539,o),
(234,525,o),
(176,525,cs),
(147,525,o),
(127,532,o),
(127,561,cs),
(127,597,o),
(174,640,o),
(341,640,cs),
(447,640,o),
(539,621,o),
(539,571,cs),
(539,541,o),
(500,522,o),
(461,522,cs),
(452,522,o),
(444,523,o),
(435,525,c),
(467,472,l),
(471,471,o),
(475,471,o),
(479,471,cs),
(523,471,o),
(570,515,o),
(570,573,cs),
(570,649,o),
(497,716,o),
(346,716,cs),
(199,716,o),
(93,662,o),
(93,539,cs),
(93,496,o),
(115,462,o),
(180,462,cs),
(233,462,o),
(294,470,o),
(385,470,cs),
(508,470,o),
(597,393,o),
(597,282,cs),
(597,172,o),
(549,70,o),
(446,70,cs),
(428,70,o),
(382,77,o),
(373,81,c),
(350,57,l),
(365,39,o),
(395,-8,o),
(453,-8,cs)
);
},
{
closed = 1;
nodes = (
(363,-8,o),
(439,136,o),
(439,231,cs),
(439,324,o),
(377,403,o),
(269,403,cs),
(146,403,o),
(54,306,o),
(54,167,cs),
(54,83,o),
(89,-13,o),
(190,-13,cs),
(260,-13,o),
(297,34,o),
(297,94,cs),
(297,150,o),
(260,182,o),
(215,182,cs),
(164,182,o),
(136,145,o),
(136,104,cs),
(136,79,o),
(146,60,o),
(156,43,c),
(193,25,l),
(177,41,o),
(174,53,o),
(174,67,cs),
(174,115,o),
(205,126,o),
(225,126,cs),
(245,126,o),
(266,113,o),
(266,90,cs),
(266,55,o),
(226,41,o),
(198,41,cs),
(157,41,o),
(93,83,o),
(93,186,cs),
(93,280,o),
(164,329,o),
(252,329,cs),
(315,329,o),
(391,303,o),
(391,211,cs),
(391,143,o),
(337,45,o),
(292,-13,c),
(301,-29,o),
(324,-43,o),
(336,-44,c)
);
}
);
width = 677;
}
);
},
{
glyphname = sinGI;
layers = (
{
anchors = (
{
name = bottom;
pos = (737,253);
}
);
layerId = "51BB9282-3B82-4DF1-A67A-294D3E37D73A";
shapes = (
{
closed = 1;
nodes = (
(663,-3,o),
(741,123,o),
(741,259,cs),
(741,387,o),
(653,473,o),
(540,473,cs),
(393,473,o),
(303,348,o),
(298,178,c),
(303,176,o),
(308,176,o),
(313,176,cs),
(321,176,o),
(328,176,o),
(336,178,c),
(334,185,o),
(333,199,o),
(333,206,cs),
(333,318,o),
(397,382,o),
(517,382,cs),
(598,382,o),
(697,338,o),
(698,236,cs),
(698,138,o),
(636,79,o),
(533,79,cs),
(516,79,o),
(493,81,o),
(476,86,c),
(466,79,l),
(466,62,o),
(486,12,o),
(506,-6,c)
);
},
{
closed = 1;
nodes = (
(386,-9,o),
(456,83,o),
(456,181,cs),
(456,258,o),
(403,315,o),
(335,314,c),
(331,260,l),
(362,259,o),
(420,240,o),
(420,188,cs),
(420,118,o),
(332,84,o),
(261,84,cs),
(160,84,o),
(82,136,o),
(82,224,cs),
(82,310,o),
(146,351,o),
(260,351,c),
(265,358,o),
(270,405,o),
(270,430,cs),
(270,436,o),
(270,442,o),
(269,445,c),
(159,444,o),
(44,372,o),
(44,203,cs),
(44,74,o),
(127,-9,o),
(257,-9,cs)
);
},
{
pos = (506,-9);
ref = sinMatraI.alt2;
scale = (1.0426,1.0426);
}
);
userData = {
com.typemytype.robofont.layerData = {
Light = {
anchors = (
);
components = (
);
contours = (
{
points = (
{
segmentType = curve;
smooth = 0;
x = 379.853;
y = 221;
},
{
smooth = 0;
x = 387.099;
y = 431.052;
},
{
smooth = 0;
x = 502.318;
y = 588.376;
},
{
segmentType = curve;
smooth = 1;
x = 684.086;
y = 590;
},
{
smooth = 0;
x = 828.813;
y = 591.293;
},
{
smooth = 0;
x = 934.32;
y = 481.852;
},
{
segmentType = curve;
smooth = 1;
x = 932.836;
y = 320;
},
{
smooth = 0;
x = 931.266;
y = 148.69;
},
{
smooth = 0;
x = 837.397;
y = -7;
},
{
segmentType = curve;
smooth = 0;
x = 651.065;
y = -10;
},
{
smooth = 0;
x = 615.222;
y = 15.291;
},
{
smooth = 0;
x = 592.61;
y = 63.658;
},
{
segmentType = curve;
smooth = 1;
x = 593.83;
y = 87;
},
{
smooth = 0;
x = 593.935;
y = 89;
},
{
smooth = 0;
x = 606.145;
y = 93;
},
{
segmentType = curve;
smooth = 0;
x = 606.249;
y = 95;
},
{
smooth = 0;
x = 752.687;
y = 56.604;
},
{
smooth = 0;
x = 874.277;
y = 148.957;
},
{
segmentType = curve;
smooth = 1;
x = 873.739;
y = 294;
},
{
smooth = 0;
x = 873.274;
y = 419.159;
},
{
smooth = 0;
x = 742.474;
y = 475;
},
{
segmentType = curve;
smooth = 1;
x = 652.584;
y = 475;
},
{
smooth = 0;
x = 493.492;
y = 475;
},
{
smooth = 0;
x = 416.941;
y = 376.358;
},
{
segmentType = curve;
smooth = 0;
x = 426.853;
y = 221;
},
{
smooth = 0;
x = 410.234;
y = 219;
},
{
smooth = 0;
x = 394.938;
y = 218;
}
);
},
{
points = (
{
segmentType = curve;
smooth = 1;
x = 64;
y = 243;
},
{
smooth = 0;
x = 74.685;
y = 447;
},
{
smooth = 0;
x = 246.967;
y = 579;
},
{
segmentType = curve;
smooth = 0;
x = 367.086;
y = 581;
},
{
smooth = 0;
x = 373.091;
y = 557.989;
},
{
smooth = 0;
x = 362.841;
y = 482.9;
},
{
segmentType = curve;
smooth = 0;
x = 356.369;
y = 472;
},
{
smooth = 0;
x = 237.226;
y = 472;
},
{
smooth = 0;
x = 129.333;
y = 390.92;
},
{
segmentType = curve;
smooth = 1;
x = 114.896;
y = 283;
},
{
smooth = 0;
x = 100.34;
y = 174.182;
},
{
smooth = 0;
x = 182.378;
y = 103.312;
},
{
segmentType = curve;
smooth = 1;
x = 310.568;
y = 102;
},
{
smooth = 0;
x = 401.305;
y = 101.071;
},
{
smooth = 0;
x = 518.809;
y = 131.218;
},
{
segmentType = curve;
smooth = 1;
x = 525.8;
y = 213;
},
{
smooth = 0;
x = 531.935;
y = 284.772;
},
{
smooth = 0;
x = 456.759;
y = 321.863;
},
{
segmentType = curve;
smooth = 0;
x = 421.412;
y = 323;
},
{
segmentType = line;
smooth = 0;
x = 432.29;
y = 375;
},
{
smooth = 0;
x = 520.248;
y = 375.938;
},
{
smooth = 0;
x = 580.684;
y = 304.072;
},
{
segmentType = curve;
smooth = 1;
x = 576.853;
y = 214;
},
{
smooth = 0;
x = 572.562;
y = 99.984;
},
{
smooth = 0;
x = 476.431;
y = -9;
},
{
segmentType = curve;
smooth = 1;
x = 328.484;
y = -12;
},
{
smooth = 0;
x = 137.065;
y = -15.882;
},
{
smooth = 0;
x = 55.877;
y = 87.874;
}
);
},
{
points = (
{
segmentType = curve;
smooth = 1;
x = 400;
y = 644;
},
{
smooth = 0;
x = 400.811;
y = 760.346;
},
{
smooth = 0;
x = 529.003;
y = 869.495;
},
{
segmentType = curve;
smooth = 1;
x = 710;
y = 871;
},
{
smooth = 0;
x = 829;
y = 871.989;
},
{
smooth = 0;
x = 933;
y = 819;
},
{
segmentType = curve;
smooth = 1;
x = 931;
y = 696;
},
{
smooth = 0;
x = 929.927;
y = 629.979;
},
{
smooth = 0;
x = 850;
y = 515;
},
{
segmentType = curve;
smooth = 0;
x = 755;
y = 541;
},
{
segmentType = line;
smooth = 0;
x = 715;
y = 586;
},
{
smooth = 0;
x = 799;
y = 557;
},
{
smooth = 0;
x = 862.885;
y = 613.995;
},
{
segmentType = curve;
smooth = 1;
x = 861;
y = 663;
},
{
smooth = 0;
x = 858;
y = 741;
},
{
smooth = 0;
x = 763.1;
y = 762.396;
},
{
segmentType = curve;
smooth = 1;
x = 665;
y = 764;
},
{
smooth = 0;
x = 549.86;
y = 765.882;
},
{
smooth = 0;
x = 461;
y = 722;
},
{
segmentType = curve;
smooth = 1;
x = 453;
y = 646;
},
{
smooth = 0;
x = 444;
y = 562;
},
{
smooth = 0;
x = 550;
y = 560;
},
{
segmentType = curve;
smooth = 0;
x = 602;
y = 580;
},
{
segmentType = line;
smooth = 0;
x = 550;
y = 516;
},
{
smooth = 0;
x = 488;
y = 516;
},
{
smooth = 0;
x = 399.332;
y = 548.168;
}
);
}
);
lib = {
};
name = sinGI;
unicodes = (
);
width = 970;
};
};
};
width = 758;
}
);
},
